<svg width="32" height="32" viewBox="0 0 32 32" fill="none" xmlns="http://www.w3.org/2000/svg"><path d="M23.5294 0H8.47059C3.79241 0 0 3.79241 0 8.47059V23.5294C0 28.2076 3.79241 32 8.47059 32H23.5294C28.2076 32 32 28.2076 32 23.5294V8.47059C32 3.79241 28.2076 0 23.5294 0Z" fill="#006AFB"/><path d="M17.0637 10.4958C17.5367 9.97591 18.1811 9.68546 18.8571 9.68751L26.0056 9.70945C27.4553 9.71382 28.2771 11.5696 27.3705 12.7917L26.2066 14.3607C25.7298 15.0034 25.0134 15.375 24.2511 15.375H12.625L17.0637 10.4958Z" fill="white"/><path d="M8.67475 17.447C9.14623 16.9285 9.79012 16.6371 10.4669 16.6361L17.6212 16.625C19.0726 16.6228 19.9024 18.4618 18.9995 19.6794L17.8403 21.2431C17.3655 21.8833 16.6497 22.2556 15.8867 22.2591L4.25 22.3125L8.67475 17.447Z" fill="white"/></svg>
