<svg xmlns="http://www.w3.org/2000/svg" viewBox="55 45 130 130">
  <path fill="#2776ea" d="M167.38 56.11H76.89c-6 0-10.86 4.86-10.86 10.86v46.17c0 6 4.86 10.86 10.86 10.86h72.8c6.27 0 12.26 2.57 16.58 7.11l11.97 12.57V66.97c0-6-4.86-10.86-10.86-10.86Z"/>
  <path fill="#fff" d="M97.03 89.85c0-1.05-.29-1.88-.88-2.49-.58-.62-1.37-.92-2.36-.92s-1.83.25-2.53.74c-.71.49-1.19 1.37-1.46 2.63l-6.47-1.53c.42-2.16 1.53-3.88 3.32-5.16 1.79-1.28 4.33-1.93 7.59-1.93 2.18 0 4.05.32 5.59.97 1.54.64 2.72 1.6 3.55 2.87.82 1.27 1.24 2.84 1.24 4.69v8.22c0 1.17.52 1.75 1.57 1.75.54 0 .97-.06 1.3-.18l-.45 4.36c-.9.42-1.99.63-3.28.63-1.17 0-2.2-.19-3.1-.56-.9-.38-1.6-.94-2.11-1.71-.51-.76-.76-1.73-.76-2.9v-.27l.86-.31c0 1.29-.38 2.37-1.15 3.23s-1.75 1.51-2.96 1.93c-1.21.42-2.48.63-3.79.63-1.53 0-2.86-.24-3.99-.72-1.14-.48-2.01-1.17-2.63-2.09-.61-.91-.92-2.04-.92-3.39 0-1.62.49-2.96 1.46-4.02.97-1.06 2.5-1.8 4.6-2.22l8.49-1.75-.04 4.04-4.31.9c-.9.18-1.56.44-2 .79-.43.34-.65.86-.65 1.55s.24 1.15.72 1.48c.48.33 1.05.5 1.71.5.51 0 1-.07 1.46-.23.46-.15.88-.38 1.23-.7s.65-.71.86-1.19c.21-.48.31-1.05.31-1.71v-5.92Z"/>
  <path fill="#fff" d="M122.17 104.53c-2.24 0-4.33-.37-6.26-1.1s-3.54-1.79-4.83-3.16l3.59-4.22c.78.96 1.78 1.76 3.01 2.4 1.23.64 2.6.96 4.13.96.96 0 1.73-.13 2.34-.38.6-.26.9-.68.9-1.28 0-.42-.15-.76-.45-1.01-.3-.25-.9-.49-1.79-.7l-3.1-.58c-2.84-.57-4.86-1.41-6.06-2.53s-1.79-2.6-1.79-4.42c0-1.23.38-2.39 1.14-3.5.76-1.11 1.93-2.02 3.5-2.74 1.57-.72 3.55-1.08 5.95-1.08s4.28.33 6.02.99c1.73.66 3.13 1.62 4.17 2.88l-3.68 4.13c-.72-.93-1.65-1.64-2.78-2.13-1.14-.49-2.29-.74-3.46-.74-.69 0-1.28.07-1.77.2s-.86.33-1.1.58-.36.55-.36.88c0 .39.19.73.56 1.01s1.07.53 2.09.74l4.09.81c2.3.42 3.96 1.18 4.98 2.29 1.02 1.11 1.53 2.45 1.53 4.04 0 1.41-.39 2.7-1.17 3.88-.78 1.18-1.94 2.11-3.5 2.78-1.55.67-3.52 1.01-5.88 1.01Z"/>
  <path fill="#fff" d="M146.55 72.11v31.96h-7.63V72.11h7.63Zm17.01 9.52-10.77 11.49-1.44.4-6.42 7.19-.04-7.81 10.19-11.27h8.48Zm-9.6 6.74 10.1 15.71h-8.44l-6.64-11.22 4.98-4.49Z"/>
</svg>
