<svg width="55" height="51" viewBox="0 0 55 51" fill="none" xmlns="http://www.w3.org/2000/svg">
<g clip-path="url(#clip0_15_5883)">
<path d="M54.0107 23.2995C54.0107 27.4198 53.0915 31.3209 51.44 34.8128V34.869L51.424 35.1524C50.8147 36.4278 50.1013 37.6444 49.3023 38.7968C49.2702 38.8422 49.2408 38.8877 49.2087 38.9332C44.3079 45.9251 36.1897 50.5 27.0053 50.5C17.821 50.5 9.70012 45.9278 4.80196 38.9332C4.76989 38.8877 4.73783 38.8422 4.70576 38.7968C3.89341 37.6257 3.17191 36.3904 2.55463 35.0936L2.56265 34.8476V34.8048C0.91924 31.3155 0 27.4171 0 23.2995C0 18.9545 1.02613 14.8503 2.84323 11.2139C2.86995 11.1551 2.89935 11.0989 2.92874 11.0428C5.1253 6.73262 8.44685 3.08824 12.5059 0.5H41.5048C45.5719 3.09358 48.8988 6.74599 51.0953 11.0695C51.1247 11.1283 51.1541 11.1845 51.1808 11.2406C52.9926 14.8717 54.0107 18.9652 54.0107 23.2995Z" fill="#F43F5E"/>
<path d="M54.0107 23.2995C54.0107 27.4198 53.0915 31.3209 51.44 34.8128V34.869L51.424 35.1524L51.2637 38.7968H2.44507L2.55463 35.0936L2.56265 34.8476V34.8048C0.91924 31.3155 0 27.4171 0 23.2995C0 18.9545 1.02613 14.8503 2.84323 11.2139C2.86995 11.1551 2.89935 11.0989 2.92874 11.0428C5.1253 6.73262 8.44685 3.08824 12.5059 0.5H41.5048C45.5719 3.09358 48.8988 6.74599 51.0953 11.0695C51.1247 11.1283 51.1541 11.1845 51.1808 11.2406C52.9926 14.8717 54.0107 18.9652 54.0107 23.2995Z" fill="#131313"/>
<path d="M23.1921 18.8021C22.0751 16.7968 20.552 15.2139 18.6253 14.0535C16.6986 12.8957 14.4994 12.3128 12.0249 12.3128C10.1838 12.3128 8.48427 12.647 6.92369 13.3128C5.36312 13.9786 4.0003 14.9064 2.84323 16.1043V11.2166C1.02613 14.8529 0 18.9572 0 23.2994C0 27.4144 0.91924 31.3155 2.56532 34.8021V34.8449C3.70903 36.1016 5.07453 37.0936 6.66716 37.8182C7.72803 38.3021 8.8557 38.6283 10.0502 38.7941C10.6888 38.8877 11.3489 38.9305 12.0276 38.9305C12.7064 38.9305 13.3985 38.885 14.0505 38.7941C15.7179 38.5588 17.2438 38.024 18.628 37.1925C20.5546 36.0321 22.0778 34.4438 23.1948 32.4305C24.3118 30.4144 24.8703 28.1444 24.8703 25.6203C24.8703 23.0962 24.3118 20.8021 23.1948 18.7994L23.1921 18.8021ZM18.4062 30.0294C17.6847 31.3235 16.696 32.3502 15.44 33.1016C14.1868 33.8529 12.7651 34.2272 11.1805 34.2272C9.5959 34.2272 8.26782 33.8823 7.04929 33.1898C5.83076 32.5 4.85006 31.5534 4.10719 30.3476C3.36698 29.1444 2.94745 27.7834 2.84323 26.2647V24.9599C2.94477 23.4224 3.36966 22.0588 4.12322 20.8663C4.87411 19.6711 5.85748 18.7326 7.07868 18.0481C8.29721 17.3663 9.66271 17.024 11.1832 17.024C12.7037 17.024 14.1894 17.3984 15.4427 18.1497C16.6986 18.901 17.6874 19.9278 18.4089 21.2219C19.1357 22.5214 19.4964 23.9893 19.4964 25.6256C19.4964 27.262 19.133 28.7299 18.4089 30.0294H18.4062Z" fill="white"/>
<path d="M51.1808 11.2407V16.1043C50.0238 14.9091 48.6609 13.9786 47.1004 13.3129C45.5398 12.6471 43.8403 12.3129 41.9991 12.3129C39.5247 12.3129 37.3254 12.8957 35.3961 14.0535C33.4694 15.2139 31.9489 16.7968 30.832 18.8022C29.7123 20.8048 29.1565 23.0829 29.1565 25.623C29.1565 28.1631 29.7123 30.4171 30.832 32.4332C31.9489 34.4465 33.4694 36.0348 35.3961 37.1952C36.783 38.0268 38.3088 38.5615 39.9763 38.7968C40.6283 38.8877 41.3017 38.9332 41.9991 38.9332C42.6966 38.9332 43.3352 38.8877 43.9739 38.7968C45.1684 38.6284 46.296 38.3022 47.3569 37.8209C48.9388 37.1016 50.299 36.1177 51.4374 34.869V34.8129C53.0915 31.3209 54.0107 27.4198 54.0107 23.2995C54.0107 18.9653 52.9926 14.8717 51.1808 11.2407ZM51.1808 26.2621C51.0793 27.7808 50.6571 29.1444 49.9142 30.3449C49.174 31.5481 48.1933 32.4973 46.9748 33.1872C45.7562 33.8797 44.3774 34.2246 42.8435 34.2246C41.3097 34.2246 39.8373 33.8503 38.584 33.0989C37.3281 32.3476 36.3394 31.3209 35.6125 30.0268C34.891 28.7273 34.5276 27.2594 34.5276 25.623C34.5276 23.9867 34.891 22.5187 35.6125 21.2193C36.3394 19.9252 37.3281 18.8984 38.584 18.1471C39.8373 17.3957 41.2536 17.0214 42.8435 17.0214C44.4335 17.0214 45.7295 17.3637 46.948 18.0455C48.1666 18.73 49.1526 19.6685 49.9035 20.8637C50.6544 22.0562 51.0793 23.4225 51.1835 24.9572V26.2621H51.1808Z" fill="white"/>
<path d="M16.0867 22.9252C15.595 22.0802 14.9189 21.4091 14.0612 20.9171C13.2061 20.4225 12.2307 20.1738 11.1458 20.1738C10.0609 20.1738 9.09085 20.4225 8.22773 20.9171C7.36193 21.4091 6.68052 22.0829 6.18616 22.9252C5.68646 23.7728 5.43794 24.73 5.43794 25.7968C5.43794 26.8637 5.68646 27.8316 6.18616 28.6792C6.68052 29.5268 7.36193 30.1952 8.22773 30.6845C9.09085 31.1765 10.0635 31.4198 11.1458 31.4198C12.228 31.4198 13.2034 31.1738 14.0612 30.6845C14.9189 30.1952 15.595 29.5268 16.0867 28.6792C16.5784 27.8316 16.8269 26.8717 16.8269 25.7968C16.8269 24.722 16.5784 23.7728 16.0867 22.9252ZM14.1093 27.6524C13.8126 28.1979 13.4038 28.631 12.8907 28.9519C12.375 29.2728 11.7898 29.4332 11.1324 29.4332C10.4751 29.4332 9.90053 29.2728 9.38212 28.9519C8.86639 28.631 8.45219 28.1979 8.15558 27.6524C7.85629 27.1097 7.70665 26.492 7.70665 25.7968C7.70665 25.1016 7.85896 24.4867 8.15558 23.9412C8.45219 23.3984 8.86372 22.9653 9.38212 22.6444C9.90053 22.3262 10.4857 22.1631 11.1324 22.1631C11.7791 22.1631 12.3723 22.3262 12.8907 22.6444C13.4038 22.9679 13.8126 23.3984 14.1093 23.9412C14.4085 24.4867 14.5582 25.1043 14.5582 25.7968C14.5582 26.4893 14.4059 27.107 14.1093 27.6524Z" fill="#F43F5E"/>
<path d="M47.7497 22.9252C47.2527 22.0802 46.5793 21.4091 45.7242 20.9171C44.8664 20.4225 43.891 20.1738 42.8061 20.1738C41.7212 20.1738 40.7512 20.4225 39.8881 20.9171C39.0223 21.4091 38.3435 22.0829 37.8465 22.9252C37.3468 23.7728 37.101 24.73 37.101 25.7968C37.101 26.8637 37.3468 27.8316 37.8465 28.6792C38.3435 29.5268 39.0223 30.1952 39.8881 30.6845C40.7512 31.1765 41.7265 31.4198 42.8061 31.4198C43.8857 31.4198 44.8664 31.1738 45.7242 30.6845C46.5793 30.1952 47.2554 29.5268 47.7497 28.6792C48.2414 27.8316 48.4872 26.8717 48.4872 25.7968C48.4872 24.722 48.2414 23.7728 47.7497 22.9252ZM45.7696 27.6524C45.4703 28.1979 45.0615 28.631 44.5484 28.9519C44.0353 29.2728 43.4475 29.4332 42.7901 29.4332C42.1327 29.4332 41.5609 29.2728 41.0398 28.9519C40.5241 28.631 40.1152 28.1979 39.8159 27.6524C39.5166 27.1097 39.367 26.492 39.367 25.7968C39.367 25.1016 39.514 24.4867 39.8159 23.9412C40.1152 23.3984 40.5241 22.9653 41.0398 22.6444C41.5609 22.3262 42.1434 22.1631 42.7901 22.1631C43.4368 22.1631 44.0353 22.3262 44.5484 22.6444C45.0641 22.9679 45.4703 23.3984 45.7696 23.9412C46.0662 24.4867 46.2185 25.1043 46.2185 25.7968C46.2185 26.4893 46.0662 27.107 45.7696 27.6524Z" fill="#F43F5E"/>
</g>
<defs>
<clipPath id="clip0_15_5883">
<rect width="54.0107" height="50" fill="white" transform="translate(0 0.5)"/>
</clipPath>
</defs>
</svg>
