<svg xmlns="http://www.w3.org/2000/svg" width="500" height="500" viewBox="0 0 375 375">
  <rect x="0" y="0" width="375" height="375" rx="48" ry="48" fill="#7ed957"/>
  <path fill="#fff" fill-rule="nonzero" d="M152.535 133.844c10.668 7.758 20.23 3.433 23.028-9.598l8.695-56.48c2.004-13.032 5.281-13.032 7.543 0l8.434 56.48c2.007 13.031 12.37 17.347 23.027 9.598l49.12-35.723c10.66-7.758 13.04-5.379 5.282 5.29l-35.723 49.113c-7.757 10.668-3.441 21.023 9.59 23.027l56.488 8.692c13.032 2.008 13.032 5.281 0 7.289l-56.488 8.691c-13.031 2.008-17.347 12.367-9.59 23.25l35.723 48.899c7.758 10.66 5.379 13.039-5.281 5.281l-49.121-35.722c-10.657-7.758-21.02-3.442-23.027 9.59l-8.692 56.488c-2.004 13.031-5.281 13.031-7.543 0l-8.433-56.488c-2.004-13.032-12.368-17.348-23.032-9.59l-49.113 35.722c-10.656 7.758-12.632 5.696-4.363-4.578l40.63-50.527c8.26-10.274 4.331-20.16-8.724-21.957l-64.375-8.89c-13.055-1.81-13.09-4.954-.066-6.997l57.754-9.07c13.023-2.047 17.336-12.45 9.578-23.11l-35.723-49.113c-7.758-10.66-5.375-13.039 5.281-5.281Zm0 0"/>
</svg>
