<svg width="168" height="168" viewBox="0 0 168 168" fill="none" xmlns="http://www.w3.org/2000/svg">
<path d="M84 0C87.3247 5.90993e-06 90.6043 0.193634 93.8281 0.569336L97.1006 6.41895C99.8488 11.3314 106.109 13.0081 110.945 10.1279L116.794 6.64355C122.834 9.20735 128.511 12.4585 133.729 16.2979L133.637 23.2295C133.561 28.8576 138.142 33.4393 143.771 33.3633L150.951 33.2656C154.783 38.3142 158.057 43.8091 160.681 49.6592L156.872 56.0557C153.992 60.8918 155.669 67.1512 160.581 69.8994L167.373 73.6992C167.786 77.0751 168 80.5126 168 84C168 86.7566 167.865 89.4824 167.605 92.1709L160.581 96.1016C155.669 98.8499 153.992 105.109 156.872 109.945L161.187 117.189C158.81 122.708 155.86 127.921 152.41 132.753L143.771 132.637C138.142 132.561 133.56 137.143 133.637 142.771L133.757 151.683C129.092 155.118 124.059 158.082 118.729 160.506C118.7 160.489 118.67 160.473 118.642 160.456L110.945 155.872C106.109 152.992 99.8488 154.67 97.1006 159.582L92.7266 167.4C92.6961 167.455 92.664 167.508 92.6328 167.562C89.7946 167.851 86.9147 168 84 168C81.085 168 78.2047 167.851 75.3662 167.562C75.335 167.508 75.3029 167.455 75.2725 167.4L70.8984 159.582C68.1502 154.67 61.8909 152.992 57.0547 155.872L49.3574 160.456C49.3284 160.473 49.2986 160.489 49.2695 160.506C43.9391 158.082 38.9068 155.118 34.2422 151.683L34.3633 142.771C34.4395 137.143 29.8569 132.56 24.2285 132.637L15.5879 132.753C12.1384 127.921 9.18842 122.709 6.8125 117.19L11.1279 109.945C14.0081 105.109 12.3304 98.8497 7.41797 96.1016L0.393555 92.1719C0.133976 89.483 0 86.7569 0 84C1.48714e-05 80.5123 0.213102 77.0744 0.625977 73.6982L7.41797 69.8994C12.3303 67.1513 14.0079 60.8918 11.1279 56.0557L7.31836 49.6592C9.94229 43.8091 13.2162 38.3142 17.0479 33.2656L24.2285 33.3633C29.8568 33.4395 34.4394 28.8578 34.3633 23.2295L34.2695 16.2979C39.4873 12.4587 45.1644 9.20733 51.2041 6.64355L57.0547 10.1279C61.8908 13.0081 68.1502 11.3311 70.8984 6.41895L74.1699 0.569336C77.3944 0.193504 80.6747 0 84 0Z" fill="black"/>
</svg>
