<svg xmlns="http://www.w3.org/2000/svg" viewBox="0 0 335 336"><path fill="#4733ff" d="M167.5.8C75 .8 0 75.8 0 168.3s75 167.5 167.5 167.5S335 260.9 335 168.3C335 75.8 260 .8 167.5.8M59.7 105.9c1.2-2.2 3.3-3.7 4.8-4.5L162.4 45c3.6-2.1 7.1-2 10.8.1l11 6.3c.5.2 1 .9.9 1.9 0 .9-.6 1.6-1 1.8l-42.4 24.6s-.4.2-.5.8c-.1.7.5 1 .5 1l42.2 24.1c.4.1 1.1.8 1.2 1.9.2 1.2-.4 2-.9 2.3l-1.9 1.1-55.9 32.5c-.2.1-.9.5-1.1 1.2-.3.7-.2 1-.3 1.4v21.6c0 .4-.2 1.3-1.1 1.8-.7.4-1.5.1-1.8 0l-15.4-8.9c-.3-.1-.8-.5-1.1-.9s-.3-1-.3-1.3l-.2-18.1c0-4.3 2.4-8.6 6.3-10.9l35.2-20.4s.5-.2.5-.8-.5-1-.5-1l-25.9-14.9c-.2-.1-.5-.1-.7 0l-40.9 23.6c-.2.1-.8.5-1 .9-.4.7-.4 1.3-.4 1.6l-.3 19.1c0 .2-.1 1-.7 1.6-.7.6-1.6.5-2.3.1l-15.3-8.8s-.5-.2-.8-.7c-.4-.5-.4-1.2-.4-1.4V112c.3-1.6.6-4 1.8-6.1m131.2 120.6c-.2.4-.7.8-.9.9l-15.6 9.3c-3.7 2.2-8.7 2.2-12.5 0l-35.3-20.2s-.4-.3-1 0-.6.9-.6.9l.1 29.8c0 .2.1.5.3.6l40.9 23.6c.2.1.8.4 1.3.4.8 0 1.3-.3 1.6-.5l16.7-9.3c.2-.1.9-.4 1.7-.2.9.3 1.3 1.2 1.3 1.9v17.6s0 .5-.2 1.1c-.3.6-.9.9-1 1l-14 8.1c-1.6.7-3.9 1.6-6.3 1.6-2.5 0-4.9-1-6.3-1.9l-97.8-56.4c-3.6-2.1-5.3-5.1-5.3-9.4v-12.7c0-.5.3-1.3 1.2-1.8.8-.4 1.6-.3 2.1 0l42.5 24.4s.4.3 1 0 .6-1 .6-1l-.2-48.6c-.1-.4.1-1.3 1-2s1.9-.7 2.5-.4l1.9 1.1 56.1 32.1c.2.1.9.5 1.6.4s.9-.3 1.3-.5l18.7-10.8c.3-.2 1.3-.5 2.1 0 .7.4.9 1.3.9 1.6V225c-.1.4-.1 1.1-.4 1.5m80.8 8.3-11 6.4c-.4.3-1.3.4-2.1-.1s-1.1-1.3-1.1-1.8l-.1-49s0-.5-.5-.9c-.6-.4-1.1 0-1.1 0l-42 24.5c-.3.3-1.2.6-2.3.1-1.1-.4-1.5-1.3-1.6-1.9v-2.2l-.3-64.7c0-.2 0-1-.4-1.6-.5-.6-.7-.7-1-.9L189.5 132c-.3-.2-1.1-.8-1.1-1.8 0-.8.7-1.4.9-1.6l15.4-8.9c.2-.2.8-.4 1.3-.5.5 0 1.1.2 1.3.3l15.8 8.9c3.8 2.1 6.2 6.4 6.3 10.9l.1 40.7s0 .5.5.9 1.1 0 1.1 0l25.8-15q.3-.15.3-.6l-.1-47.2c0-.2 0-.9-.3-1.3-.4-.7-1-1-1.2-1.1l-16.4-9.8c-.1-.1-.8-.6-1-1.4-.2-.9.4-1.7 1-2l15.3-8.9s.4-.3 1-.3 1.2.3 1.4.4l14.1 8.1c1.4 1.1 3.3 2.5 4.6 4.6 1.3 2.2 1.6 4.7 1.5 6.4v112.9c0 3.9-1.8 6.9-5.4 9.1"/></svg>
