<svg width="140" height="140" viewBox="0 0 140 140" fill="none" xmlns="http://www.w3.org/2000/svg">
<rect width="140" height="140" fill="black"/>
<path d="M34.2441 50.6521H105.769L105.769 43.4319C105.769 38.3528 101.651 34.2354 96.5721 34.2354H43.441C38.3617 34.2354 34.2441 38.3528 34.2441 43.4319V50.6521Z" fill="url(#paint0_linear_12469_2267)"/>
<path d="M34.2441 96.5678C34.2441 101.647 38.3617 105.764 43.4409 105.764H78.9378C76.3766 102.488 72.3588 100.361 67.8024 100.356L61.7787 100.349L61.7787 82.4928L67.8024 82.4861C75.6266 82.4775 81.8623 76.2122 81.8623 68.6133V62.5831H99.792V68.6133C99.792 73.2791 102.143 77.4421 105.769 79.9627L105.769 56.7829L34.2441 56.7831V96.5678Z" fill="url(#paint1_linear_12469_2267)"/>
<path d="M87.8971 68.6201C87.8971 79.6047 78.9074 88.5109 67.8135 88.5231L67.8135 94.3326C78.9074 94.3449 87.8971 103.251 87.8971 114.236H93.766C93.766 103.251 102.756 94.3449 113.85 94.3326L113.85 88.5231C102.756 88.5109 93.766 79.6047 93.766 68.6201H87.8971Z" fill="#F5F7FF"/>
<defs>
<linearGradient id="paint0_linear_12469_2267" x1="34.2441" y1="34.2354" x2="90.5718" y2="91.5052" gradientUnits="userSpaceOnUse">
<stop stop-color="#CCD4FF"/>
<stop offset="1" stop-color="#3D404D"/>
</linearGradient>
<linearGradient id="paint1_linear_12469_2267" x1="34.2441" y1="34.2354" x2="90.5718" y2="91.5052" gradientUnits="userSpaceOnUse">
<stop stop-color="#CCD4FF"/>
<stop offset="1" stop-color="#3D404D"/>
</linearGradient>
</defs>
</svg>
