<svg xmlns="http://www.w3.org/2000/svg" version="1" xmlns:xlink="http://www.w3.org/1999/xlink" width="512" zoomAndPan="magnify" viewBox="0 0 384 383.999986" height="512" preserveAspectRatio="xMidYMid meet"><metadata><rdf:RDF xmlns:rdf="http://www.w3.org/1999/02/22-rdf-syntax-ns#" xmlns:dc="http://purl.org/dc/elements/1.1/"><rdf:Description><dc:creator>RealFaviconGenerator</dc:creator><dc:source>https://realfavicongenerator.net</dc:source></rdf:Description></rdf:RDF></metadata><defs><clipPath id="ec7c2e72e3"><path d="M 52.5 0 L 331.5 0 C 360.496094 0 384 23.503906 384 52.5 L 384 331.5 C 384 360.496094 360.496094 384 331.5 384 L 52.5 384 C 23.503906 384 0 360.496094 0 331.5 L 0 52.5 C 0 23.503906 23.503906 0 52.5 0 Z M 52.5 0 " clip-rule="nonzero"></path></clipPath><clipPath id="23cb431ea1"><path d="M 0 0 L 384 0 L 384 384 L 0 384 Z M 0 0 " clip-rule="nonzero"></path></clipPath><clipPath id="4fbcc5d09a"><path d="M 52.5 0 L 331.5 0 C 360.496094 0 384 23.503906 384 52.5 L 384 331.5 C 384 360.496094 360.496094 384 331.5 384 L 52.5 384 C 23.503906 384 0 360.496094 0 331.5 L 0 52.5 C 0 23.503906 23.503906 0 52.5 0 Z M 52.5 0 " clip-rule="nonzero"></path></clipPath><clipPath id="2f4081065b"><rect x="0" width="384" y="0" height="384"></rect></clipPath></defs><g clip-path="url(#ec7c2e72e3)"><g><g clip-path="url(#2f4081065b)"><g clip-path="url(#23cb431ea1)"><g clip-path="url(#4fbcc5d09a)"><rect x="-84.48" width="552.96" fill="#624ce0" height="552.959979" y="-84.479997" fill-opacity="1"></rect></g></g></g></g></g><path fill="#624ce0" d="M 384 192 C 384 195.140625 383.921875 198.28125 383.769531 201.421875 C 383.613281 204.558594 383.382812 207.691406 383.074219 210.820312 C 382.765625 213.945312 382.382812 217.0625 381.921875 220.171875 C 381.460938 223.28125 380.921875 226.375 380.3125 229.457031 C 379.699219 232.539062 379.007812 235.605469 378.246094 238.652344 C 377.484375 241.699219 376.644531 244.726562 375.734375 247.734375 C 374.820312 250.742188 373.835938 253.722656 372.777344 256.683594 C 371.71875 259.640625 370.585938 262.570312 369.386719 265.476562 C 368.183594 268.378906 366.910156 271.25 365.566406 274.089844 C 364.222656 276.929688 362.808594 279.738281 361.328125 282.507812 C 359.847656 285.28125 358.300781 288.011719 356.683594 290.707031 C 355.070312 293.402344 353.386719 296.058594 351.640625 298.667969 C 349.894531 301.28125 348.085938 303.851562 346.214844 306.375 C 344.34375 308.898438 342.410156 311.375 340.417969 313.804688 C 338.425781 316.234375 336.371094 318.609375 334.261719 320.9375 C 332.152344 323.265625 329.984375 325.542969 327.765625 327.765625 C 325.542969 329.984375 323.265625 332.152344 320.9375 334.261719 C 318.609375 336.371094 316.234375 338.425781 313.804688 340.417969 C 311.375 342.410156 308.898438 344.34375 306.375 346.214844 C 303.851562 348.085938 301.28125 349.894531 298.667969 351.640625 C 296.058594 353.386719 293.402344 355.070312 290.707031 356.683594 C 288.011719 358.300781 285.28125 359.847656 282.507812 361.328125 C 279.738281 362.808594 276.929688 364.222656 274.089844 365.566406 C 271.25 366.910156 268.378906 368.183594 265.476562 369.386719 C 262.570312 370.585938 259.640625 371.71875 256.683594 372.777344 C 253.722656 373.835938 250.742188 374.820312 247.734375 375.734375 C 244.726562 376.644531 241.699219 377.484375 238.652344 378.246094 C 235.605469 379.007812 232.539062 379.699219 229.457031 380.3125 C 226.375 380.921875 223.28125 381.460938 220.171875 381.921875 C 217.0625 382.382812 213.945312 382.765625 210.820312 383.074219 C 207.691406 383.382812 204.558594 383.613281 201.421875 383.769531 C 198.28125 383.921875 195.140625 384 192 384 C 188.859375 384 185.71875 383.921875 182.578125 383.769531 C 179.441406 383.613281 176.308594 383.382812 173.179688 383.074219 C 170.054688 382.765625 166.9375 382.382812 163.828125 381.921875 C 160.71875 381.460938 157.625 380.921875 154.542969 380.3125 C 151.460938 379.699219 148.394531 379.007812 145.347656 378.246094 C 142.300781 377.484375 139.273438 376.644531 136.265625 375.734375 C 133.257812 374.820312 130.277344 373.835938 127.316406 372.777344 C 124.359375 371.71875 121.429688 370.585938 118.523438 369.386719 C 115.621094 368.183594 112.75 366.910156 109.910156 365.566406 C 107.070312 364.222656 104.261719 362.808594 101.492188 361.328125 C 98.71875 359.847656 95.988281 358.300781 93.292969 356.683594 C 90.597656 355.070312 87.941406 353.386719 85.332031 351.640625 C 82.71875 349.894531 80.148438 348.085938 77.625 346.214844 C 75.101562 344.34375 72.625 342.410156 70.195312 340.417969 C 67.765625 338.425781 65.390625 336.371094 63.0625 334.261719 C 60.734375 332.152344 58.457031 329.984375 56.234375 327.765625 C 54.011719 325.542969 51.847656 323.265625 49.738281 320.9375 C 47.628906 318.609375 45.574219 316.234375 43.582031 313.804688 C 41.589844 311.375 39.65625 308.898438 37.785156 306.375 C 35.914062 303.851562 34.105469 301.28125 32.359375 298.667969 C 30.613281 296.058594 28.929688 293.402344 27.316406 290.707031 C 25.699219 288.011719 24.152344 285.28125 22.671875 282.507812 C 21.191406 279.738281 19.777344 276.929688 18.433594 274.089844 C 17.089844 271.25 15.816406 268.378906 14.613281 265.476562 C 13.414062 262.570312 12.28125 259.640625 11.222656 256.683594 C 10.164062 253.722656 9.179688 250.742188 8.265625 247.734375 C 7.355469 244.726562 6.515625 241.699219 5.753906 238.652344 C 4.992188 235.605469 4.300781 232.539062 3.6875 229.457031 C 3.078125 226.375 2.539062 223.28125 2.078125 220.171875 C 1.617188 217.0625 1.234375 213.945312 0.925781 210.820312 C 0.617188 207.691406 0.386719 204.558594 0.230469 201.421875 C 0.078125 198.28125 0 195.140625 0 192 C 0 188.859375 0.078125 185.71875 0.230469 182.578125 C 0.386719 179.441406 0.617188 176.308594 0.925781 173.179688 C 1.234375 170.054688 1.617188 166.9375 2.078125 163.828125 C 2.539062 160.71875 3.078125 157.625 3.6875 154.542969 C 4.300781 151.460938 4.992188 148.394531 5.753906 145.347656 C 6.515625 142.300781 7.355469 139.273438 8.265625 136.265625 C 9.179688 133.257812 10.164062 130.277344 11.222656 127.316406 C 12.28125 124.359375 13.414062 121.429688 14.613281 118.523438 C 15.816406 115.621094 17.089844 112.75 18.433594 109.910156 C 19.777344 107.070312 21.191406 104.261719 22.671875 101.492188 C 24.152344 98.71875 25.699219 95.988281 27.316406 93.292969 C 28.929688 90.597656 30.613281 87.941406 32.359375 85.332031 C 34.105469 82.71875 35.914062 80.148438 37.785156 77.625 C 39.65625 75.101562 41.589844 72.625 43.582031 70.195312 C 45.574219 67.765625 47.628906 65.390625 49.738281 63.0625 C 51.847656 60.734375 54.011719 58.457031 56.234375 56.234375 C 58.457031 54.011719 60.734375 51.847656 63.0625 49.738281 C 65.390625 47.628906 67.765625 45.574219 70.195312 43.582031 C 72.625 41.589844 75.101562 39.65625 77.625 37.785156 C 80.148438 35.914062 82.71875 34.105469 85.332031 32.359375 C 87.941406 30.613281 90.597656 28.929688 93.292969 27.316406 C 95.988281 25.699219 98.71875 24.152344 101.492188 22.671875 C 104.261719 21.191406 107.070312 19.777344 109.910156 18.433594 C 112.75 17.089844 115.621094 15.816406 118.523438 14.613281 C 121.429688 13.414062 124.359375 12.28125 127.316406 11.222656 C 130.277344 10.164062 133.257812 9.179688 136.265625 8.265625 C 139.273438 7.355469 142.300781 6.515625 145.347656 5.753906 C 148.394531 4.992188 151.460938 4.300781 154.542969 3.6875 C 157.625 3.078125 160.71875 2.539062 163.828125 2.078125 C 166.9375 1.617188 170.054688 1.234375 173.179688 0.925781 C 176.308594 0.617188 179.441406 0.386719 182.578125 0.230469 C 185.71875 0.078125 188.859375 0 192 0 C 195.140625 0 198.28125 0.078125 201.421875 0.230469 C 204.558594 0.386719 207.691406 0.617188 210.820312 0.925781 C 213.945312 1.234375 217.0625 1.617188 220.171875 2.078125 C 223.28125 2.539062 226.375 3.078125 229.457031 3.6875 C 232.539062 4.300781 235.605469 4.992188 238.652344 5.753906 C 241.699219 6.515625 244.726562 7.355469 247.734375 8.265625 C 250.742188 9.179688 253.722656 10.164062 256.683594 11.222656 C 259.640625 12.28125 262.570312 13.414062 265.476562 14.613281 C 268.378906 15.816406 271.25 17.089844 274.089844 18.433594 C 276.929688 19.777344 279.738281 21.191406 282.507812 22.671875 C 285.28125 24.152344 288.011719 25.699219 290.707031 27.316406 C 293.402344 28.929688 296.058594 30.613281 298.667969 32.359375 C 301.28125 34.105469 303.851562 35.914062 306.375 37.785156 C 308.898438 39.65625 311.375 41.589844 313.804688 43.582031 C 316.234375 45.574219 318.609375 47.628906 320.9375 49.738281 C 323.265625 51.847656 325.542969 54.011719 327.765625 56.234375 C 329.984375 58.457031 332.152344 60.734375 334.261719 63.0625 C 336.371094 65.390625 338.425781 67.765625 340.417969 70.195312 C 342.410156 72.625 344.34375 75.101562 346.214844 77.625 C 348.085938 80.148438 349.894531 82.71875 351.640625 85.332031 C 353.386719 87.941406 355.070312 90.597656 356.683594 93.292969 C 358.300781 95.988281 359.847656 98.71875 361.328125 101.492188 C 362.808594 104.261719 364.222656 107.070312 365.566406 109.910156 C 366.910156 112.75 368.183594 115.621094 369.386719 118.523438 C 370.585938 121.429688 371.71875 124.359375 372.777344 127.316406 C 373.835938 130.277344 374.820312 133.257812 375.734375 136.265625 C 376.644531 139.273438 377.484375 142.300781 378.246094 145.347656 C 379.007812 148.394531 379.699219 151.460938 380.3125 154.542969 C 380.921875 157.625 381.460938 160.71875 381.921875 163.828125 C 382.382812 166.9375 382.765625 170.054688 383.074219 173.179688 C 383.382812 176.308594 383.613281 179.441406 383.769531 182.578125 C 383.921875 185.71875 384 188.859375 384 192 Z M 384 192 " fill-opacity="1" fill-rule="nonzero"></path><path fill="#fbfbfb" d="M 290.652344 213.1875 C 290.652344 240.832031 268.234375 263.246094 240.582031 263.246094 C 212.933594 263.246094 190.515625 240.832031 190.515625 213.1875 L 190.515625 193.492188 L 93.347656 290.652344 L 93.347656 170.816406 C 93.347656 143.167969 115.765625 120.753906 143.414062 120.753906 C 171.066406 120.753906 193.480469 143.167969 193.480469 170.816406 L 193.480469 190.507812 L 290.652344 93.347656 Z M 290.652344 213.1875 " fill-opacity="1" fill-rule="nonzero"></path></svg>