<svg xmlns="http://www.w3.org/2000/svg" width="32" height="32" viewBox="0 0 48 48">
  <g transform="translate(0.61 3.78)">
    <path d="M46.714,56.017a7.313,7.313,0,0,0-10.347,0l-3.662,3.662a2.661,2.661,0,0,1-3.76,0l-3.662-3.662A7.316,7.316,0,1,0,14.937,66.364L30.025,81.457a1.128,1.128,0,0,0,1.6,0L46.71,66.364a7.313,7.313,0,0,0,0-10.347Z" transform="translate(-12.792 -43.159)" fill="#d7063a"/>
    <path d="M73.383,49.963a7.313,7.313,0,0,1,0,10.347h0l5.357-5.357A7.316,7.316,0,0,0,68.393,44.607L63.06,49.94a7.313,7.313,0,0,1,10.319.023Z" transform="translate(-39.461 -37.106)" fill="#ee847d"/>
    <path d="M84.793,38.553a7.313,7.313,0,0,1,0,10.347h0l5.357-5.357A7.316,7.316,0,0,0,79.8,33.2L74.47,38.53a7.313,7.313,0,0,1,10.319.023Z" transform="translate(-45.515 -31.053)" fill="#f7c5ab"/>
  </g>
</svg>
