<?xml version="1.0" encoding="UTF-8"?>
<svg version="1.1" xmlns="http://www.w3.org/2000/svg" width="317" height="318">
<path d="M0 0 C5.45951636 5.16917012 5.45951636 5.16917012 6.87890625 8.90625 C7.15855225 9.6386792 7.43819824 10.3711084 7.72631836 11.12573242 C8.0022583 11.90924072 8.27819824 12.69274902 8.5625 13.5 C8.85842041 14.33313721 9.15434082 15.16627441 9.45922852 16.0246582 C20.09899322 47.2627745 18.30400054 80.23367376 4.02978516 110.02490234 C-0.05505536 118.05400781 -5.06993095 125.2303692 -11 132 C-12.23363281 133.43279297 -12.23363281 133.43279297 -13.4921875 134.89453125 C-22.94774335 145.67229914 -33.54557479 154.83078602 -46 162 C-47.11761719 162.65742188 -48.23523438 163.31484375 -49.38671875 163.9921875 C-79.71444049 181.32348374 -116.49065562 184.14456523 -149.9375 175.25 C-150.81277344 174.98703125 -151.68804687 174.7240625 -152.58984375 174.453125 C-157.10737421 173.60379999 -160.61525158 175.12007252 -164.52734375 177.30078125 C-165.39174072 177.77789551 -166.2561377 178.25500977 -167.14672852 178.74658203 C-168.06768311 179.26333496 -168.9886377 179.78008789 -169.9375 180.3125 C-171.90359504 181.39983144 -173.86974247 182.48706814 -175.8359375 183.57421875 C-176.8475293 184.1367334 -177.85912109 184.69924805 -178.90136719 185.27880859 C-183.94454942 188.080135 -189.00246732 190.85426283 -194.0625 193.625 C-195.44393188 194.38744019 -195.44393188 194.38744019 -196.85327148 195.1652832 C-198.14986694 195.87624146 -198.14986694 195.87624146 -199.47265625 196.6015625 C-200.22812744 197.01744629 -200.98359863 197.43333008 -201.76196289 197.86181641 C-207.34344718 200.70035461 -211.77461825 201.70177031 -218 201 C-221.80645831 199.59326541 -222.77850017 198.36916639 -224.875 194.875 C-228.28848965 185.71482574 -223.15133342 172.9240738 -221.03662109 163.81616211 C-220.59568178 161.89766932 -220.16532362 159.97671372 -219.74560547 158.0534668 C-219.13282958 155.24710653 -218.48800811 152.44980215 -217.8359375 149.65234375 C-217.65646576 148.80316879 -217.47699402 147.95399384 -217.29208374 147.0790863 C-215.71116935 140.55091563 -212.71456196 136.69337425 -208 132 C-207.50786011 131.48488358 -207.01572021 130.96976715 -206.50866699 130.43904114 C-205.1410336 129.01215392 -203.74437219 127.61327601 -202.34765625 126.21484375 C-201.59191566 125.45766808 -201.59191566 125.45766808 -200.82090759 124.68519592 C-199.76765476 123.63127038 -198.71316955 122.57857501 -197.6574707 121.52709961 C-196.06541034 119.94040054 -194.4787701 118.34842258 -192.89257812 116.75585938 C-187.96819727 111.82859545 -182.99882444 107.01227525 -177.70092773 102.48266602 C-175.16772547 100.27452229 -172.84796541 97.90454289 -170.5 95.5 C-155.01059252 79.84664078 -155.01059252 79.84664078 -144.1171875 78.9296875 C-141.0388506 79.03192009 -139.32138205 80.0303425 -137 82 C-134.530685 85.70397249 -134.64607407 88.71173467 -135 93 C-135.32963862 94.33425158 -135.66300828 95.6675866 -136 97 C-136.78640793 103.74248109 -135.66873613 109.25339563 -132 115 C-127.48460573 120.24700246 -121.8442836 123.32010055 -114.99609375 124.28125 C-108.36384811 124.5927449 -103.14307415 122.48366672 -97.75 118.75 C-92.03139777 113.03139777 -90.57963607 108.53935804 -89.98046875 100.6484375 C-90.0003386 97.95408632 -90.43019245 95.62698039 -91 93 C-91.44168127 88.70627882 -91.77330195 85.23728313 -89.4375 81.5 C-84.32829956 78.35587665 -79.64735739 79.02257276 -74 80 C-65.92905585 80.80454032 -59.65446711 79.86287981 -53 75 C-49.79089564 71.6473991 -47.47008725 68.41026174 -46 64 C-46.07842077 61.91359481 -46.16021364 59.82717649 -46.27001953 57.7421875 C-46.79295366 45.63930284 -46.79295366 45.63930284 -43.125 41.5 C-41.77587636 40.30350449 -40.39808357 39.1389023 -39 38 C-37.3439737 36.32250172 -35.69867424 34.63436695 -34.0625 32.9375 C-31.25894079 30.12457999 -28.38506108 27.45724932 -25.37109375 24.875 C-19.9889812 20.20164301 -15.0145834 15.12263927 -10 10.0625 C-9.02497614 9.0824469 -8.0497172 8.1026276 -7.07421875 7.12304688 C-4.71383382 4.75097687 -2.35583095 2.3765914 0 0 Z " fill="#46C078" transform="translate(271,90)"/>
<path d="M0 0 C4.30619632 2.23590963 7.26400997 4.40473228 9 9 C9.60874403 13.44647813 8.88826304 16.70627101 6.33984375 20.41796875 C1.25644893 26.220973 -4.5303855 31.35041958 -10.30078125 36.45703125 C-12.98738431 38.85754157 -12.98738431 38.85754157 -14.85546875 41.38671875 C-16.65455866 43.57905235 -18.30267322 45.18714473 -20.4453125 47.00390625 C-24.20673164 50.22038172 -27.70336371 53.63531374 -31.1796875 57.15234375 C-31.72296692 57.70121246 -32.26624634 58.25008118 -32.82598877 58.81558228 C-35.09052715 61.10753667 -37.35102007 63.40340377 -39.60742188 65.70336914 C-41.2730413 67.39900186 -42.94467587 69.08851301 -44.6171875 70.77734375 C-45.12861298 71.30222885 -45.64003845 71.82711395 -46.16696167 72.36790466 C-47.40717829 73.61695159 -48.69933895 74.81402517 -50 76 C-50.66 76 -51.32 76 -52 76 C-52 76.66 -52 77.32 -52 78 C-53.46875 79.4453125 -53.46875 79.4453125 -55.5 81.125 C-58.57587318 83.74579747 -61.55103612 86.42095222 -64.4375 89.25 C-65.09621094 89.89453125 -65.75492188 90.5390625 -66.43359375 91.203125 C-68.22069205 93.02037599 -68.22069205 93.02037599 -69 96 C-68.360625 96.86625 -67.72125 97.7325 -67.0625 98.625 C-64.43585141 102.92315224 -64.11805003 106.07871916 -65 111 C-67.07246162 114.99689026 -69.22389973 117.59146037 -73 120 C-78.12765627 121.16727135 -82.8935712 121.14894648 -88 120 C-94.84727139 119.35470741 -100.35703828 119.81664963 -106 124 C-110.09095202 128.51053684 -111.05167194 133.05772721 -111 139 C-110.67902115 140.66909001 -110.34503442 142.33571633 -110 144 C-109.52786503 149.31732336 -109.33935549 153.62977434 -111.6875 158.5 C-115.56239381 162.68907439 -118.23777313 164.17259515 -123.9375 164.4375 C-129.65649018 164.25878156 -132.74352202 162.17866839 -136.8125 158.25 C-139.70011832 152.77872317 -139.07059 147.89192952 -137.875 142.0625 C-136.80284558 136.28599456 -137.14794008 132.17399718 -140 127 C-143.00655783 123.28136268 -145.50940041 121.49467171 -150 120 C-153.68567687 119.6202636 -157.30488373 119.79045675 -161 120 C-161.75667969 120.02191406 -162.51335937 120.04382813 -163.29296875 120.06640625 C-171.43367161 121.00058527 -176.53997939 127.49015702 -182 133 C-183.86670964 134.86636662 -185.73389254 136.73225136 -187.6015625 138.59765625 C-190.65173179 141.6444266 -193.6981489 144.69452124 -196.72705078 147.76245117 C-204.71456294 155.83522462 -204.71456294 155.83522462 -208.8515625 159.34375 C-212.590226 162.53766959 -216.02839775 165.98416658 -219.4765625 169.484375 C-220.055271 170.07095886 -220.63397949 170.65754272 -221.23022461 171.26190186 C-223.64230531 173.71050664 -226.05142706 176.1618577 -228.45117188 178.62255859 C-230.22366128 180.43749998 -232.00557379 182.24274995 -233.7890625 184.046875 C-234.59085434 184.87659821 -234.59085434 184.87659821 -235.40884399 185.7230835 C-238.65658856 188.99264208 -241.63897336 191.28118554 -246 193 C-250.8301229 193 -253.66783501 192.60896787 -257.4375 189.5625 C-260.44989286 186.55010714 -261.21185204 185.00992325 -261.5 180.875 C-261.38384002 177.13935668 -260.87376051 175.30962226 -258.33203125 172.5703125 C-257.69668457 171.88340332 -257.06133789 171.19649414 -256.40673828 170.48876953 C-251.6559166 165.57602088 -246.87899784 160.69305338 -242.04614258 155.86083984 C-240.16914531 153.98162361 -238.30033111 152.09450377 -236.43164062 150.20703125 C-235.2400716 149.01253356 -234.04803171 147.81850536 -232.85546875 146.625 C-232.29715866 146.05950439 -231.73884857 145.49400879 -231.16362 144.91137695 C-227.22886447 141 -227.22886447 141 -225 141 C-225 140.34 -225 139.68 -225 139 C-223.671875 137.6953125 -223.671875 137.6953125 -221.75 136.125 C-217.44729475 132.47838101 -213.49799195 128.56346009 -209.56542969 124.52783203 C-206.86035346 121.77599008 -204.08580059 119.18091535 -201.15625 116.66796875 C-195.89620553 112.12168031 -191.13807058 107.09232483 -186.35546875 102.05273438 C-181.49341703 97.07068686 -176.58424702 92.35782782 -169.34765625 91.79296875 C-168.59355469 91.92316406 -167.83945313 92.05335938 -167.0625 92.1875 C-165.80179688 92.373125 -165.80179688 92.373125 -164.515625 92.5625 C-163.68546875 92.706875 -162.8553125 92.85125 -162 93 C-154.53688364 94.17068492 -149.4038629 94.16014376 -142.75 89.9375 C-139.15545546 86.61351257 -137.59569921 82.8237107 -137 78 C-137.31822394 74.89935648 -137.87960853 71.91451568 -138.4921875 68.859375 C-139.33087549 64.13691646 -139.4136188 60.259106 -136.765625 56.02734375 C-134.00575858 52.56328461 -131.47797342 49.83311133 -127 49 C-121.73391322 48.76108491 -118.08326713 49.50117026 -114 52.9375 C-111.41268368 55.37508737 -110.06191306 56.83639872 -109.8671875 60.49609375 C-109.86976563 61.46675781 -109.87234375 62.43742187 -109.875 63.4375 C-109.87242187 64.40558594 -109.86984375 65.37367187 -109.8671875 66.37109375 C-110 69 -110 69 -111 72 C-111.67276024 78.79229085 -110.62426144 83.30217706 -106.625 88.9375 C-105.0109324 90.21613801 -105.0109324 90.21613801 -102.76171875 89.91796875 C-98.98411091 88.66232824 -96.83086931 86.21675 -94.1875 83.375 C-93.12574219 82.2701672 -92.06194181 81.16729366 -90.99609375 80.06640625 C-90.22628174 79.26807373 -90.22628174 79.26807373 -89.44091797 78.45361328 C-87.63201194 76.62876975 -85.71915853 74.96191397 -83.75 73.3125 C-80.12970648 70.23824249 -77.11556961 66.78871303 -74.01171875 63.203125 C-71.50954086 60.46287581 -68.80415833 58.07672989 -65.95703125 55.703125 C-63.51994799 53.58223019 -61.27389042 51.2923264 -59 49 C-57.9631028 47.95581406 -57.9631028 47.95581406 -56.90525818 46.89053345 C-55.24624685 45.21970436 -53.58743769 43.54867451 -51.92878723 41.87748718 C-48.57985762 38.50542963 -45.22728865 35.13701194 -41.873456 31.76983166 C-39.32892709 29.21480589 -36.78632977 26.65791391 -34.24780273 24.09692383 C-31.78251363 21.60997145 -29.31242942 19.12787761 -26.83888817 16.64913368 C-25.44064909 15.24539507 -24.04748074 13.83661154 -22.65437317 12.42778015 C-21.80977036 11.58302628 -20.96516754 10.7382724 -20.0949707 9.86791992 C-18.9784185 8.74470589 -18.9784185 8.74470589 -17.83930969 7.59880066 C-16 6 -16 6 -14 6 C-14 5.34 -14 4.68 -14 4 C-9.13167558 0.8206861 -5.99268129 -0.87166273 0 0 Z M-130.5 100.5 C-132.61897146 104.0316191 -132.79841448 106.98323437 -132 111 C-130.60314994 113.6469872 -130.60314994 113.6469872 -128 115 C-124.39845988 115.45019252 -121.97895713 115.41219248 -118.625 114 C-116.1312494 110.9307685 -115.70375543 107.90435149 -116 104 C-117.23453709 100.85255481 -117.23453709 100.85255481 -120 99 C-124.0086292 98.07367055 -126.97164559 98.38298736 -130.5 100.5 Z " fill="#37A366" transform="translate(282,41)"/>
<path d="M0 0 C5.63732898 5.63732898 5.63732898 5.63732898 6.87890625 8.90625 C7.15855225 9.6386792 7.43819824 10.3711084 7.72631836 11.12573242 C8.0022583 11.90924072 8.27819824 12.69274902 8.5625 13.5 C8.85842041 14.33313721 9.15434082 15.16627441 9.45922852 16.0246582 C20.09899322 47.2627745 18.30400054 80.23367376 4.02978516 110.02490234 C-0.05505536 118.05400781 -5.06993095 125.2303692 -11 132 C-12.23363281 133.43279297 -12.23363281 133.43279297 -13.4921875 134.89453125 C-22.94774335 145.67229914 -33.54557479 154.83078602 -46 162 C-47.11761719 162.65742188 -48.23523438 163.31484375 -49.38671875 163.9921875 C-79.71444049 181.32348374 -116.49065562 184.14456523 -149.9375 175.25 C-150.81277344 174.98703125 -151.68804687 174.7240625 -152.58984375 174.453125 C-157.10737421 173.60379999 -160.61525158 175.12007252 -164.52734375 177.30078125 C-165.39174072 177.77789551 -166.2561377 178.25500977 -167.14672852 178.74658203 C-168.06768311 179.26333496 -168.9886377 179.78008789 -169.9375 180.3125 C-171.90359504 181.39983144 -173.86974247 182.48706814 -175.8359375 183.57421875 C-176.8475293 184.1367334 -177.85912109 184.69924805 -178.90136719 185.27880859 C-183.94454942 188.080135 -189.00246732 190.85426283 -194.0625 193.625 C-195.44393188 194.38744019 -195.44393188 194.38744019 -196.85327148 195.1652832 C-198.14986694 195.87624146 -198.14986694 195.87624146 -199.47265625 196.6015625 C-200.22812744 197.01744629 -200.98359863 197.43333008 -201.76196289 197.86181641 C-207.34344718 200.70035461 -211.77461825 201.70177031 -218 201 C-221.80645831 199.59326541 -222.77850017 198.36916639 -224.875 194.875 C-228.28848965 185.71482574 -223.15133342 172.9240738 -221.03662109 163.81616211 C-220.59568178 161.89766932 -220.16532362 159.97671372 -219.74560547 158.0534668 C-219.13282958 155.24710653 -218.48800811 152.44980215 -217.8359375 149.65234375 C-217.65646576 148.80316879 -217.47699402 147.95399384 -217.29208374 147.0790863 C-215.7118433 140.55369862 -212.71630383 136.68916694 -208 132 C-207.51535278 131.49464218 -207.03070557 130.98928436 -206.53137207 130.46861267 C-205.20824524 129.095567 -203.85621853 127.75056043 -202.50390625 126.40625 C-202.02549789 125.92925659 -201.54708954 125.45226318 -201.05418396 124.96081543 C-199.55933486 123.47146305 -198.06100941 121.98566851 -196.5625 120.5 C-195.5342702 119.47679861 -194.50627374 118.45336267 -193.47851562 117.4296875 C-190.98835662 114.95042001 -188.49507167 112.47432462 -186 110 C-185.01 110.33 -184.02 110.66 -183 111 C-185.64 113.64 -188.28 116.28 -191 119 C-189.59624169 122.54321888 -189.59624169 122.54321888 -188 126 C-187.34472432 134.50948274 -189.47995083 142.36706562 -191.5 150.5625 C-191.83817067 151.96657295 -192.17541785 153.37086866 -192.51171875 154.77539062 C-193.33051494 158.18622768 -194.16176663 161.59388074 -195 165 C-192.68604578 163.85703742 -190.37391046 162.71058872 -188.0625 161.5625 C-187.34827881 161.20994141 -186.63405762 160.85738281 -185.89819336 160.49414062 C-182.03405979 158.57196245 -178.22541635 156.59019731 -174.46875 154.46484375 C-173.73132568 154.05355225 -172.99390137 153.64226074 -172.23413086 153.21850586 C-170.82239982 152.42638111 -169.41891556 151.61931089 -168.02563477 150.79516602 C-161.79260478 147.3265953 -156.5163048 147.19917683 -149.62109375 148.76953125 C-148.04521484 149.28580078 -148.04521484 149.28580078 -146.4375 149.8125 C-129.77684779 154.84652502 -114.47045505 156.05444387 -97.1875 153.6875 C-96.32809814 153.57003418 -95.46869629 153.45256836 -94.58325195 153.33154297 C-77.90949422 150.82206631 -62.51309807 143.99466624 -49 134 C-48.15050781 133.38511719 -47.30101562 132.77023438 -46.42578125 132.13671875 C-28.35901107 118.43773916 -14.02753088 97.31396352 -10.31347656 74.71142578 C-8.43781221 58.48780561 -8.55302729 41.50292232 -14 26 C-14.99 23.03 -15.98 20.06 -17 17 C-11.39 11.39 -5.78 5.78 0 0 Z " fill="#27945B" transform="translate(271,90)"/>
<path d="M0 0 C1.98828125 2.44921875 1.98828125 2.44921875 1.80126953 4.38427734 C0.27239855 8.26751782 -2.91095287 10.86016449 -5.82421875 13.76171875 C-6.7687793 14.74881836 -6.7687793 14.74881836 -7.73242188 15.75585938 C-8.34666016 16.37267578 -8.96089844 16.98949219 -9.59375 17.625 C-10.43256714 18.4744519 -10.43256714 18.4744519 -11.28833008 19.34106445 C-13.01171875 20.44921875 -13.01171875 20.44921875 -15.05615234 20.22583008 C-17.88641895 19.10185029 -20.2743017 17.48567414 -22.82421875 15.82421875 C-48.64566592 -0.47785188 -78.91156114 -5.80154481 -108.80126953 0.91015625 C-126.0390264 5.11392996 -141.78530733 12.45113078 -155.01171875 24.44921875 C-155.90246094 25.24714844 -156.79320312 26.04507813 -157.7109375 26.8671875 C-169.2026052 37.71775798 -177.20700286 50.38886719 -182.01171875 65.44921875 C-182.22054687 66.09020508 -182.429375 66.73119141 -182.64453125 67.39160156 C-187.17408359 81.86180121 -187.42339101 97.42208888 -184.94921875 112.32421875 C-184.58677992 115.79255704 -184.70127613 116.9872157 -186.66796875 119.9140625 C-188.98958351 122.30325851 -191.41318533 124.36721338 -194.01171875 126.44921875 C-195.45012476 127.80242301 -196.88769941 129.15651183 -198.32421875 130.51171875 C-201.32563786 133.28661567 -201.63266982 133.44921875 -206.01171875 133.44921875 C-217.10005117 107.89539682 -215.5254183 76.68528823 -205.4987793 51.06201172 C-192.16877218 19.13380198 -165.95298987 -5.11145833 -134.48632812 -18.55322266 C-91.04789177 -36.0640209 -36.5564109 -30.9615257 0 0 Z " fill="#38A668" transform="translate(241.01171875,52.55078125)"/>
<path d="M0 0 C2.43682544 2.05074404 4.46496804 3.79321734 5.8984375 6.66015625 C5.99476647 8.47057418 6.02825283 10.28468378 6.0234375 12.09765625 C6.02601563 13.06574219 6.02859375 14.03382812 6.03125 15.03125 C5.8984375 17.66015625 5.8984375 17.66015625 4.8984375 20.66015625 C4.32396773 26.46009148 4.80126671 30.58079615 7.8984375 35.66015625 C8.2284375 36.32015625 8.5584375 36.98015625 8.8984375 37.66015625 C7.9084375 37.66015625 6.9184375 37.66015625 5.8984375 37.66015625 C3.54120261 35.12831137 2.8984375 34.18825532 2.8984375 30.66015625 C2.2384375 30.66015625 1.5784375 30.66015625 0.8984375 30.66015625 C0.69050206 24.81485988 0.88033341 20.20994251 2.8984375 14.66015625 C3.39822225 10.66187824 3.03294075 8.92916275 1.2109375 5.28515625 C-0.81963136 2.42319948 -0.81963136 2.42319948 -3.7265625 2.22265625 C-6.1080729 2.54767102 -6.1080729 2.54767102 -8.1015625 3.66015625 C-8.4315625 3.00015625 -8.7615625 2.34015625 -9.1015625 1.66015625 C-13.8533023 2.0921326 -16.02156304 2.9878492 -19.1015625 6.66015625 C-18.1115625 7.32015625 -17.1215625 7.98015625 -16.1015625 8.66015625 C-16.4315625 9.65015625 -16.7615625 10.64015625 -17.1015625 11.66015625 C-17.5965625 11.16515625 -17.5965625 11.16515625 -18.1015625 10.66015625 C-19.20513625 14.63302173 -18.91355192 16.07644384 -17.1015625 19.66015625 C-15.76380254 26.2717776 -17.76496727 30.93075217 -21.3828125 36.42578125 C-24.64964965 40.67266954 -28.27262169 43.33894865 -33.1015625 45.66015625 C-33.07835937 46.25441406 -33.05515625 46.84867188 -33.03125 47.4609375 C-32.88707523 54.08267855 -33.72409524 60.19097966 -35.1015625 66.66015625 C-35.69324219 66.70914063 -36.28492188 66.758125 -36.89453125 66.80859375 C-41.3268175 67.22796178 -45.02043361 67.78504297 -49.1015625 69.66015625 C-50.04402832 69.93230957 -50.98649414 70.20446289 -51.95751953 70.48486328 C-55.32093644 71.7421617 -57.11505984 73.08494909 -59.71875 75.52734375 C-60.57952148 76.33268555 -61.44029297 77.13802734 -62.32714844 77.96777344 C-67.35497521 82.84694219 -72.30515033 87.79888706 -77.2265625 92.78515625 C-88.66617068 104.37448819 -88.66617068 104.37448819 -92.9921875 108.04296875 C-96.7193355 111.22214813 -100.14281632 114.65741376 -103.578125 118.14453125 C-104.15688385 118.73116547 -104.7356427 119.31779968 -105.3319397 119.92221069 C-107.74396834 122.37076578 -110.15303979 124.82206545 -112.55273438 127.28271484 C-114.32522378 129.09765623 -116.10713629 130.9029062 -117.890625 132.70703125 C-118.69241684 133.53675446 -118.69241684 133.53675446 -119.51040649 134.38323975 C-122.75815106 137.65279833 -125.74053586 139.94134179 -130.1015625 141.66015625 C-134.9316854 141.66015625 -137.76939751 141.26912412 -141.5390625 138.22265625 C-144.55145536 135.21026339 -145.31341454 133.6700795 -145.6015625 129.53515625 C-145.48540252 125.79951293 -144.97532301 123.96977851 -142.43359375 121.23046875 C-141.79824707 120.54355957 -141.16290039 119.85665039 -140.50830078 119.14892578 C-135.7574791 114.23617713 -130.98056034 109.35320963 -126.14770508 104.52099609 C-124.27070781 102.64177986 -122.40189361 100.75466002 -120.53320312 98.8671875 C-119.3416341 97.67268981 -118.14959421 96.47866161 -116.95703125 95.28515625 C-116.39872116 94.71966064 -115.84041107 94.15416504 -115.2651825 93.5715332 C-111.33042697 89.66015625 -111.33042697 89.66015625 -109.1015625 89.66015625 C-109.1015625 89.00015625 -109.1015625 88.34015625 -109.1015625 87.66015625 C-107.7734375 86.35546875 -107.7734375 86.35546875 -105.8515625 84.78515625 C-101.54885725 81.13853726 -97.59955445 77.22361634 -93.66699219 73.18798828 C-90.96191596 70.43614633 -88.18736309 67.8410716 -85.2578125 65.328125 C-79.99776803 60.78183656 -75.23963308 55.75248108 -70.45703125 50.71289062 C-65.59497953 45.73084311 -60.68580952 41.01798407 -53.44921875 40.453125 C-52.31806641 40.64841797 -52.31806641 40.64841797 -51.1640625 40.84765625 C-49.90335938 41.03328125 -49.90335938 41.03328125 -48.6171875 41.22265625 C-47.78703125 41.36703125 -46.956875 41.51140625 -46.1015625 41.66015625 C-38.63844614 42.83084117 -33.5054254 42.82030001 -26.8515625 38.59765625 C-23.25701796 35.27366882 -21.69726171 31.48386695 -21.1015625 26.66015625 C-21.41978644 23.55951273 -21.98117103 20.57467193 -22.59375 17.51953125 C-23.43243799 12.79707271 -23.5151813 8.91926225 -20.8671875 4.6875 C-15.48635713 -2.0662742 -7.85750132 -5.00952221 0 0 Z " fill="#29945C" transform="translate(166.1015625,92.33984375)"/>
<path d="M0 0 C1.32 0 2.64 0 4 0 C7.21429995 0.20089375 8.01194484 1.01226768 10.3125 3.375 C12.65197409 8.40053693 12.06800994 12.64169372 11 18 C10.505 18.495 10.505 18.495 10 19 C9.76712992 20.68183948 9.58735834 22.3712416 9.4375 24.0625 C9.35371094 24.98160156 9.26992187 25.90070313 9.18359375 26.84765625 C9.09271484 27.91306641 9.09271484 27.91306641 9 29 C9.66 29 10.32 29 11 29 C14 33.38461538 14 33.38461538 14 36 C15.65 36.33 17.3 36.66 19 37 C19.495 39.475 19.495 39.475 20 42 C19.01 42 18.02 42 17 42 C16.34 40.68 15.68 39.36 15 38 C14.34 39.32 13.68 40.64 13 42 C12.01 41.34 11.02 40.68 10 40 C10.33 38.68 10.66 37.36 11 36 C9.35 35.01 7.7 34.02 6 33 C5.01 33.66 4.02 34.32 3 35 C2.01 35 1.02 35 0 35 C-3.8659328 36.3289144 -5.1337839 38.45418941 -7 42 C-6.01 41.505 -6.01 41.505 -5 41 C-3.00039988 40.960008 -0.99952758 40.95653201 1 41 C1 41.66 1 42.32 1 43 C1.66 43 2.32 43 3 43 C3 42.34 3 41.68 3 41 C5.92879371 41.62759865 8.36095629 42.58622659 11 44 C10.9175 44.928125 10.835 45.85625 10.75 46.8125 C10.64696955 50.09105222 10.64696955 50.09105222 13 51.875 C13.66 52.24625 14.32 52.6175 15 53 C16.32 51.68 17.64 50.36 19 49 C19 50.32 19 51.64 19 53 C19.33 53.99 19.66 54.98 20 56 C20.66 56 21.32 56 22 56 C25.08052541 60.10736722 25.08052541 60.10736722 24.81640625 63.03515625 C23.75618565 65.58678764 22.70131669 65.98488035 20.25 67.1875 C14.77544047 70.35232616 12.03418819 75.25508253 10.37109375 81.27734375 C10.24863281 81.84582031 10.12617188 82.41429687 10 83 C9.01 82.505 9.01 82.505 8 82 C8 81.01 8 80.02 8 79 C7.4225 79.309375 6.845 79.61875 6.25 79.9375 C4.12323402 80.94180616 2.29162831 81.51389702 0 82 C-1.299375 82.309375 -1.299375 82.309375 -2.625 82.625 C-5 83 -5 83 -7 82 C-10.27773504 82.75150023 -10.27773504 82.75150023 -12 86 C-12.18175781 85.33613281 -12.36351562 84.67226562 -12.55078125 83.98828125 C-14.92327367 74.89343827 -14.92327367 74.89343827 -21.5625 68.75 C-26.23107608 66.59393507 -30.91123507 66.20855594 -36 66 C-36 65.67 -36 65.34 -36 65 C-33.03 65 -30.06 65 -27 65 C-27.33 64.01 -27.66 63.02 -28 62 C-27.66015625 59.984375 -27.66015625 59.984375 -27.0625 57.75 C-26.08337475 53.74864146 -25.91572096 50.12967295 -26 46 C-25.67 45.34 -25.34 44.68 -25 44 C-25.66 43.67 -26.32 43.34 -27 43 C-25.948125 42.5875 -24.89625 42.175 -23.8125 41.75 C-17.56982111 39.01176258 -14.09814798 35.45354615 -10.9453125 29.4453125 C-9.46829184 25.62458963 -9.2697905 22.01999548 -10 18 C-10.66368216 16.66517858 -11.33005398 15.33168861 -12 14 C-11.68097423 10.65022937 -11.40820361 9.40820361 -9 7 C-9.66 6.67 -10.32 6.34 -11 6 C-11.33 6.66 -11.66 7.32 -12 8 C-11.875 5.75 -11.875 5.75 -11 3 C-7.07635563 -0.38860195 -4.97854744 -1.57217287 0 0 Z M-6.5 47.5 C-8.61897146 51.0316191 -8.79841448 53.98323437 -8 58 C-6.60314994 60.6469872 -6.60314994 60.6469872 -4 62 C-0.39845988 62.45019252 2.02104287 62.41219248 5.375 61 C7.8687506 57.9307685 8.29624457 54.90435149 8 51 C6.76546291 47.85255481 6.76546291 47.85255481 4 46 C-0.0086292 45.07367055 -2.97164559 45.38298736 -6.5 47.5 Z " fill="#36A466" transform="translate(158,94)"/>
<path d="M0 0 C2.625 0.9375 2.625 0.9375 5 2 C4.21625 2.763125 3.4325 3.52625 2.625 4.3125 C-0.07257717 6.90891805 -0.07257717 6.90891805 -2 10 C-1.34 9.67 -0.68 9.34 0 9 C1.99960012 8.960008 4.00047242 8.95653201 6 9 C6 9.66 6 10.32 6 11 C6.66 11 7.32 11 8 11 C8 10.34 8 9.68 8 9 C10.92879371 9.62759865 13.36095629 10.58622659 16 12 C15.9175 12.928125 15.835 13.85625 15.75 14.8125 C15.64696955 18.09105222 15.64696955 18.09105222 18 19.875 C18.66 20.24625 19.32 20.6175 20 21 C21.32 19.68 22.64 18.36 24 17 C24 18.32 24 19.64 24 21 C24.495 22.485 24.495 22.485 25 24 C25.66 24 26.32 24 27 24 C26.6875 25.9375 26.6875 25.9375 26 28 C25.01 28.33 24.02 28.66 23 29 C21.28432339 32.50294871 21.28432339 32.50294871 20 36 C18.68 36 17.36 36 16 36 C16 36.66 16 37.32 16 38 C13.40842155 39.11067648 11.10467617 39.98295969 8.3125 40.4375 C5.63612496 40.81199284 5.63612496 40.81199284 4 44 C0.62181711 44.71749017 -2.60572207 44.58613905 -6 44 C-9.125 41.625 -9.125 41.625 -11 39 C-11 38.34 -11 37.68 -11 37 C-11.66 37 -12.32 37 -13 37 C-13 36.34 -13 35.68 -13 35 C-13.66 35 -14.32 35 -15 35 C-15.33 30.38 -15.66 25.76 -16 21 C-16.33 21 -16.66 21 -17 21 C-17.4171331 17.45436862 -16.97671748 15.95676103 -15.25 12.75 C-13 10 -13 10 -10.75 9.125 C-10.1725 9.08375 -9.595 9.0425 -9 9 C-8.67 7.02 -8.34 5.04 -8 3 C-7.05125 2.690625 -6.1025 2.38125 -5.125 2.0625 C-2.13919592 1.12605258 -2.13919592 1.12605258 0 0 Z M-1.5 15.5 C-3.61897146 19.0316191 -3.79841448 21.98323437 -3 26 C-1.60314994 28.6469872 -1.60314994 28.6469872 1 30 C4.60154012 30.45019252 7.02104287 30.41219248 10.375 29 C12.8687506 25.9307685 13.29624457 22.90435149 13 19 C11.76546291 15.85255481 11.76546291 15.85255481 9 14 C4.9913708 13.07367055 2.02835441 13.38298736 -1.5 15.5 Z " fill="#6BBE8C" transform="translate(153,126)"/>
<path d="M0 0 C0.99 0.33 1.98 0.66 3 1 C3.6875 3.0625 3.6875 3.0625 4 5 C4.33 4.34 4.66 3.68 5 3 C5 5.31 5 7.62 5 10 C5.66 10 6.32 10 7 10 C8.94892318 15.84676955 8.99344445 21.93952262 6.3125 27.5 C2.43760619 31.68907439 -0.23777313 33.17259515 -5.9375 33.4375 C-11.65649018 33.25878156 -14.74352202 31.17866839 -18.8125 27.25 C-22.19221943 20.84632107 -20.85684344 14.62939146 -19 8 C-18.34 8 -17.68 8 -17 8 C-16.67 6.68 -16.34 5.36 -16 4 C-13.69403325 3.2587964 -12.36537641 2.89723788 -10 3.5625 C-7.36065478 4.13985677 -6.29606393 3.30110289 -4 2 C-3.34 2 -2.68 2 -2 2 C-1.34 1.34 -0.68 0.68 0 0 Z " fill="#2C9C5F" transform="translate(164,172)"/>
<path d="M0 0 C1.98 0 3.96 0 6 0 C5.75 2.875 5.75 2.875 5 6 C2.45285085 7.86790938 1.19131 8 -2 8 C-2.2475 8.969375 -2.495 9.93875 -2.75 10.9375 C-3.1625 11.948125 -3.575 12.95875 -4 14 C-5.32303717 14.3721042 -6.65737935 14.70630173 -8 15 C-9.68842953 18.19912963 -10.39159077 21.45094618 -11 25 C-10.67 25 -10.34 25 -10 25 C-10 29.95 -10 34.9 -10 40 C-9.34 40 -8.68 40 -8 40 C-8 40.66 -8 41.32 -8 42 C-7.34 42 -6.68 42 -6 42 C-4.5 43.375 -4.5 43.375 -3 45 C-0.10895426 47.89104574 2.10328166 47.92826253 6.125 48.25 C7.07375 48.1675 8.0225 48.085 9 48 C9.66 47.01 10.32 46.02 11 45 C12.66321482 44.64984951 14.33034549 44.31802943 16 44 C18.28700237 42.49711273 20.06423224 40.93576776 22 39 C22.99 39.66 23.98 40.32 25 41 C25.2784375 39.3603125 25.2784375 39.3603125 25.5625 37.6875 C27 34 27 34 28.69140625 32.8671875 C30.625 32.0625 30.625 32.0625 34 31 C35.04463863 34.13391589 35.2127397 35.03354356 34 38 C32.328125 39.16796875 32.328125 39.16796875 30.25 40.1875 C24.77544047 43.35232616 22.03418819 48.25508253 20.37109375 54.27734375 C20.18740234 55.13005859 20.18740234 55.13005859 20 56 C19.01 55.505 19.01 55.505 18 55 C18 54.01 18 53.02 18 52 C17.4225 52.309375 16.845 52.61875 16.25 52.9375 C14.12323402 53.94180616 12.29162831 54.51389702 10 55 C9.13375 55.20625 8.2675 55.4125 7.375 55.625 C5 56 5 56 3 55 C-0.27773504 55.75150023 -0.27773504 55.75150023 -2 59 C-2.18175781 58.33613281 -2.36351562 57.67226562 -2.55078125 56.98828125 C-4.92327367 47.89343827 -4.92327367 47.89343827 -11.5625 41.75 C-16.23107608 39.59393507 -20.91123507 39.20855594 -26 39 C-26 38.67 -26 38.34 -26 38 C-23.03 38 -20.06 38 -17 38 C-17.495 36.515 -17.495 36.515 -18 35 C-17.66015625 32.984375 -17.66015625 32.984375 -17.0625 30.75 C-16.08337475 26.74864146 -15.91572096 23.12967295 -16 19 C-15.67 18.34 -15.34 17.68 -15 17 C-15.66 16.67 -16.32 16.34 -17 16 C-15.948125 15.5875 -14.89625 15.175 -13.8125 14.75 C-6.47840155 11.53303126 -3.50495603 6.98008264 0 0 Z " fill="#4EB178" transform="translate(148,121)"/>
<path d="M0 0 C4.60706961 3.98278402 6.55491474 7.79963017 8.5625 13.5 C9.00638062 14.74970581 9.00638062 14.74970581 9.45922852 16.0246582 C20.09899322 47.2627745 18.30400054 80.23367376 4.02978516 110.02490234 C-0.3754603 118.68379129 -5.78190231 128.52126821 -14 134 C-14 130 -14 130 -11.625 127.4375 C-10.75875 126.633125 -9.8925 125.82875 -9 125 C-7.0549 122.08235 -6.54723683 120.37462715 -6 117 C-4.515 116.505 -4.515 116.505 -3 116 C-1.98812105 114.34051852 -0.9873454 112.67419438 0 111 C0.66 111 1.32 111 2 111 C2.03738281 110.31292969 2.07476562 109.62585938 2.11328125 108.91796875 C2.21189453 107.56638672 2.21189453 107.56638672 2.3125 106.1875 C2.37050781 105.29417969 2.42851562 104.40085937 2.48828125 103.48046875 C3 101 3 101 4.43383789 99.64428711 C6.38919694 97.59138871 6.83344574 95.93832839 7.5703125 93.2109375 C7.95509766 91.79748047 7.95509766 91.79748047 8.34765625 90.35546875 C8.60417969 89.37191406 8.86070312 88.38835937 9.125 87.375 C9.38925781 86.41464844 9.65351563 85.45429688 9.92578125 84.46484375 C14.4557606 67.51766212 14.29950116 49.76397767 10.65625 32.6640625 C10.00457559 29.02554705 9.88566284 25.68737355 10 22 C9.34 22 8.68 22 8 22 C7.75765625 21.25234375 7.5153125 20.5046875 7.265625 19.734375 C6.93046875 18.74953125 6.5953125 17.7646875 6.25 16.75 C5.92515625 15.77546875 5.6003125 14.8009375 5.265625 13.796875 C3.91942103 10.82193041 2.43095383 9.14495926 0 7 C0 7.66 0 8.32 0 9 C0.66 9.33 1.32 9.66 2 10 C0 11 -2 12 -4 13 C-4 12.34 -4 11.68 -4 11 C-6.73421955 12.47795651 -8.68994207 13.56075127 -10.5 16.125 C-12 18 -12 18 -14.6875 18.75 C-15.450625 18.8325 -16.21375 18.915 -17 19 C-15.60652624 15.84795019 -13.97514921 13.73828227 -11.5234375 11.328125 C-10.51796875 10.33232422 -10.51796875 10.33232422 -9.4921875 9.31640625 C-8.79351562 8.63449219 -8.09484375 7.95257813 -7.375 7.25 C-6.66859375 6.55261719 -5.9621875 5.85523437 -5.234375 5.13671875 C-3.49401297 3.41987512 -1.74915019 1.70788168 0 0 Z " fill="#367357" transform="translate(271,90)"/>
<path d="M0 0 C2.4921875 1.6875 2.4921875 1.6875 4.875 4 C5.72835937 4.82113281 6.58171875 5.64226562 7.4609375 6.48828125 C8.29882812 7.31714844 9.13671875 8.14601563 10 9 C11.16402344 10.07314453 11.16402344 10.07314453 12.3515625 11.16796875 C16.24402649 14.8268849 18.91400005 17.57000025 20 23 C17.8125 25.5625 17.8125 25.5625 15 28 C9.10435665 27.60444565 6.07424001 23.88457711 2 20 C1.10796875 19.19433594 0.2159375 18.38867188 -0.703125 17.55859375 C-1.60546875 16.71425781 -2.5078125 15.86992188 -3.4375 15 C-4.28183594 14.21625 -5.12617187 13.4325 -5.99609375 12.625 C-8.47536476 9.37729996 -8.81866259 7.04191547 -9 3 C-6.92129973 -0.79057107 -3.98137221 -0.39569466 0 0 Z " fill="#4FBD7B" transform="translate(113,96)"/>
<path d="M0 0 C1.485 0.495 1.485 0.495 3 1 C2.66226563 1.96679688 2.32453125 2.93359375 1.9765625 3.9296875 C1.52570876 5.24467757 1.07520705 6.55978838 0.625 7.875 C0.29242188 8.82246094 0.29242188 8.82246094 -0.046875 9.7890625 C-3.17501865 18.98948499 -4.30973901 27.67197513 -4.1875 37.375 C-4.18762085 38.8911792 -4.18762085 38.8911792 -4.18774414 40.43798828 C-4.16015265 45.70753922 -3.82297872 50.66945843 -2.9375 55.875 C-2.57506117 59.34333829 -2.68955738 60.53799695 -4.65625 63.46484375 C-6.97786476 65.85403976 -9.40146658 67.91799463 -12 70 C-13.43840601 71.35320426 -14.87598066 72.70729308 -16.3125 74.0625 C-19.31391911 76.83739692 -19.62095107 77 -24 77 C-32.30242345 57.8664962 -33.7836345 34.2450246 -29 14 C-28.67 14 -28.34 14 -28 14 C-28 27.53 -28 41.06 -28 55 C-27.34 55 -26.68 55 -26 55 C-23.88838269 68.6332574 -23.88838269 68.6332574 -23 75 C-18.98734038 72.82169906 -16.14361058 70.29695744 -13 67 C-12.45601562 66.56945312 -11.91203125 66.13890625 -11.3515625 65.6953125 C-8.7592848 63.54116624 -7.19066687 62.07025272 -6.5859375 58.67578125 C-6.5442633 54.14023965 -7.14523376 49.73770368 -7.76953125 45.25 C-8.78464189 35.33976733 -7.67824876 26.00486439 -5.37109375 16.375 C-4.79194397 13.85934876 -4.79194397 13.85934876 -6 11 C-4.71810412 8.96664791 -3.37843192 6.96918846 -2 5 C-1.28426473 3.35380887 -0.5974304 1.69271945 0 0 Z " fill="#39875C" transform="translate(59,109)"/>
<path d="M0 0 C0 0.66 0 1.32 0 2 C0.66 1.67 1.32 1.34 2 1 C3.99960012 0.960008 6.00047242 0.95653201 8 1 C8 1.66 8 2.32 8 3 C8.66 3 9.32 3 10 3 C10 2.34 10 1.68 10 1 C12.92879371 1.62759865 15.36095629 2.58622659 18 4 C17.9071875 5.3921875 17.9071875 5.3921875 17.8125 6.8125 C17.63729883 9.99182779 17.63729883 9.99182779 19.5625 11.5 C20.036875 11.995 20.51125 12.49 21 13 C20.82117504 17.20238659 19.9284446 19.95892291 17 23 C16.01 23.33 15.02 23.66 14 24 C13.34 24.99 12.68 25.98 12 27 C9.875 27.6875 9.875 27.6875 8 28 C8 27.34 8 26.68 8 26 C7.01 26.33 6.02 26.66 5 27 C1.73262854 26.15549222 -1.17408545 24.84227891 -4 23 C-5.5625 19.75 -5.5625 19.75 -6 17 C-6.33 17 -6.66 17 -7 17 C-7 15.35 -7 13.7 -7 12 C-6.34 12 -5.68 12 -5 12 C-5.33 11.34 -5.66 10.68 -6 10 C-6.4069579 6.25598728 -6.49904726 4.63212653 -4.125 1.625 C-2 0 -2 0 0 0 Z M0.5 7.5 C-1.61897146 11.0316191 -1.79841448 13.98323437 -1 18 C0.39685006 20.6469872 0.39685006 20.6469872 3 22 C6.60154012 22.45019252 9.02104287 22.41219248 12.375 21 C14.8687506 17.9307685 15.29624457 14.90435149 15 11 C13.76546291 7.85255481 13.76546291 7.85255481 11 6 C6.9913708 5.07367055 4.02835441 5.38298736 0.5 7.5 Z M-6 23 C-4 24 -4 24 -4 24 Z " fill="#8CCAA3" transform="translate(151,134)"/>
<path d="M0 0 C0 0.66 0 1.32 0 2 C-1.50626953 1.60167969 -1.50626953 1.60167969 -3.04296875 1.1953125 C-34.88213823 -7.09862848 -67.48683893 -6.3381741 -96.51293945 10.54589844 C-102.07483072 13.91487153 -107.1780189 17.62583141 -112 22 C-112.89074219 22.79792969 -113.78148438 23.59585938 -114.69921875 24.41796875 C-123.00302409 32.25852135 -130.1711233 41.58528755 -135 52 C-135.66 52 -136.32 52 -137 52 C-137 50.02 -137 48.04 -137 46 C-136.34 46 -135.68 46 -135 46 C-134.60167969 45.16855469 -134.60167969 45.16855469 -134.1953125 44.3203125 C-133.84210938 43.59585938 -133.48890625 42.87140625 -133.125 42.125 C-132.77695313 41.40570313 -132.42890625 40.68640625 -132.0703125 39.9453125 C-131 38 -131 38 -129 36 C-128.21625 35.05125 -127.4325 34.1025 -126.625 33.125 C-118.99555717 24.23018617 -110.94806219 16.25399349 -101 10 C-100.27039063 9.50242187 -99.54078125 9.00484375 -98.7890625 8.4921875 C-70.80468968 -9.75018523 -30.64074618 -13.03720734 0 0 Z " fill="#42805D" transform="translate(198,55)"/>
<path d="M0 0 C3.73701411 1.30360957 5.82071994 3.20405855 8.6875 5.9375 C8.6875 6.5975 8.6875 7.2575 8.6875 7.9375 C9.28046875 8.19917969 9.8734375 8.46085938 10.484375 8.73046875 C14.05997746 10.68944244 16.44792615 13.56359653 18.6875 16.9375 C19.1875 19.75 19.1875 19.75 18.6875 21.9375 C16.6875 23.9375 16.6875 23.9375 14.0625 24.5 C8.89788893 23.63923149 6.33563446 20.52002053 2.6875 16.9375 C1.84703125 16.19242188 1.0065625 15.44734375 0.140625 14.6796875 C-0.68953125 13.91914063 -1.5196875 13.15859375 -2.375 12.375 C-3.14972656 11.67246094 -3.92445313 10.96992188 -4.72265625 10.24609375 C-6.3125 7.9375 -6.3125 7.9375 -6.24609375 4.78515625 C-5.08975701 1.2580873 -3.83993438 -0.10378201 0 0 Z " fill="#25995A" transform="translate(192.3125,177.0625)"/>
<path d="M0 0 C2.43682544 2.05074404 4.46496804 3.79321734 5.8984375 6.66015625 C5.99476647 8.47057418 6.02825283 10.28468378 6.0234375 12.09765625 C6.02730469 13.54978516 6.02730469 13.54978516 6.03125 15.03125 C5.8984375 17.66015625 5.8984375 17.66015625 4.8984375 20.66015625 C4.32396773 26.46009148 4.80126671 30.58079615 7.8984375 35.66015625 C8.2284375 36.32015625 8.5584375 36.98015625 8.8984375 37.66015625 C7.9084375 37.66015625 6.9184375 37.66015625 5.8984375 37.66015625 C3.54120261 35.12831137 2.8984375 34.18825532 2.8984375 30.66015625 C2.2384375 30.66015625 1.5784375 30.66015625 0.8984375 30.66015625 C0.69050206 24.81485988 0.88033341 20.20994251 2.8984375 14.66015625 C3.39822225 10.66187824 3.03294075 8.92916275 1.2109375 5.28515625 C-0.81963136 2.42319948 -0.81963136 2.42319948 -3.7265625 2.22265625 C-6.1080729 2.54767102 -6.1080729 2.54767102 -8.1015625 3.66015625 C-8.5965625 2.67015625 -8.5965625 2.67015625 -9.1015625 1.66015625 C-13.8533023 2.0921326 -16.02156304 2.9878492 -19.1015625 6.66015625 C-18.1115625 7.32015625 -17.1215625 7.98015625 -16.1015625 8.66015625 C-16.4315625 9.65015625 -16.7615625 10.64015625 -17.1015625 11.66015625 C-17.4315625 11.33015625 -17.7615625 11.00015625 -18.1015625 10.66015625 C-19.20513625 14.63302173 -18.91355192 16.07644384 -17.1015625 19.66015625 C-15.76419264 26.26984961 -17.76419407 30.92717068 -21.37890625 36.421875 C-24.38909801 40.33307654 -27.33429729 43.07106785 -32.1015625 44.66015625 C-33.82951602 44.72818592 -35.55991615 44.7451127 -37.2890625 44.72265625 C-38.19011719 44.71363281 -39.09117188 44.70460937 -40.01953125 44.6953125 C-40.70660156 44.68371094 -41.39367187 44.67210937 -42.1015625 44.66015625 C-42.1015625 44.33015625 -42.1015625 44.00015625 -42.1015625 43.66015625 C-41.30492188 43.50160156 -40.50828125 43.34304687 -39.6875 43.1796875 C-30.83856403 41.2745713 -30.83856403 41.2745713 -24.1015625 35.66015625 C-20.52408514 29.415599 -21.22127469 24.36453469 -22.59375 17.51953125 C-23.43243799 12.79707271 -23.5151813 8.91926225 -20.8671875 4.6875 C-15.48635713 -2.0662742 -7.85750132 -5.00952221 0 0 Z " fill="#458C62" transform="translate(166.1015625,92.33984375)"/>
<path d="M0 0 C0.66 0.33 1.32 0.66 2 1 C1.21753906 1.75925781 0.43507812 2.51851562 -0.37109375 3.30078125 C-1.39349196 4.30441986 -2.41561299 5.30834089 -3.4375 6.3125 C-3.95376953 6.81201172 -4.47003906 7.31152344 -5.00195312 7.82617188 C-7.40590176 10.19869635 -8.91656793 11.74970379 -10 15 C-10.66 15 -11.32 15 -12 15 C-12.0928125 15.86625 -12.0928125 15.86625 -12.1875 16.75 C-13.34200848 19.94710041 -15.21547979 21.1436532 -18 23 C-18.99 23 -19.98 23 -21 23 C-21.226875 23.556875 -21.45375 24.11375 -21.6875 24.6875 C-23.37550036 27.66159588 -25.46676517 29.72008865 -28 32 C-28.66 32 -29.32 32 -30 32 C-31.17571451 35.67410785 -31.07366746 39.16929183 -31 43 C-30.34 43.33 -29.68 43.66 -29 44 C-28.67 44.99 -28.34 45.98 -28 47 C-25.70370006 48.14814997 -23.92301914 48.30769809 -21.375 48.5625 C-20.55773438 48.64628906 -19.74046875 48.73007813 -18.8984375 48.81640625 C-17.95871094 48.90728516 -17.95871094 48.90728516 -17 49 C-16.34 47.35 -15.68 45.7 -15 44 C-14.34 44 -13.68 44 -13 44 C-13 43.34 -13 42.68 -13 42 C-11.906875 41.360625 -10.81375 40.72125 -9.6875 40.0625 C-5.6314353 37.64921419 -2.36779388 34.64921612 0.9375 31.3125 C1.4219458 30.82467041 1.9063916 30.33684082 2.40551758 29.83422852 C5.02512224 27.15629755 5.02512224 27.15629755 7 24 C7.66 24 8.32 24 9 24 C9 23.34 9 22.68 9 22 C10.609375 20.6328125 10.609375 20.6328125 12.75 19.125 C15.76672537 16.94268803 18.46483146 14.74643258 21 12 C21.66 12.66 22.32 13.32 23 14 C22.14776855 14.7417749 22.14776855 14.7417749 21.27832031 15.49853516 C16.19049382 19.99524908 11.30891096 24.62328304 6.546875 29.4609375 C5.99277954 30.02290833 5.43868408 30.58487915 4.86779785 31.16387939 C2.57724973 33.4907815 0.2899205 35.82067151 -1.98828125 38.15966797 C-3.67809688 39.89191971 -5.37732186 41.61448179 -7.078125 43.3359375 C-7.584505 43.86093842 -8.09088501 44.38593933 -8.61260986 44.92684937 C-11.80096239 48.13777931 -14.78917514 50.32438014 -19 52 C-23.8301229 52 -26.66783501 51.60896787 -30.4375 48.5625 C-33.44989286 45.55010714 -34.21185204 44.00992325 -34.5 39.875 C-34.38321041 36.14390017 -33.87579874 34.30934895 -31.33984375 31.5703125 C-30.70481934 30.88340332 -30.06979492 30.19649414 -29.41552734 29.48876953 C-24.02324166 23.93298216 -18.55598389 18.45554844 -13.0625 13 C-11.79338627 11.7359115 -10.52450411 10.47159044 -9.25585938 9.20703125 C-6.1732368 6.13533276 -3.08749572 3.06679992 0 0 Z " fill="#356E51" transform="translate(55,182)"/>
<path d="M0 0 C7.22925375 0.81501104 14.36784128 1.17587881 21.5 -0.4375 C21.5 0.2225 21.5 0.8825 21.5 1.5625 C16.29033572 4.14133581 11.15788108 3.96747664 5.47460938 4.12890625 C1.01776918 4.12534024 1.01776918 4.12534024 -2.5 6.5625 C-2.5 7.5525 -2.5 8.5425 -2.5 9.5625 C-4.48 8.9025 -6.46 8.2425 -8.5 7.5625 C-8.5 6.5625 -8.5 5.5625 -8.5 4.5625 C-8.47096108 8.64581839 -8.45318811 12.7291102 -8.4375 16.8125 C-8.42912109 17.97136719 -8.42074219 19.13023437 -8.41210938 20.32421875 C-8.40888672 21.43925781 -8.40566406 22.55429688 -8.40234375 23.703125 C-8.39710693 24.72954102 -8.39187012 25.75595703 -8.38647461 26.81347656 C-8.48663049 29.23875656 -8.80076922 31.24947361 -9.5 33.5625 C-10.16 33.5625 -10.82 33.5625 -11.5 33.5625 C-11.665 34.26375 -11.83 34.965 -12 35.6875 C-14.69179646 40.84677655 -20.18350494 44.32659086 -25.5 46.5625 C-33.88842267 48.33241979 -40.90435197 47.58149513 -48.5 43.5625 C-51.5 41.0625 -51.5 41.0625 -53.5 38.5625 C-54.11875 37.881875 -54.7375 37.20125 -55.375 36.5 C-56.5 34.5625 -56.5 34.5625 -56.0703125 32.44140625 C-55.88210937 31.82136719 -55.69390625 31.20132813 -55.5 30.5625 C-55.1596875 31.08199219 -54.819375 31.60148437 -54.46875 32.13671875 C-50.13123685 38.37766188 -45.16695815 43.07420812 -37.5 44.5625 C-29.87257276 45.07099515 -24.55699446 43.67888078 -18.25 39.3125 C-12.53139777 33.59389777 -11.07963607 29.10185804 -10.48046875 21.2109375 C-10.5003386 18.51658632 -10.93019245 16.18948039 -11.5 13.5625 C-12.31076539 5.68079709 -12.31076539 5.68079709 -9.6875 2.0625 C-6.25314531 -0.29248607 -3.9990319 -0.52584673 0 0 Z " fill="#539A72" transform="translate(191.5,169.4375)"/>
<path d="M0 0 C4.30619632 2.23590963 7.26400997 4.40473228 9 9 C9.60874403 13.44647813 8.88826304 16.70627101 6.33984375 20.41796875 C1.25644893 26.220973 -4.5303855 31.35041958 -10.30078125 36.45703125 C-12.98738431 38.85754157 -12.98738431 38.85754157 -14.85546875 41.38671875 C-16.65218777 43.57616324 -18.29918586 45.18749786 -20.4375 47.00390625 C-26.62628001 52.29852811 -32.26668768 58.16093896 -38 63.9375 C-39.16773374 65.11026009 -40.33570074 66.28278798 -41.50390625 67.45507812 C-44.33863234 70.30071689 -47.17018824 73.14947453 -50 76 C-50.99 75.67 -51.98 75.34 -53 75 C-53 74.01 -53 73.02 -53 72 C-52.360625 71.896875 -51.72125 71.79375 -51.0625 71.6875 C-50.381875 71.460625 -49.70125 71.23375 -49 71 C-48.67 70.01 -48.34 69.02 -48 68 C-46.01399663 66.6459068 -44.01182457 65.31542376 -42 64 C-40.3046042 62.36256645 -38.64286074 60.69013731 -37 59 C-34.77569878 56.72435295 -32.54485205 54.45524608 -30.3125 52.1875 C-29.44141602 51.2912793 -29.44141602 51.2912793 -28.55273438 50.37695312 C-27.07274424 48.87985327 -25.54017218 47.43511269 -24 46 C-23.34 46 -22.68 46 -22 46 C-21.7421875 45.40316406 -21.484375 44.80632812 -21.21875 44.19140625 C-19.89941578 41.81914183 -18.6125068 40.61586875 -16.5 38.9375 C-14.06335088 36.99127814 -12.77737879 35.66606818 -11 33 C-10.34 33 -9.68 33 -9 33 C-9 32.34 -9 31.68 -9 31 C-7.56795193 29.76777259 -6.13012419 28.54125525 -4.65625 27.359375 C0.12050807 23.43882828 4.33111856 19.6277485 5.875 13.5625 C6.01522465 9.56609746 5.51605169 8.05520562 3 5 C2.01 4.67 1.02 4.34 0 4 C0 3.34 0 2.68 0 2 C-3.3 2.66 -6.6 3.32 -10 4 C-10.33 4.99 -10.66 5.98 -11 7 C-11.66 6.67 -12.32 6.34 -13 6 C-12.06896676 3.67241689 -11.34617872 2.25642868 -9.3125 0.75 C-6.00205754 -0.32365701 -3.46551259 -0.3585013 0 0 Z " fill="#3D7659" transform="translate(282,41)"/>
<path d="M0 0 C0.66 0.33 1.32 0.66 2 1 C1.67 2.98 1.34 4.96 1 7 C1.99 7 2.98 7 4 7 C3.6875 8.9375 3.6875 8.9375 3 11 C2.01 11.33 1.02 11.66 0 12 C-1.71567661 15.50294871 -1.71567661 15.50294871 -3 19 C-4.32 19 -5.64 19 -7 19 C-7 19.66 -7 20.32 -7 21 C-9.59157845 22.11067648 -11.89532383 22.98295969 -14.6875 23.4375 C-17.36387504 23.81199284 -17.36387504 23.81199284 -19 27 C-19.99 27 -20.98 27 -22 27 C-22 26.01 -22 25.02 -22 24 C-22.99 24 -23.98 24 -25 24 C-25.433125 22.865625 -25.86625 21.73125 -26.3125 20.5625 C-27.1478125 18.7990625 -27.1478125 18.7990625 -28 17 C-28.99 16.67 -29.98 16.34 -31 16 C-30.34 15.34 -29.68 14.68 -29 14 C-25.40597234 14.38854353 -22.31346137 15.60485837 -19 17 C-16 18.33333333 -16 18.33333333 -13 17 C-12.34 16.01 -11.68 15.02 -11 14 C-10.01 14 -9.02 14 -8 14 C-7.73445313 13.44828125 -7.46890625 12.8965625 -7.1953125 12.328125 C-5.86117291 9.72960475 -4.38741369 7.24877045 -2.875 4.75 C-2.33617187 3.85796875 -1.79734375 2.9659375 -1.2421875 2.046875 C-0.83226562 1.37140625 -0.42234375 0.6959375 0 0 Z " fill="#72C291" transform="translate(176,143)"/>
<path d="M0 0 C8.9270772 5.08712419 21.47494986 3.81305172 31.50341797 3.73242188 C33.90122829 3.71384188 36.29865746 3.71191508 38.6965332 3.7121582 C40.22583344 3.70725292 41.75513106 3.70142897 43.28442383 3.69458008 C43.99890182 3.69346725 44.71337982 3.69235443 45.44950867 3.69120789 C49.18930707 3.70836391 49.18930707 3.70836391 52.67895508 2.52661133 C54.11182043 2.32392704 55.55069266 2.1622125 56.99145508 2.02661133 C59.60730444 1.77048483 61.99077382 1.45204598 64.55395508 0.83911133 C66.67895508 0.52661133 66.67895508 0.52661133 69.67895508 2.52661133 C44.56908929 9.66009593 18.11538199 9.49867479 -6.91088867 1.97973633 C-11.65486804 1.08783745 -14.9821823 2.68969998 -19.00854492 5.08911133 C-23.11707892 7.52661133 -23.11707892 7.52661133 -25.32104492 7.52661133 C-25.32104492 6.86661133 -25.32104492 6.20661133 -25.32104492 5.52661133 C-21.95420578 3.09500528 -20.58754128 2.52661133 -16.32104492 2.52661133 C-16.32104492 1.20661133 -16.32104492 -0.11338867 -16.32104492 -1.47338867 C-5.07104779 -3.21907788 -5.07104779 -3.21907788 0 0 Z " fill="#347555" transform="translate(125.321044921875,262.473388671875)"/>
<path d="M0 0 C0.99 0.33 1.98 0.66 3 1 C2.67 1.66 2.34 2.32 2 3 C1.34 3 0.68 3 0 3 C0 3.66 0 4.32 0 5 C-0.61875 5.4125 -1.2375 5.825 -1.875 6.25 C-4.26752162 7.89509067 -4.26752162 7.89509067 -4.9375 11 C-6.25206425 14.71171081 -7.60400174 15.21710091 -11 17 C-11.66 17.99 -12.32 18.98 -13 20 C-13.99 20.33 -14.98 20.66 -16 21 C-16.12375 22.299375 -16.2475 23.59875 -16.375 24.9375 C-17.13548352 31.66566666 -18.33359776 37.73090387 -21.203125 43.89453125 C-23.03925457 48.74587359 -23.92620685 53.93565644 -25 59 C-25.66 59 -26.32 59 -27 59 C-27.33 63.95 -27.66 68.9 -28 74 C-31.12885937 69.30671094 -29.55096602 64.98363669 -28.56268311 59.63180542 C-27.48910092 54.33815681 -26.25817951 49.0773251 -25.03662109 43.81616211 C-24.59568178 41.89766932 -24.16532362 39.97671372 -23.74560547 38.0534668 C-23.13282958 35.24710653 -22.48800811 32.44980215 -21.8359375 29.65234375 C-21.65646576 28.80316879 -21.47699402 27.95399384 -21.29208374 27.0790863 C-19.71712338 20.57550198 -16.70305883 16.67263023 -12 12 C-11.41371323 11.39574692 -10.82742645 10.79149384 -10.22337341 10.16893005 C-8.68934659 8.59163225 -7.13102454 7.04294007 -5.5625 5.5 C-5.02173828 4.96375 -4.48097656 4.4275 -3.92382812 3.875 C-2.61823383 2.58095964 -1.30947004 1.29011826 0 0 Z " fill="#3C8260" transform="translate(75,210)"/>
<path d="M0 0 C13.31023215 3.00654656 25.49164486 10.47613639 36 19 C36.61359375 19.48855469 37.2271875 19.97710937 37.859375 20.48046875 C39 22 39 22 38.76000977 23.87695312 C37.34711988 27.82378591 34.10793722 30.40380323 31.1875 33.3125 C30.55779297 33.97056641 29.92808594 34.62863281 29.27929688 35.30664062 C28.35793945 36.23186523 28.35793945 36.23186523 27.41796875 37.17578125 C26.85875732 37.74208252 26.2995459 38.30838379 25.72338867 38.8918457 C24 40 24 40 21.9621582 39.77880859 C19.07365802 38.63232165 16.61143869 36.99265357 14 35.3125 C7.87209177 31.43058309 1.55361491 28.1173952 -5 25 C-5 24.34 -5 23.68 -5 23 C-0.37559398 23.60241304 3.33983325 25.54121351 7.375 27.75 C8.03894775 28.10835937 8.70289551 28.46671875 9.38696289 28.8359375 C13.83707572 31.27153512 17.994822 33.87400742 22 37 C24.36068151 35.03043732 26.68798928 33.02646358 29 31 C29.60585937 30.4740625 30.21171875 29.948125 30.8359375 29.40625 C32.71995347 27.72943667 32.71995347 27.72943667 35 25 C35.1528163 22.98942723 35.1528163 22.98942723 34 21 C24.04996989 12.41472681 11.35976437 6.20231988 -1 2 C-0.67 1.34 -0.34 0.68 0 0 Z " fill="#427F5F" transform="translate(204,33)"/>
<path d="M0 0 C0 3.97131853 -1.16330468 4.59618872 -3.9375 7.375 C-17.38720619 20.33356524 -40.22347974 40 -60 40 C-60 39.01 -60 38.02 -60 37 C-59.17757812 36.78085937 -58.35515625 36.56171875 -57.5078125 36.3359375 C-50.80175365 34.43098314 -45.18006702 32.2220628 -39.33203125 28.43359375 C-37.07780014 27.04782688 -34.88790607 26.04858742 -32.4375 25.0625 C-27.27626749 22.86218509 -23.29669941 19.55290103 -19 16 C-17.74123047 15.01773438 -17.74123047 15.01773438 -16.45703125 14.015625 C-11.79232611 10.37419103 -7.44741135 6.64522495 -3.375 2.34765625 C-2 1 -2 1 0 0 Z " fill="#377658" transform="translate(256,224)"/>
<path d="M0 0 C0.99 0.33 1.98 0.66 3 1 C-1.12433162 5.97034836 -5.48022133 10.51538794 -10.14453125 14.984375 C-12.21256351 16.95459315 -12.21256351 16.95459315 -13 20 C-12.360625 20.86625 -11.72125 21.7325 -11.0625 22.625 C-8.43585141 26.92315224 -8.11805003 30.07871916 -9 35 C-11.07246162 38.99689026 -13.22389973 41.59146037 -17 44 C-21.93765434 45.12401887 -27.1081736 45.46754792 -32 44 C-32 43.34 -32 42.68 -32 42 C-35.3 42 -38.6 42 -42 42 C-42 41.67 -42 41.34 -42 41 C-41.26885986 41.0314209 -40.53771973 41.0628418 -39.78442383 41.09521484 C-36.46076598 41.22019809 -33.13760238 41.29805548 -29.8125 41.375 C-28.66201172 41.42527344 -27.51152344 41.47554687 -26.32617188 41.52734375 C-20.44268128 41.80225506 -20.44268128 41.80225506 -15.10107422 39.78051758 C-12.7650042 37.13860298 -11.32548258 34.47874936 -11.5 30.9375 C-12.00310458 26.97555146 -12.81334053 25.23625601 -15 22 C-16.25373134 17.50746269 -16.25373134 17.50746269 -15 15 C-13.7934375 14.38125 -13.7934375 14.38125 -12.5625 13.75 C-9.33166369 11.5435752 -8.9099894 9.72268389 -8 6 C-7.505 6.99 -7.505 6.99 -7 8 C-6.34 8 -5.68 8 -5 8 C-5 7.34 -5 6.68 -5 6 C-4.360625 5.525625 -3.72125 5.05125 -3.0625 4.5625 C-0.71627037 3.0908635 -0.71627037 3.0908635 0 0 Z " fill="#3B7F5D" transform="translate(226,117)"/>
<path d="M0 0 C2.4921875 1.6875 2.4921875 1.6875 4.875 4 C5.72707031 4.81855469 6.57914063 5.63710937 7.45703125 6.48046875 C8.29621094 7.31191406 9.13539062 8.14335938 10 9 C11.18142578 10.10794922 11.18142578 10.10794922 12.38671875 11.23828125 C18.3417684 16.9153573 18.3417684 16.9153573 19 21 C18.34 21 17.68 21 17 21 C15.76472881 19.56441456 14.53550725 18.12273127 13.3515625 16.64453125 C11.39384096 14.26244811 9.20576979 12.15197052 7 10 C6.525625 9.46890625 6.05125 8.9378125 5.5625 8.390625 C2.24727869 4.7646017 0.13588589 3.24456599 -5 3 C-5.95020416 5.239835 -5.95020416 5.239835 -6 8 C-3.62494782 10.70848923 -3.62494782 10.70848923 -1 13 C-1 13.66 -1 14.32 -1 15 C-0.40960938 15.25652344 0.18078125 15.51304688 0.7890625 15.77734375 C3.18874447 17.10437636 4.56047575 18.52222508 6.375 20.5625 C9.41246467 23.72461225 11.47886954 24.88972853 16 25 C16.33 24.01 16.66 23.02 17 22 C17.66 22.33 18.32 22.66 19 23 C18.3125 24.9375 18.3125 24.9375 17 27 C14.75 28 14.75 28 12 28 C6.92535129 25.05743391 2.85576986 21.28564124 -1.3125 17.1875 C-1.94478516 16.59646484 -2.57707031 16.00542969 -3.22851562 15.39648438 C-6.3863833 12.29277092 -7.8557176 10.56109823 -8.984375 6.171875 C-9 3 -9 3 -7.9375 1.0625 C-5.12652214 -0.47900399 -3.17273616 -0.31532715 0 0 Z " fill="#55976F" transform="translate(113,96)"/>
<path d="M0 0 C0.495 0.99 0.495 0.99 1 2 C0.60167969 2.42410156 0.20335937 2.84820312 -0.20703125 3.28515625 C-3.85862461 7.32767445 -6.12157254 10.88650302 -8 16 C-8.99 15.67 -9.98 15.34 -11 15 C-11 15.66 -11 16.32 -11 17 C-12.57421875 18.078125 -12.57421875 18.078125 -14.6875 19.25 C-18.67484253 21.63259483 -21.10511994 24.3433094 -24 28 C-25.0612312 28.94216624 -26.14492931 29.85965869 -27.25 30.75 C-30.02359938 32.70631884 -30.02359938 32.70631884 -31 35 C-31.66 35 -32.32 35 -33 35 C-33.33 35.99 -33.66 36.98 -34 38 C-36.3125 39.8125 -36.3125 39.8125 -39 41 C-41.3125 40.1875 -41.3125 40.1875 -43 39 C-42.13117188 38.62359375 -41.26234375 38.2471875 -40.3671875 37.859375 C-36.65200384 35.80783507 -34.00381465 33.29940758 -31.125 30.25 C-30.07235462 29.16338258 -29.01766877 28.07873808 -27.9609375 26.99609375 C-27.45401367 26.47644043 -26.94708984 25.95678711 -26.42480469 25.42138672 C-24.61510607 23.61602939 -22.70686217 21.95610953 -20.75 20.3125 C-17.13527398 17.24297026 -14.12458105 13.80050561 -11.02734375 10.21875 C-7.94105635 6.84107901 -4.50153295 3.9339528 -1 1 C-0.67 0.67 -0.34 0.34 0 0 Z " fill="#40835E" transform="translate(219,94)"/>
<path d="M0 0 C0.66 0.66 1.32 1.32 2 2 C1.48050781 2.44730469 0.96101563 2.89460938 0.42578125 3.35546875 C-3.52711587 6.78228714 -7.34353056 10.25434838 -11 14 C-12.49862449 15.50137425 -13.99876391 17.00123711 -15.5 18.5 C-16.2321875 19.2321875 -16.964375 19.964375 -17.71875 20.71875 C-20 23 -20 23 -22.77734375 25.23046875 C-25.903637 29.125973 -25.43238492 31.99604147 -25.0625 36.8125 C-24.45474627 45.14641039 -26.25215057 50.04996645 -31 56.875 C-32.92930691 58.92488859 -34.40104121 59.97898047 -37 61 C-35.24585235 57.21205797 -32.90609326 54.17133151 -30.33984375 50.90234375 C-27.72304257 47.18694383 -28.03874468 44.13362331 -28.27001953 39.7421875 C-28.79295366 27.63930284 -28.79295366 27.63930284 -25.125 23.5 C-23.77587636 22.30350449 -22.39808357 21.1389023 -21 20 C-19.3439737 18.32250172 -17.69867424 16.63436695 -16.0625 14.9375 C-12.39083571 11.29941801 -8.62999245 7.81922115 -4.69140625 4.47265625 C-3.05216211 3.04541597 -1.51774524 1.55487662 0 0 Z " fill="#51966F" transform="translate(253,108)"/>
<path d="M0 0 C0.33 0 0.66 0 1 0 C0.85616078 1.52102323 0.70980986 3.04180897 0.5625 4.5625 C0.47613281 5.47644531 0.38976562 6.39039063 0.30078125 7.33203125 C0 10 0 10 -0.75 13.75 C-1.06294461 17.81827988 -0.28531688 19.64820191 2 23 C5.50651613 26.00558526 8.59790058 26.47470979 13.0703125 26.2890625 C15.95761881 25.85655103 17.76072509 24.84410875 20 23 C22.34402065 19.48396902 22.20794664 16.39733208 22.125 12.25 C22.09792969 10.49429688 22.09792969 10.49429688 22.0703125 8.703125 C22.04710937 7.81109375 22.02390625 6.9190625 22 6 C22.66 6 23.32 6 24 6 C25.94892318 11.84676955 25.99344445 17.93952262 23.3125 23.5 C19.43760619 27.68907439 16.76222687 29.17259515 11.0625 29.4375 C5.34350982 29.25878156 2.25647798 27.17866839 -1.8125 23.25 C-5.19221943 16.84632107 -3.85684344 10.62939146 -2 4 C-1.34 4 -0.68 4 0 4 C0 2.68 0 1.36 0 0 Z " fill="#377555" transform="translate(147,176)"/>
<path d="M0 0 C0.33 0 0.66 0 1 0 C1 13.53 1 27.06 1 41 C1.66 41 2.32 41 3 41 C4.22517308 46.66642551 4.09228867 52.23708518 4 58 C1.30962916 55.30962916 1.19647124 53.08640908 0.4375 49.375 C0.18871094 48.18648437 -0.06007813 46.99796875 -0.31640625 45.7734375 C-1.68979889 38.1923101 -2.19280785 30.94240613 -2.1875 23.25 C-2.18814453 22.28368652 -2.18878906 21.31737305 -2.18945312 20.32177734 C-2.13800929 13.3593216 -1.60580345 6.79598961 0 0 Z " fill="#468965" transform="translate(30,123)"/>
<path d="M0 0 C0 0.33 0 0.66 0 1 C-0.59167969 1.04898438 -1.18335938 1.09796875 -1.79296875 1.1484375 C-6.225255 1.56780553 -9.91887111 2.12488672 -14 4 C-14.94053223 4.27013916 -15.88106445 4.54027832 -16.85009766 4.81860352 C-20.25058613 6.09398437 -22.07872482 7.49085302 -24.7109375 9.96484375 C-26.00016113 11.17116455 -26.00016113 11.17116455 -27.31542969 12.40185547 C-31.80009021 16.74213896 -36.23314903 21.12835713 -40.625 25.5625 C-41.53378906 26.47580078 -42.44257812 27.38910156 -43.37890625 28.33007812 C-45.58827955 30.55107971 -47.79526031 32.77440033 -50 35 C-50.99 34.67 -51.98 34.34 -53 34 C-51.38113585 32.32737283 -49.7547271 30.66204463 -48.125 29 C-47.22007813 28.071875 -46.31515625 27.14375 -45.3828125 26.1875 C-43 24 -43 24 -41 24 C-40.63841797 23.14921875 -40.63841797 23.14921875 -40.26953125 22.28125 C-36.8425624 16.1232506 -30.4968447 11.27532365 -25 7 C-24.2575 6.13375 -23.515 5.2675 -22.75 4.375 C-16.45024155 -1.06570048 -7.91662827 -0.26635385 0 0 Z " fill="#306F4E" transform="translate(131,158)"/>
<path d="M0 0 C4.9609375 4.5859375 4.9609375 4.5859375 5.3125 8.3125 C5.209375 9.199375 5.10625 10.08625 5 11 C3.35 9.68 1.7 8.36 0 7 C0 7.66 0 8.32 0 9 C0.66 9.33 1.32 9.66 2 10 C0 11 -2 12 -4 13 C-4 12.34 -4 11.68 -4 11 C-6.73421955 12.47795651 -8.68994207 13.56075127 -10.5 16.125 C-12 18 -12 18 -14.6875 18.75 C-15.450625 18.8325 -16.21375 18.915 -17 19 C-15.60652624 15.84795019 -13.97514921 13.73828227 -11.5234375 11.328125 C-10.51796875 10.33232422 -10.51796875 10.33232422 -9.4921875 9.31640625 C-8.79351562 8.63449219 -8.09484375 7.95257813 -7.375 7.25 C-6.66859375 6.55261719 -5.9621875 5.85523437 -5.234375 5.13671875 C-3.49401297 3.41987512 -1.74915019 1.70788168 0 0 Z " fill="#2F835B" transform="translate(271,90)"/>
<path d="M0 0 C2 3 2 3 1.86328125 5.03125 C0.75042207 7.5691732 -0.40373168 8.17718846 -2.8125 9.5 C-5.40140429 10.99058126 -7.14142015 12.14534849 -9.25 14.3125 C-11 16 -11 16 -15 16 C-15.66 16.350625 -16.32 16.70125 -17 17.0625 C-19.44895901 18.21044954 -20.50702038 17.89034986 -23 17 C-22.505 15.515 -22.505 15.515 -22 14 C-21.2575 13.896875 -20.515 13.79375 -19.75 13.6875 C-15.88290556 12.72072639 -13.77487031 10.77487031 -11 8 C-10.01 8.66 -9.02 9.32 -8 10 C-7.79375 8.906875 -7.5875 7.81375 -7.375 6.6875 C-6 3 -6 3 -2.875 1.0625 C-1.451875 0.5365625 -1.451875 0.5365625 0 0 Z " fill="#5CB681" transform="translate(181,152)"/>
<path d="M0 0 C3.16848703 1.58424351 3.40106125 4.45387985 4.51342773 7.6887207 C10.96543429 27.31748042 15.36967855 48.31450559 11 69 C10.67 69 10.34 69 10 69 C10.02094727 68.31711914 10.04189453 67.63423828 10.06347656 66.93066406 C10.42621188 53.22477883 10.10571494 40.49930477 6.875 27.14453125 C5.9718366 23.33166469 5.83430388 19.90939272 6 16 C5.34 16 4.68 16 4 16 C3.33011414 13.70922959 2.66396838 11.41748541 2 9.125 C1.80921875 8.47402344 1.6184375 7.82304688 1.421875 7.15234375 C0 2.2265625 0 2.2265625 0 0 Z " fill="#3D7559" transform="translate(275,96)"/>
<path d="M0 0 C2.52520549 2.13671234 3.81110423 3.63995048 4.2734375 6.96875 C4.32381549 9.66901007 4.21018037 12.24366914 3.484375 14.85546875 C2.84479757 17.68714626 2.90598587 20.35070036 2.9375 23.25 C2.94652344 24.32765625 2.95554688 25.4053125 2.96484375 26.515625 C2.97644531 27.33546875 2.98804688 28.1553125 3 29 C2.34 29.33 1.68 29.66 1 30 C0.34 25.71 -0.32 21.42 -1 17 C-0.34 16.67 0.32 16.34 1 16 C1.28332651 12.29157083 1.41434865 8.70187805 1 5 C-0.79973117 2.46950757 -0.79973117 2.46950757 -4 2 C-13.24881446 1.832752 -18.37348592 6.09915605 -25 12 C-22.65715384 6.62801941 -18.29103407 2.48627345 -12.94140625 0.0703125 C-8.43743566 -1.21151929 -4.47803922 -1.29174208 0 0 Z " fill="#52936D" transform="translate(132,170)"/>
<path d="M0 0 C4.30619632 2.23590963 7.26400997 4.40473228 9 9 C9.6461655 13.71981758 8.79524641 16.88571205 6.0234375 20.76953125 C-0.04947741 27.68315914 -0.04947741 27.68315914 -4 29 C-2.95543256 25.34401396 -2.10840577 24.08130432 1 21.75 C4.42355087 19.09191137 5.25299508 16.35702953 5.953125 12.15625 C6.02210571 8.98313722 5.10512077 7.32289189 3 5 C2.01 4.67 1.02 4.34 0 4 C0 3.34 0 2.68 0 2 C-3.3 2.66 -6.6 3.32 -10 4 C-10.33 4.99 -10.66 5.98 -11 7 C-11.66 6.67 -12.32 6.34 -13 6 C-12.06896676 3.67241689 -11.34617872 2.25642868 -9.3125 0.75 C-6.00205754 -0.32365701 -3.46551259 -0.3585013 0 0 Z " fill="#448862" transform="translate(282,41)"/>
<path d="M0 0 C4.42556325 0.22502864 6.21952428 0.92200369 9.5 3.75 C11.38172837 7.61249508 10.76135267 11.10986365 9.6875 15.1875 C7.93127837 18.04136015 6.61032092 18.9122448 3.421875 19.86328125 C1.18343648 20.38065619 -1.0452124 20.819308 -3.3125 21.1875 C-6.77013693 17.89451245 -9.72655014 15.02231472 -10 10.0625 C-9.18812204 5.48646057 -7.87716326 4.05661921 -4.3125 1.1875 C-3.3125 0.1875 -3.3125 0.1875 0 0 Z M-5.8125 3.6875 C-7.93147146 7.2191191 -8.11091448 10.17073437 -7.3125 14.1875 C-5.91564994 16.8344872 -5.91564994 16.8344872 -3.3125 18.1875 C0.28904012 18.63769252 2.70854287 18.59969248 6.0625 17.1875 C8.5562506 14.1182685 8.98374457 11.09185149 8.6875 7.1875 C7.45296291 4.04005481 7.45296291 4.04005481 4.6875 2.1875 C0.6788708 1.26117055 -2.28414559 1.57048736 -5.8125 3.6875 Z " fill="#88AB93" transform="translate(157.3125,137.8125)"/>
<path d="M0 0 C0.66 0.66 1.32 1.32 2 2 C1.04287109 2.93972656 1.04287109 2.93972656 0.06640625 3.8984375 C-0.75988281 4.71570312 -1.58617187 5.53296875 -2.4375 6.375 C-3.26121094 7.18710937 -4.08492187 7.99921875 -4.93359375 8.8359375 C-7.03434672 10.82348515 -7.03434672 10.82348515 -8 13 C-8.66 13 -9.32 13 -10 13 C-10 13.66 -10 14.32 -10 15 C-10.639375 15.103125 -11.27875 15.20625 -11.9375 15.3125 C-12.618125 15.539375 -13.29875 15.76625 -14 16 C-14.33 16.99 -14.66 17.98 -15 19 C-16.66666667 20.33333333 -18.33333333 21.66666667 -20 23 C-20.95861345 24.08588698 -21.89485907 25.19177461 -22.8125 26.3125 C-26.91622364 31.24547349 -31.66433841 35.44289227 -37 39 C-35.60919475 35.86261846 -33.98977796 33.74524719 -31.56005859 31.33300781 C-30.85948334 30.63258362 -30.15890808 29.93215942 -29.43710327 29.21051025 C-28.68184357 28.46557312 -27.92658386 27.72063599 -27.1484375 26.953125 C-26.37440582 26.18192322 -25.60037415 25.41072144 -24.80288696 24.6161499 C-22.33158077 22.15603144 -19.85340817 19.70296152 -17.375 17.25 C-15.69745948 15.58249106 -14.02037055 13.91452768 -12.34375 12.24609375 C-8.23439081 8.1587763 -4.11937353 4.07722304 0 0 Z " fill="#3D7C5B" transform="translate(259,54)"/>
<path d="M0 0 C0.68987 -0.00328308 1.37973999 -0.00656616 2.09051514 -0.00994873 C14.62607592 -0.02927291 25.32701578 1.49576673 37 6.3125 C37 6.9725 37 7.6325 37 8.3125 C35.49373047 7.91417969 35.49373047 7.91417969 33.95703125 7.5078125 C13.8778535 2.27728928 -5.35397088 1.16745801 -26 3.3125 C-18.89769896 -1.42236736 -8.25363435 0.03205437 0 0 Z " fill="#5D8A71" transform="translate(161,48.6875)"/>
<path d="M0 0 C-2.7967887 3.35404359 -6.57138918 5.08359437 -10.375 7.0625 C-11.365 7.5894043 -11.365 7.5894043 -12.375 8.12695312 C-19.01145462 11.62365083 -24.36363522 13.95281947 -32 13 C-35.0625 11.5 -35.0625 11.5 -37 10 C-36.67 8.68 -36.34 7.36 -36 6 C-34.9790625 6.99 -34.9790625 6.99 -33.9375 8 C-30.07358101 10.63075335 -28.63571624 10.73582797 -24 10 C-20.7735993 8.56880174 -17.67706188 6.9943422 -14.57421875 5.3125 C-12 4 -12 4 -10 4 C-9.67 3.01 -9.34 2.02 -9 1 C-6.04335481 -0.4783226 -3.25770263 -0.06032783 0 0 Z " fill="#3C7557" transform="translate(85,278)"/>
<path d="M0 0 C0.33 0.99 0.66 1.98 1 3 C-0.49739583 4.20442708 -1.99479167 5.40885417 -3.4921875 6.61328125 C-5.25292107 8.12270545 -5.25292107 8.12270545 -7 11 C-7.99 11 -8.98 11 -10 11 C-10.2475 11.78375 -10.495 12.5675 -10.75 13.375 C-12.22139994 16.46493987 -13.07318455 16.53659227 -16 18 C-16.268125 18.763125 -16.53625 19.52625 -16.8125 20.3125 C-18.47035218 24.06448125 -21.29096497 26.26526201 -25 28 C-25.99 27.67 -26.98 27.34 -28 27 C-25.00428676 23.97489042 -22.00265195 20.95572125 -19 17.9375 C-18.16082031 17.08994141 -17.32164063 16.24238281 -16.45703125 15.36914062 C-11.47026378 10.3630446 -6.36899234 5.59185523 -1 1 C-0.67 0.67 -0.34 0.34 0 0 Z " fill="#3B7C5B" transform="translate(86,153)"/>
<path d="M0 0 C12.57133807 2.83964342 30.665131 10.9976965 38 22 C37.34 22.66 36.68 23.32 36 24 C35.071875 22.9790625 35.071875 22.9790625 34.125 21.9375 C24.5705374 12.48949381 11.59964165 6.28387816 -1 2 C-0.67 1.34 -0.34 0.68 0 0 Z " fill="#438A63" transform="translate(204,33)"/>
<path d="M0 0 C5.35534922 0.10163436 10.46129041 1.10146865 15.6875 2.1875 C16.88620728 2.4352417 16.88620728 2.4352417 18.10913086 2.68798828 C23.30626762 3.82742447 28.12115931 5.40185595 33.0625 7.375 C29.32849675 8.61966775 27.6110319 7.94529675 23.8125 7 C17.24312275 5.49764761 10.96546126 4.8844338 4.2421875 4.5859375 C1.67665477 4.41574245 -0.49178225 4.11723275 -2.9375 3.375 C-3.2675 4.035 -3.5975 4.695 -3.9375 5.375 C-3.9375 4.715 -3.9375 4.055 -3.9375 3.375 C-4.5975 3.045 -5.2575 2.715 -5.9375 2.375 C-3.9375 0.375 -3.9375 0.375 0 0 Z " fill="#4B926B" transform="translate(169.9375,24.625)"/>
<path d="M0 0 C0.66 0.33 1.32 0.66 2 1 C1.21753906 1.75925781 0.43507813 2.51851562 -0.37109375 3.30078125 C-1.39349196 4.30441986 -2.41561299 5.30834089 -3.4375 6.3125 C-3.95376953 6.81201172 -4.47003906 7.31152344 -5.00195312 7.82617188 C-7.40590176 10.19869635 -8.91656793 11.74970379 -10 15 C-10.66 15 -11.32 15 -12 15 C-12.061875 15.5775 -12.12375 16.155 -12.1875 16.75 C-13.34200848 19.94710041 -15.21547979 21.1436532 -18 23 C-18.99 23 -19.98 23 -21 23 C-21.28875 23.61875 -21.5775 24.2375 -21.875 24.875 C-23 27 -23 27 -25 29 C-25.99 28.67 -26.98 28.34 -28 28 C-18.76 18.76 -9.52 9.52 0 0 Z " fill="#3E7D5F" transform="translate(55,182)"/>
<path d="M0 0 C0.99 0.33 1.98 0.66 3 1 C2.49339844 2.45019531 2.49339844 2.45019531 1.9765625 3.9296875 C-2.80073752 17.77600251 -4.42960582 30.37989648 -5 45 C-5.33 45 -5.66 45 -6 45 C-7.12329818 36.84849835 -6.7558492 29.42922241 -5.47265625 21.34765625 C-4.62157697 16.02687141 -4.62157697 16.02687141 -6 11 C-5.38125 10.113125 -4.7625 9.22625 -4.125 8.3125 C-2.34602259 5.53938816 -1.08916398 3.0859646 0 0 Z " fill="#488B63" transform="translate(59,109)"/>
<path d="M0 0 C1.1859375 0.00902344 2.371875 0.01804688 3.59375 0.02734375 C6.47938907 0.05061503 9.36457855 0.08330316 12.25 0.125 C12.25 0.455 12.25 0.785 12.25 1.125 C11.2458606 1.16258423 11.2458606 1.16258423 10.22143555 1.20092773 C7.12666906 1.31847076 4.03209248 1.44046486 0.9375 1.5625 C-0.11501953 1.60181641 -1.16753906 1.64113281 -2.25195312 1.68164062 C-9.11052848 1.95598364 -15.92098103 2.43180652 -22.75 3.125 C-22.75 3.785 -22.75 4.445 -22.75 5.125 C-25.1863189 5.79626129 -27.62388883 6.46216354 -30.0625 7.125 C-30.75279297 7.31578125 -31.44308594 7.5065625 -32.15429688 7.703125 C-35.10787949 8.50216184 -37.67559219 9.125 -40.75 9.125 C-40.75 8.465 -40.75 7.805 -40.75 7.125 C-38.50378786 6.3210279 -36.2538557 5.5320396 -34 4.75 C-33.38511719 4.52828125 -32.77023438 4.3065625 -32.13671875 4.078125 C-21.58272755 0.45352196 -11.08285839 -0.16298321 0 0 Z " fill="#468B61" transform="translate(157.75,47.875)"/>
<path d="M0 0 C0 0.66 0 1.32 0 2 C0.66 2 1.32 2 2 2 C3.5 3.375 3.5 3.375 5 5 C6.84188612 7.05270463 6.84188612 7.05270463 9 8 C8.5251065 12.11574371 7.9789756 15.36383344 6 19 C5.81824219 18.33613281 5.63648438 17.67226562 5.44921875 16.98828125 C3.07672633 7.89343827 3.07672633 7.89343827 -3.5625 1.75 C-8.23107608 -0.40606493 -12.91123507 -0.79144406 -18 -1 C-18 -1.33 -18 -1.66 -18 -2 C-11.04952816 -3.21357445 -6.49976102 -2.71975816 0 0 Z " fill="#528D69" transform="translate(140,161)"/>
<path d="M0 0 C0.33 0 0.66 0 1 0 C1.61783483 8.83847052 1.61783483 8.83847052 -0.5625 12.9375 C-4.59067855 16.34595877 -7.6381915 18.03501333 -12.8984375 17.95703125 C-15.61639432 17.71597852 -18.30197764 17.4049473 -21 17 C-21 16.34 -21 15.68 -21 15 C-24.3 15 -27.6 15 -31 15 C-31 14.67 -31 14.34 -31 14 C-29.90328979 14.04713135 -29.90328979 14.04713135 -28.78442383 14.09521484 C-25.46076598 14.22019809 -22.13760238 14.29805548 -18.8125 14.375 C-17.08676758 14.45041016 -17.08676758 14.45041016 -15.32617188 14.52734375 C-9.45059163 14.80212511 -9.45059163 14.80212511 -4.11206055 12.79150391 C-1.69874786 10.06025165 -0.37484131 7.24693199 -0.1875 3.625 C-0.0946875 1.830625 -0.0946875 1.830625 0 0 Z " fill="#3A7055" transform="translate(215,144)"/>
<path d="M0 0 C0 0.33 0 0.66 0 1 C-0.94617188 1.1959375 -1.89234375 1.391875 -2.8671875 1.59375 C-11.74193129 3.55847458 -19.7517252 6.37387926 -27.97021484 10.26953125 C-31.64405289 12.00502022 -34.92317947 13.46124857 -39 14 C-36.93207315 11.75304909 -35.06370136 10.35889572 -32.3046875 9.0625 C-31.59296387 8.72613525 -30.88124023 8.38977051 -30.14794922 8.04321289 C-29.39787598 7.69895264 -28.64780273 7.35469238 -27.875 7 C-26.72475342 6.46717407 -26.72475342 6.46717407 -25.55126953 5.92358398 C-7.28777946 -2.42925982 -7.28777946 -2.42925982 0 0 Z " fill="#488D67" transform="translate(128,30)"/>
<path d="M0 0 C0 0.66 0 1.32 0 2 C-5.20966428 4.57883581 -10.34211892 4.40497664 -16.02539062 4.56640625 C-20.48223082 4.56284024 -20.48223082 4.56284024 -24 7 C-24 7.99 -24 8.98 -24 10 C-25.98 9.34 -27.96 8.68 -30 8 C-30 6 -30 6 -28.5625 3.8125 C-25.08028506 1.34946992 -22.90486854 1.98308572 -18.828125 2.640625 C-17.92320312 2.81851563 -17.92320312 2.81851563 -17 3 C-16.67 2.34 -16.34 1.68 -16 1 C-14.86111328 1.01740234 -14.86111328 1.01740234 -13.69921875 1.03515625 C-12.70535156 1.04417969 -11.71148437 1.05320313 -10.6875 1.0625 C-9.70136719 1.07410156 -8.71523437 1.08570313 -7.69921875 1.09765625 C-4.95088512 0.99822305 -2.71583084 0 0 0 Z " fill="#49AA70" transform="translate(213,169)"/>
<path d="M0 0 C5.99725275 2.10714286 5.99725275 2.10714286 8 5 C7.56805301 8.18413608 6.55909817 9.80592598 4.27734375 12.015625 C3.73916016 12.54414062 3.20097656 13.07265625 2.64648438 13.6171875 C2.08251953 14.15601562 1.51855469 14.69484375 0.9375 15.25 C0.36966797 15.80429688 -0.19816406 16.35859375 -0.78320312 16.9296875 C-2.18212469 18.29334214 -3.59019114 19.64760417 -5 21 C-11.875 17.25 -11.875 17.25 -13 15 C-10.36 15.66 -7.72 16.32 -5 17 C-4.67 16.01 -4.34 15.02 -4 14 C-2.66923011 13.65657551 -1.33568021 13.32380126 0 13 C0.66 12.01 1.32 11.02 2 10 C2.66 10 3.32 10 4 10 C4.41176754 6.39703406 4.1535853 5.21597933 2 2.1875 C1.34 1.465625 0.68 0.74375 0 0 Z " fill="#43A46F" transform="translate(232,50)"/>
<path d="M0 0 C0.33 0.66 0.66 1.32 1 2 C0.60167969 2.42410156 0.20335937 2.84820312 -0.20703125 3.28515625 C-3.85862461 7.32767445 -6.12157254 10.88650302 -8 16 C-8.99 15.67 -9.98 15.34 -11 15 C-11 15.66 -11 16.32 -11 17 C-12.65 17.66 -14.3 18.32 -16 19 C-14.68411284 12.90243836 -11.38005132 10.06803502 -6.875 6.125 C-5.88693359 5.23554687 -5.88693359 5.23554687 -4.87890625 4.328125 C-3.26182171 2.87509252 -1.63213396 1.43610743 0 0 Z " fill="#349A5A" transform="translate(219,94)"/>
<path d="M0 0 C0.33 0.66 0.66 1.32 1 2 C-0.47169811 5.73584906 -0.47169811 5.73584906 -3 7 C-3.33 7.99 -3.66 8.98 -4 10 C-4.42925781 10.40863281 -4.85851563 10.81726563 -5.30078125 11.23828125 C-7.83372824 13.86439411 -9.43014308 17.01917297 -11.1875 20.1875 C-11.55552734 20.84169922 -11.92355469 21.49589844 -12.30273438 22.16992188 C-13.2062466 23.77746961 -14.1037241 25.38840651 -15 27 C-15.66 27 -16.32 27 -17 27 C-17.66 28.32 -18.32 29.64 -19 31 C-18.43751626 26.31263548 -16.36456599 22.7635143 -13.9375 18.8125 C-13.53917969 18.15556152 -13.14085937 17.49862305 -12.73046875 16.82177734 C-9.04136887 10.85179806 -4.9794467 4.9794467 0 0 Z " fill="#428762" transform="translate(57,70)"/>
<path d="M0 0 C0.33 0 0.66 0 1 0 C1.29256654 3.0197047 1.3643308 4.50582791 -0.46875 6.9921875 C-1.1390625 7.61351562 -1.809375 8.23484375 -2.5 8.875 C-3.22703125 9.55304688 -3.9540625 10.23109375 -4.703125 10.9296875 C-5.46109375 11.61289063 -6.2190625 12.29609375 -7 13 C-7.71671875 13.68320313 -8.4334375 14.36640625 -9.171875 15.0703125 C-14.48076923 20 -14.48076923 20 -19 20 C-20.99785435 15.8794254 -21.17835515 12.54805635 -21 8 C-18.70366176 11.44450737 -18.45983515 13.93812283 -18 18 C-13.31542317 15.45694401 -10.07287969 12.1754975 -6.421875 8.34375 C-4.98199903 6.8619359 -3.49381422 5.42742248 -2 4 C-1.34 4 -0.68 4 0 4 C0 2.68 0 1.36 0 0 Z " fill="#3A7556" transform="translate(54,166)"/>
<path d="M0 0 C0.66 0.33 1.32 0.66 2 1 C1.48308594 1.43570313 0.96617187 1.87140625 0.43359375 2.3203125 C-1.56849909 4.13042383 -3.36212059 5.85189114 -5 8 C-5.12610897 11.35406512 -5.12610897 11.35406512 -4 14 C-4.721875 14.103125 -5.44375 14.20625 -6.1875 14.3125 C-9.27793421 15.06793947 -11.41743841 16.15531315 -14 18 C-14 18.66 -14 19.32 -14 20 C-14.66 20 -15.32 20 -16 20 C-15.75 17.625 -15.75 17.625 -15 15 C-13.0625 13.9375 -13.0625 13.9375 -11 13 C-10.58427734 12.12794922 -10.58427734 12.12794922 -10.16015625 11.23828125 C-8.66911354 8.3616231 -6.69430012 6.5030344 -4.375 4.25 C-3.55773437 3.45078125 -2.74046875 2.6515625 -1.8984375 1.828125 C-0.95871094 0.92320313 -0.95871094 0.92320313 0 0 Z " fill="#50BD7D" transform="translate(243,120)"/>
<path d="M0 0 C0.33 0.99 0.66 1.98 1 3 C1.66 3 2.32 3 3 3 C6 7.38461538 6 7.38461538 6 10 C7.65 10.33 9.3 10.66 11 11 C11.33 12.65 11.66 14.3 12 16 C11.01 16 10.02 16 9 16 C8.34 14.68 7.68 13.36 7 12 C6.34 13.32 5.68 14.64 5 16 C4.01 15.34 3.02 14.68 2 14 C2.33 12.68 2.66 11.36 3 10 C2.01 9.67 1.02 9.34 0 9 C-0.87890625 2.84765625 -0.87890625 2.84765625 -1 1 C-0.67 0.67 -0.34 0.34 0 0 Z " fill="#57B47E" transform="translate(166,120)"/>
<path d="M0 0 C0 0.33 0 0.66 0 1 C-0.86882812 1.09796875 -1.73765625 1.1959375 -2.6328125 1.296875 C-13.04882921 2.6271935 -13.04882921 2.6271935 -20.8125 9.1875 C-22.67865197 13.60733361 -23 18.2270203 -23 23 C-23.66 23 -24.32 23 -25 23 C-26.30460701 17.22245468 -26.44271169 13.9267724 -23.5 8.6875 C-17.15227527 -0.6099647 -10.86000618 -0.58791011 0 0 Z " fill="#518B69" transform="translate(194,159)"/>
<path d="M0 0 C0.33 0 0.66 0 1 0 C0.88189277 4.83165925 0.52948705 8.17462312 -2.125 12.3125 C-7.19004067 17.04721193 -10.52914906 19.23048488 -17.4375 19.25 C-18.95929036 19.18649757 -20.48086534 19.11003792 -22 19 C-22 18.67 -22 18.34 -22 18 C-21.20335938 17.84144531 -20.40671875 17.68289062 -19.5859375 17.51953125 C-10.73446005 15.61413838 -10.73446005 15.61413838 -4 10 C-2.41093893 6.7419251 -1.1356633 3.44039177 0 0 Z " fill="#538C6C" transform="translate(146,118)"/>
<path d="M0 0 C0.845625 0.33 1.69125 0.66 2.5625 1 C-0.05691217 2.74627478 -1.47574877 3.38722388 -4.4375 4 C-4.7675 3.34 -5.0975 2.68 -5.4375 2 C-8.71731213 2.29816474 -10.91861758 2.6293697 -13.625 4.5625 C-16.07802744 7.86139897 -17.13819594 11.10208782 -18.4375 15 C-18.7675 15 -19.0975 15 -19.4375 15 C-19.22164812 8.84822149 -18.09636817 5.86300523 -13.91015625 1.34765625 C-9.89192533 -2.32950468 -4.91385312 -1.42948454 0 0 Z " fill="#33875A" transform="translate(162.4375,92)"/>
<path d="M0 0 C0.66 0.66 1.32 1.32 2 2 C1.2575 1.979375 0.515 1.95875 -0.25 1.9375 C-2.74781093 1.99426843 -4.61630002 2.32958438 -7 3 C-7.76957031 3.12375 -8.53914063 3.2475 -9.33203125 3.375 C-12.18024492 4.04222429 -14.18278867 5.06987916 -16.6875 6.5625 C-20.79603399 9 -20.79603399 9 -23 9 C-23 8.34 -23 7.68 -23 7 C-19.63316085 4.56839395 -18.26649636 4 -14 4 C-14 2.68 -14 1.36 -14 0 C-9.03908866 -0.76979659 -4.93691501 -1.29300155 0 0 Z " fill="#3D7E5C" transform="translate(123,261)"/>
<path d="M0 0 C0.99 0.33 1.98 0.66 3 1 C2.67 1.66 2.34 2.32 2 3 C1.34 3 0.68 3 0 3 C0 3.66 0 4.32 0 5 C-1.68175383 6.47263908 -3.42211247 7.87873465 -5.1875 9.25 C-10.54721898 13.54190865 -15.26532381 17.53621991 -18 24 C-18.31978453 20.46904578 -18.43304689 18.61156355 -16.34765625 15.66650391 C-15.59355469 14.94382324 -14.83945312 14.22114258 -14.0625 13.4765625 C-13.25039063 12.68378906 -12.43828125 11.89101562 -11.6015625 11.07421875 C-10.31378906 9.86185547 -10.31378906 9.86185547 -9 8.625 C-8.14148438 7.79355469 -7.28296875 6.96210938 -6.3984375 6.10546875 C-4.27847495 4.05617162 -2.14581016 2.02215975 0 0 Z " fill="#347154" transform="translate(75,210)"/>
<path d="M0 0 C0.99 0 1.98 0 3 0 C3 4.95 3 9.9 3 15 C-1 12 -1 12 -1.875 9.1875 C-2.01350354 5.65565982 -1.3178719 3.25591881 0 0 Z " fill="#57B57E" transform="translate(135,146)"/>
<path d="M0 0 C3.875 2.625 3.875 2.625 5 6 C5.73584906 13.01886792 5.73584906 13.01886792 3.5 16 C3.005 16.33 2.51 16.66 2 17 C0.71428571 8.42857143 0.71428571 8.42857143 2 5 C0.68 5.33 -0.64 5.66 -2 6 C-1.34 4.02 -0.68 2.04 0 0 Z " fill="#34965E" transform="translate(210,138)"/>
<path d="M0 0 C0.99 0.33 1.98 0.66 3 1 C-1.11619836 5.91935902 -5.40410362 10.52647956 -10 15 C-10.99 14.67 -11.98 14.34 -13 14 C-13 13.01 -13 12.02 -13 11 C-12.360625 10.896875 -11.72125 10.79375 -11.0625 10.6875 C-10.0415625 10.3471875 -10.0415625 10.3471875 -9 10 C-8.67 9.01 -8.34 8.02 -8 7 C-6.01310269 5.64721885 -4.01254782 4.31431695 -2 3 C-1.34 2.01 -0.68 1.02 0 0 Z " fill="#3E8157" transform="translate(242,102)"/>
<path d="M0 0 C0.66 0 1.32 0 2 0 C2.13711059 7.403972 -0.80329203 10.6940656 -5.7734375 15.99609375 C-8 18 -8 18 -11 19 C-9.77642468 14.71748636 -7.93984273 13.17751489 -4.46484375 10.53515625 C-1.70941209 7.64746387 -0.94234658 3.7941849 0 0 Z " fill="#447D5C" transform="translate(289,51)"/>
<path d="M0 0 C0.66 0.66 1.32 1.32 2 2 C-3.60523001 7.07515796 -9.23225279 12.10995345 -15 17 C-15 14 -15 14 -14 12 C-13.34 12 -12.68 12 -12 12 C-12 11.34 -12 10.68 -12 10 C-10.390625 8.6328125 -10.390625 8.6328125 -8.25 7.125 C-5.23327463 4.94268803 -2.53516854 2.74643258 0 0 Z " fill="#2E694E" transform="translate(76,194)"/>
<path d="M0 0 C0.66 0.66 1.32 1.32 2 2 C0.27278316 3.27348212 -1.45686238 4.54367057 -3.1875 5.8125 C-4.15042969 6.52019531 -5.11335938 7.22789063 -6.10546875 7.95703125 C-8.69142333 9.78220567 -11.19102559 11.53972142 -14 13 C-14.66 12.67 -15.32 12.34 -16 12 C-10.97934696 7.36657818 -5.92147718 3.41744827 0 0 Z " fill="#478C64" transform="translate(87,44)"/>
<path d="M0 0 C0.33 0.99 0.66 1.98 1 3 C-0.49739583 4.20442708 -1.99479167 5.40885417 -3.4921875 6.61328125 C-5.25292107 8.12270545 -5.25292107 8.12270545 -7 11 C-7.99 11 -8.98 11 -10 11 C-10.2475 11.78375 -10.495 12.5675 -10.75 13.375 C-12.18650005 16.3916501 -13.04720831 16.71565565 -16 18 C-11.95481622 10.46758883 -6.42872541 5.49425219 0 0 Z " fill="#367554" transform="translate(86,153)"/>
<path d="M0 0 C0.66 0.33 1.32 0.66 2 1 C1.401875 1.886875 0.80375 2.77375 0.1875 3.6875 C-3.44402706 8.47388266 -3.44402706 8.47388266 -5 14 C-7.31 14.66 -9.62 15.32 -12 16 C-11.59007812 15.46890625 -11.18015625 14.9378125 -10.7578125 14.390625 C-10.21898437 13.68421875 -9.68015625 12.9778125 -9.125 12.25 C-8.32449219 11.20585938 -8.32449219 11.20585938 -7.5078125 10.140625 C-5.96713589 8.06659696 -5.96713589 8.06659696 -4.9375 5.875 C-3.71500795 3.43001589 -1.98456183 1.85225771 0 0 Z " fill="#439169" transform="translate(266,47)"/>
<path d="M0 0 C0.33 0 0.66 0 1 0 C2.14020096 6.36159741 2.14855814 12.61149686 2.125 19.0625 C2.12886719 20.12533203 2.13273437 21.18816406 2.13671875 22.28320312 C2.13045854 27.29450441 2.07473809 32.07838193 1 37 C0.67 37 0.34 37 0 37 C0.00523682 36.23856689 0.01047363 35.47713379 0.01586914 34.69262695 C0.03669525 31.23259308 0.04967813 27.77257241 0.0625 24.3125 C0.07087891 23.11431641 0.07925781 21.91613281 0.08789062 20.68164062 C0.09111328 19.52470703 0.09433594 18.36777344 0.09765625 17.17578125 C0.10289307 16.11270752 0.10812988 15.04963379 0.11352539 13.9543457 C0.00702391 11.18278784 -0.45528689 8.70988357 -1 6 C-0.5625 2.6875 -0.5625 2.6875 0 0 Z " fill="#4D7B65" transform="translate(285,128)"/>
<path d="M0 0 C0 3 0 3 -1 5 C-0.34 5.33 0.32 5.66 1 6 C0.01 7.485 0.01 7.485 -1 9 C-1.66 9 -2.32 9 -3 9 C-2.67 9.99 -2.34 10.98 -2 12 C-2.66 12 -3.32 12 -4 12 C-4.33 11.34 -4.66 10.68 -5 10 C-6.32 9.67 -7.64 9.34 -9 9 C-6.03 6.03 -3.06 3.06 0 0 Z " fill="#39885F" transform="translate(101,138)"/>
<path d="M0 0 C0.99 0.99 1.98 1.98 3 3 C-5.07744875 9.70387244 -5.07744875 9.70387244 -11 10 C-10.67 8.68 -10.34 7.36 -10 6 C-9.2575 5.896875 -8.515 5.79375 -7.75 5.6875 C-4.79570382 4.94892596 -3.25382199 4.01234106 -1 2 C-0.67 1.34 -0.34 0.68 0 0 Z " fill="#62BB86" transform="translate(169,160)"/>
<path d="M0 0 C0.66 0.66 1.32 1.32 2 2 C1.33613281 2.59167969 0.67226563 3.18335937 -0.01171875 3.79296875 C-4.44938962 7.7641983 -8.85786795 11.71979688 -13 16 C-13.33 15.01 -13.66 14.02 -14 13 C-12.50260417 11.79557292 -11.00520833 10.59114583 -9.5078125 9.38671875 C-7.74707893 7.87729455 -7.74707893 7.87729455 -6 5 C-5.34 5 -4.68 5 -4 5 C-4 4.34 -4 3.68 -4 3 C-2 1.375 -2 1.375 0 0 Z " fill="#33744B" transform="translate(277,69)"/>
<path d="M0 0 C1.32 0 2.64 0 4 0 C4 0.66 4 1.32 4 2 C0.64937291 5.05498353 -2.79395959 7.29968579 -7 9 C-9.375 8.6875 -9.375 8.6875 -11 8 C-11 7.34 -11 6.68 -11 6 C-7.37 4.68 -3.74 3.36 0 2 C0 1.34 0 0.68 0 0 Z " fill="#3B7D5A" transform="translate(94,269)"/>
<path d="M0 0 C0.33 0.99 0.66 1.98 1 3 C0.34 3 -0.32 3 -1 3 C-1.38478516 3.89332031 -1.38478516 3.89332031 -1.77734375 4.8046875 C-3.10969687 7.19696371 -4.43368605 8.42728199 -6.5625 10.125 C-9.21025666 12.20903634 -9.21025666 12.20903634 -11 15 C-11.66 15 -12.32 15 -13 15 C-13.33 15.66 -13.66 16.32 -14 17 C-13.4194679 13.69881206 -12.45131901 12.08865924 -10.05859375 9.765625 C-9.18364258 8.90517578 -9.18364258 8.90517578 -8.29101562 8.02734375 C-7.67935547 7.44082031 -7.06769531 6.85429687 -6.4375 6.25 C-5.82197266 5.64800781 -5.20644531 5.04601562 -4.57226562 4.42578125 C-3.05485187 2.94365619 -1.52829404 1.4709033 0 0 Z " fill="#559870" transform="translate(105,181)"/>
<path d="M0 0 C7.25398658 0.47567125 13.26812223 2.29466594 20 5 C20 5.66 20 6.32 20 7 C17.41348078 6.40750664 14.83139849 5.80158701 12.25 5.1875 C11.52039063 5.02185547 10.79078125 4.85621094 10.0390625 4.68554688 C6.06281956 3.7276338 3.09199911 2.83975708 0 0 Z " fill="#44835E" transform="translate(178,50)"/>
<path d="M0 0 C-1.87144695 0.82065069 -3.74734336 1.6311584 -5.625 2.4375 C-6.66914062 2.88996094 -7.71328125 3.34242187 -8.7890625 3.80859375 C-11.88685251 4.95801705 -14.73210054 5.57311223 -18 6 C-17.34 5.67 -16.68 5.34 -16 5 C-15.67 4.01 -15.34 3.02 -15 2 C-12.63671875 1.015625 -12.63671875 1.015625 -9.6875 0.25 C-8.72199219 -0.01296875 -7.75648437 -0.2759375 -6.76171875 -0.546875 C-4.0629274 -0.98967528 -2.54716045 -0.89543883 0 0 Z " fill="#42A26E" transform="translate(129,51)"/>
<path d="M0 0 C1.32 0.33 2.64 0.66 4 1 C2.54682413 4.3907437 0.83917459 6.63402118 -2 9 C-5.25 10.25 -5.25 10.25 -8 11 C-7.38511719 10.31164062 -7.38511719 10.31164062 -6.7578125 9.609375 C-6.21898437 8.99578125 -5.68015625 8.3821875 -5.125 7.75 C-4.59132812 7.14671875 -4.05765625 6.5434375 -3.5078125 5.921875 C-2.0202513 4.02581254 -0.99677564 2.18709995 0 0 Z " fill="#2D8455" transform="translate(57,180)"/>
<path d="M0 0 C0 0.33 0 0.66 0 1 C-0.88751953 1.07347656 -0.88751953 1.07347656 -1.79296875 1.1484375 C-6.23795538 1.5690072 -9.89474423 2.16343821 -14 4 C-16.32748694 4.68679942 -18.65986656 5.35761043 -21 6 C-20.67 4.68 -20.34 3.36 -20 2 C-13.1834265 0.2120463 -7.03482474 -0.23668569 0 0 Z " fill="#357554" transform="translate(131,158)"/>
<path d="M0 0 C1.67542976 0.28604898 3.34385343 0.61781233 5 1 C4.50639991 5.27786748 3.95216435 8.09567131 2 12 C1.01 8.37 0.02 4.74 -1 1 C-0.67 0.67 -0.34 0.34 0 0 Z " fill="#4A9867" transform="translate(144,168)"/>
<path d="M0 0 C0.825 0.639375 1.65 1.27875 2.5 1.9375 C6.23191406 4.46413081 9.55723303 4.69360228 14 5 C14 5.66 14 6.32 14 7 C9.63369099 7.25684171 6.03503582 7.4224636 1.9375 5.75 C1.298125 5.1725 0.65875 4.595 0 4 C0 2.68 0 1.36 0 0 Z " fill="#367152" transform="translate(48,284)"/>
<path d="M0 0 C0.99 0.66 1.98 1.32 3 2 C1.25048432 2.95921722 -0.49963244 3.91733817 -2.25 4.875 C-3.71179688 5.67550781 -3.71179688 5.67550781 -5.203125 6.4921875 C-7.45130408 7.70419466 -9.7072805 8.87547567 -12 10 C-12 8.68 -12 7.36 -12 6 C-9.09399739 4.74335022 -7.20395416 4 -4 4 C-3.67 3.34 -3.34 2.68 -3 2 C-2.01 2 -1.02 2 0 2 C0 1.34 0 0.68 0 0 Z " fill="#42A06B" transform="translate(108,56)"/>
<path d="M0 0 C0.33 0.99 0.66 1.98 1 3 C-4 8 -4 8 -5.6875 9.5625 C-7.2141682 11.23456517 -8.07757479 12.94228223 -9 15 C-9 10.96286738 -8.76144624 8.92564818 -6.15234375 5.75390625 C-4.14993218 3.77268422 -2.11764085 1.85715655 0 0 Z " fill="#5D9073" transform="translate(234,126)"/>
<path d="M0 0 C0.33 0.66 0.66 1.32 1 2 C0.59007812 2.47050781 0.18015625 2.94101563 -0.2421875 3.42578125 C-0.78101563 4.04839844 -1.31984375 4.67101562 -1.875 5.3125 C-2.40867188 5.92738281 -2.94234375 6.54226562 -3.4921875 7.17578125 C-5.1640447 9.13498212 -5.1640447 9.13498212 -7 12 C-8.32 11.67 -9.64 11.34 -11 11 C-7.33333333 7.33333333 -3.66666667 3.66666667 0 0 Z " fill="#448462" transform="translate(219,94)"/>
<path d="M0 0 C0 0.66 0 1.32 0 2 C0.66 2.66 1.32 3.32 2 4 C0.02 4.99 -1.96 5.98 -4 7 C-4 7.99 -4 8.98 -4 10 C-4.66 10 -5.32 10 -6 10 C-6.33663062 6.29706315 -6.47736015 4.60465619 -4.125 1.625 C-2 0 -2 0 0 0 Z " fill="#7EC99A" transform="translate(151,134)"/>
<path d="M0 0 C0.66 0.33 1.32 0.66 2 1 C-3.40221402 9.08118081 -3.40221402 9.08118081 -7 11 C-7.99 10.67 -8.98 10.34 -10 10 C-6.7 6.7 -3.4 3.4 0 0 Z " fill="#498A67" transform="translate(68,58)"/>
<path d="M0 0 C2.5625718 -0.02710123 5.12485365 -0.04688771 7.6875 -0.0625 C8.40873047 -0.07087891 9.12996094 -0.07925781 9.87304688 -0.08789062 C13.71555382 -0.10543632 17.26639526 0.06475779 21 1 C21 1.33 21 1.66 21 2 C17.37 2.33 13.74 2.66 10 3 C10 2.34 10 1.68 10 1 C6.7 1 3.4 1 0 1 C0 0.67 0 0.34 0 0 Z " fill="#337E56" transform="translate(184,158)"/>
<path d="M0 0 C0.83583327 2.37607949 1.1842383 3.54449627 0.22265625 5.921875 C-0.8515625 7.61458333 -1.92578125 9.30729167 -3 11 C-3.66 11 -4.32 11 -5 11 C-5.66 12.32 -6.32 13.64 -7 15 C-6.42176904 10.93774452 -5.10882263 8.15237654 -2.9375 4.6875 C-2.38964844 3.80449219 -1.84179688 2.92148438 -1.27734375 2.01171875 C-0.64505859 1.01591797 -0.64505859 1.01591797 0 0 Z " fill="#4F8F6D" transform="translate(45,86)"/>
<path d="M0 0 C-4.20751447 2.80500965 -7.24985414 3.12829139 -12.25 3.0625 C-13.14203125 3.05347656 -14.0340625 3.04445313 -14.953125 3.03515625 C-15.62859375 3.02355469 -16.3040625 3.01195312 -17 3 C-17 2.67 -17 2.34 -17 2 C-5.47835991 -1.62870159 -5.47835991 -1.62870159 0 0 Z " fill="#377356" transform="translate(195,264)"/>
<path d="M0 0 C0.99 0.33 1.98 0.66 3 1 C0.03 3.97 -2.94 6.94 -6 10 C-6.99 9.67 -7.98 9.34 -9 9 C-6.03 6.03 -3.06 3.06 0 0 Z " fill="#53956B" transform="translate(85,200)"/>
<path d="M0 0 C0.75 1.625 0.75 1.625 1 4 C-0.68761182 7.12520707 -2.1305619 9.39402799 -5.0625 11.4375 C-7 12 -7 12 -10 11 C-6.25 8 -6.25 8 -4 8 C-4 7.34 -4 6.68 -4 6 C-3.34 6 -2.68 6 -2 6 C-1.34 4.02 -0.68 2.04 0 0 Z " fill="#379562" transform="translate(169,191)"/>
<path d="M0 0 C2.26954631 3.40431947 2.36549949 5.16524202 2.625 9.1875 C2.69976562 10.27417969 2.77453125 11.36085937 2.8515625 12.48046875 C2.92503906 13.72763672 2.92503906 13.72763672 3 15 C2.01 15 1.02 15 0 15 C-0.19601608 13.25093341 -0.38147403 11.50068154 -0.5625 9.75 C-0.66691406 8.77546875 -0.77132812 7.8009375 -0.87890625 6.796875 C-0.98974468 4.2368648 -0.77738092 2.41851841 0 0 Z " fill="#478367" transform="translate(53,155)"/>
<path d="M0 0 C1.65 0 3.3 0 5 0 C5.33 0.99 5.66 1.98 6 3 C5.67 3.66 5.34 4.32 5 5 C5.66 5.33 6.32 5.66 7 6 C6.34 6 5.68 6 5 6 C4.67 6.66 4.34 7.32 4 8 C0 3.375 0 3.375 0 0 Z " fill="#46C177" transform="translate(108,100)"/>
<path d="M0 0 C4.92307692 4.18461538 4.92307692 4.18461538 5.3125 8.3125 C5.1578125 9.6428125 5.1578125 9.6428125 5 11 C2.77810176 8.77810176 2.07401108 6.91517292 1 4 C0.01 4 -0.98 4 -2 4 C-2 4.66 -2 5.32 -2 6 C-2.66 6 -3.32 6 -4 6 C-2.84826645 3.53199953 -1.95216435 1.95216435 0 0 Z " fill="#326A4E" transform="translate(271,90)"/>
<path d="M0 0 C1.58624235 0.42683239 3.1689098 0.86696158 4.75 1.3125 C6.07257813 1.67794922 6.07257813 1.67794922 7.421875 2.05078125 C10.05772505 3.02125331 11.85407326 4.21005644 14 6 C8.54520815 5.43179252 4.08940744 4.05362055 -1 2 C-0.67 1.34 -0.34 0.68 0 0 Z " fill="#488966" transform="translate(204,33)"/>
<path d="M0 0 C0.66 0.33 1.32 0.66 2 1 C2 1.99 2 2.98 2 4 C0.25 5.75 0.25 5.75 -2 7 C-4.25 6.6875 -4.25 6.6875 -6 6 C-5.67 5.34 -5.34 4.68 -5 4 C-4.34 4 -3.68 4 -3 4 C-3 3.34 -3 2.68 -3 2 C-2.01 1.34 -1.02 0.68 0 0 Z " fill="#37805C" transform="translate(45,222)"/>
<path d="M0 0 C2 3 2 3 1.9375 5.0625 C1 7 1 7 -1.5625 8.25 C-2.366875 8.4975 -3.17125 8.745 -4 9 C-2.25 2.25 -2.25 2.25 0 0 Z " fill="#4EB077" transform="translate(181,152)"/>
<path d="M0 0 C0.66 0.33 1.32 0.66 2 1 C1.236875 1.825 0.47375 2.65 -0.3125 3.5 C-3.29705636 7.04416068 -4.56553511 10.62110717 -6 15 C-6.33 15 -6.66 15 -7 15 C-6.75648872 8.05992846 -4.93291958 4.82732192 0 0 Z " fill="#498363" transform="translate(150,92)"/>
<path d="M0 0 C0.33 0 0.66 0 1 0 C1.33 3.3 1.66 6.6 2 10 C2.99 10.33 3.98 10.66 5 11 C4.01 11.495 4.01 11.495 3 12 C0.375 10.5625 0.375 10.5625 -2 9 C-1.34 6.03 -0.68 3.06 0 0 Z " fill="#47AB72" transform="translate(132,148)"/>
<path d="M0 0 C1.98 0 3.96 0 6 0 C5.67 1.32 5.34 2.64 5 4 C2.69 4.33 0.38 4.66 -2 5 C-1.34 3.35 -0.68 1.7 0 0 Z " fill="#49AE73" transform="translate(148,121)"/>
<path d="M0 0 C0.97004667 3.16734934 1.04793039 5.7703692 0.75 9.0625 C0.68296875 9.91972656 0.6159375 10.77695313 0.546875 11.66015625 C-0.07538181 14.32252646 -0.91525781 15.29073557 -3 17 C-2.48517081 11.147205 -1.54642808 5.6702363 0 0 Z " fill="#2B7853" transform="translate(56,235)"/>
<path d="M0 0 C1.9375 0.3125 1.9375 0.3125 4 1 C4.33 1.99 4.66 2.98 5 4 C5.66 4.33 6.32 4.66 7 5 C7 5.66 7 6.32 7 7 C7.66 7.33 8.32 7.66 9 8 C5.81390075 7.64598897 4.20933322 7.16972964 1.6875 5.125 C0 3 0 3 0 0 Z " fill="#3B7158" transform="translate(22,225)"/>
<path d="M0 0 C2.85278483 0.29511567 3.83578823 0.81232941 5.75 3 C7.4428059 7.06273416 7.25533894 10.65923807 7 15 C6.67 15 6.34 15 6 15 C6 12.36 6 9.72 6 7 C5.34 7 4.68 7 4 7 C2.50475822 4.7272325 1.21600285 2.4320057 0 0 Z " fill="#41755C" transform="translate(210,137)"/>
<path d="M0 0 C0.99 0.33 1.98 0.66 3 1 C1.35 5.62 -0.3 10.24 -2 15 C-3.06396981 10.74412077 -2.77540332 9.32535515 -1.5625 5.25 C-1.27503906 4.26515625 -0.98757812 3.2803125 -0.69140625 2.265625 C-0.46324219 1.51796875 -0.23507813 0.7703125 0 0 Z " fill="#4C8A65" transform="translate(59,109)"/>
<path d="M0 0 C0.66 0.33 1.32 0.66 2 1 C0.66654496 4.59007126 -0.8943231 7.79570907 -3 11 C-3.33 11 -3.66 11 -4 11 C-4.56638908 6.18569279 -2.82561627 3.79692186 0 0 Z " fill="#5FBA84" transform="translate(140,136)"/>
<path d="M0 0 C0 0.66 0 1.32 0 2 C-6.435 3.98 -6.435 3.98 -13 6 C-13 5.34 -13 4.68 -13 4 C-11.39850114 3.32694982 -9.79368971 2.66177773 -8.1875 2 C-7.29417969 1.62875 -6.40085937 1.2575 -5.48046875 0.875 C-3 0 -3 0 0 0 Z " fill="#40A36C" transform="translate(118,33)"/>
<path d="M0 0 C0.66 0 1.32 0 2 0 C2.66 4.29 3.32 8.58 4 13 C3.01 13.495 3.01 13.495 2 14 C1.66576139 11.85430749 1.33263257 9.70844207 1 7.5625 C0.814375 6.36753906 0.62875 5.17257813 0.4375 3.94140625 C0 1 0 1 0 0 Z " fill="#489C68" transform="translate(131,186)"/>
<path d="M0 0 C0.99 0.33 1.98 0.66 3 1 C2.04578192 2.14926266 1.08647955 3.29430541 0.125 4.4375 C-0.40867188 5.07558594 -0.94234375 5.71367188 -1.4921875 6.37109375 C-3 8 -3 8 -5 9 C-4.42647107 5.12867972 -2.51295648 2.91827204 0 0 Z " fill="#437A5D" transform="translate(242,102)"/>
<path d="M0 0 C0.99 0.33 1.98 0.66 3 1 C2.67 1.99 2.34 2.98 2 4 C1.67 3.67 1.34 3.34 1 3 C0.34 5.31 -0.32 7.62 -1 10 C-3 7 -3 7 -2.625 4.3125 C-2.41875 3.549375 -2.2125 2.78625 -2 2 C-1.34 2 -0.68 2 0 2 C0 1.34 0 0.68 0 0 Z " fill="#2F905B" transform="translate(147,100)"/>
<path d="M0 0 C0.66 0.33 1.32 0.66 2 1 C0.73046875 2.49739583 -0.5390625 3.99479167 -1.80859375 5.4921875 C-3.0878152 7.00594079 -3.0878152 7.00594079 -4 9 C-4.99 8.67 -5.98 8.34 -7 8 C-5.61918777 3.8575633 -3.40174442 2.67796901 0 0 Z " fill="#2F9F60" transform="translate(234,84)"/>
<path d="M0 0 C-2.1413437 2.46254526 -3.69870394 3.69050349 -7 4 C-7.99 3.34 -8.98 2.68 -10 2 C-6.3558226 -0.4294516 -4.28758728 -0.16179575 0 0 Z " fill="#3A8D57" transform="translate(85,278)"/>
<path d="M0 0 C0.33 0.99 0.66 1.98 1 3 C-0.49739583 4.20442708 -1.99479167 5.40885417 -3.4921875 6.61328125 C-5.25292107 8.12270545 -5.25292107 8.12270545 -7 11 C-7 7 -7 7 -5.46875 5.078125 C-4.8190625 4.47484375 -4.169375 3.8715625 -3.5 3.25 C-2.8503125 2.63640625 -2.200625 2.0228125 -1.53125 1.390625 C-1.0259375 0.93171875 -0.520625 0.4728125 0 0 Z " fill="#52BA7C" transform="translate(87,201)"/>
<path d="M0 0 C0 0.66 0 1.32 0 2 C-1.47704212 3.25227484 -2.95827399 4.50166522 -4.4921875 5.68359375 C-6.26762944 7.11764091 -6.26762944 7.11764091 -8 10 C-8.66 10 -9.32 10 -10 10 C-8.50006099 6.10015857 -4.53875449 0 0 0 Z " fill="#53B87E" transform="translate(255,110)"/>
<path d="M0 0 C0.33 0.99 0.66 1.98 1 3 C-0.21484375 5.04296875 -0.21484375 5.04296875 -1.9375 7.1875 C-2.50339844 7.90292969 -3.06929688 8.61835938 -3.65234375 9.35546875 C-4.09707031 9.89816406 -4.54179687 10.44085938 -5 11 C-5.66 10.67 -6.32 10.34 -7 10 C-3.535 5.05 -3.535 5.05 0 0 Z " fill="#328F62" transform="translate(264,209)"/>
<path d="M0 0 C0.99 0.33 1.98 0.66 3 1 C2.34 3.31 1.68 5.62 1 8 C0.34 7.67 -0.32 7.34 -1 7 C-1 6.01 -1 5.02 -1 4 C-1.66 3.34 -2.32 2.68 -3 2 C-2.01 1.34 -1.02 0.68 0 0 Z " fill="#48AA73" transform="translate(167,169)"/>
<path d="M0 0 C2.97 0.33 5.94 0.66 9 1 C9 1.99 9 2.98 9 4 C9.99 4.33 10.98 4.66 12 5 C11.01 5.495 11.01 5.495 10 6 C7.6171875 5.00390625 7.6171875 5.00390625 4.875 3.5625 C3.96492187 3.08941406 3.05484375 2.61632813 2.1171875 2.12890625 C1.41851562 1.75636719 0.71984375 1.38382813 0 1 C0 0.67 0 0.34 0 0 Z " fill="#43A56D" transform="translate(202,56)"/>
<path d="M0 0 C0.66 0 1.32 0 2 0 C3.04976964 3.14930893 3.10131595 5.38814456 3.0625 8.6875 C3.05347656 9.68136719 3.04445312 10.67523438 3.03515625 11.69921875 C3.02355469 12.45847656 3.01195312 13.21773437 3 14 C2.67 14 2.34 14 2 14 C1.93941406 13.40832031 1.87882813 12.81664062 1.81640625 12.20703125 C1.37987629 8.09021792 0.91328654 4.04455467 0 0 Z " fill="#457960" transform="translate(169,182)"/>
<path d="M0 0 C0.99 0.99 1.98 1.98 3 3 C2.67 3.66 2.34 4.32 2 5 C-0.64 4.67 -3.28 4.34 -6 4 C-5.34 3.34 -4.68 2.68 -4 2 C-3.34 2.33 -2.68 2.66 -2 3 C-2 2.34 -2 1.68 -2 1 C-1.34 0.67 -0.68 0.34 0 0 Z " fill="#30865C" transform="translate(271,93)"/>
<path d="M0 0 C1.0326802 2.78823655 1.04509293 3.8677274 0.0625 6.75 C-0.288125 7.4925 -0.63875 8.235 -1 9 C-2.38111722 6.7252187 -3.05694702 5.49828639 -2.75 2.8125 C-2 1 -2 1 0 0 Z " fill="#2D9C5F" transform="translate(211,128)"/>
<path d="M0 0 C0 3 0 3 -2 5.1875 C-2.66 5.785625 -3.32 6.38375 -4 7 C-5.32 6.34 -6.64 5.68 -8 5 C-7.05125 4.54625 -6.1025 4.0925 -5.125 3.625 C-1.99686321 2.19761746 -1.99686321 2.19761746 0 0 Z " fill="#4E9267" transform="translate(184,128)"/>
<path d="M0 0 C-0.33 0.66 -0.66 1.32 -1 2 C-3.28515625 2.4140625 -3.28515625 2.4140625 -6.0625 2.625 C-7.44115234 2.73714844 -7.44115234 2.73714844 -8.84765625 2.8515625 C-9.55792969 2.90054687 -10.26820313 2.94953125 -11 3 C-11.33 2.34 -11.66 1.68 -12 1 C-7.93631321 0.22596442 -4.13574827 -0.0984702 0 0 Z " fill="#3A8D5F" transform="translate(141,27)"/>
<path d="M0 0 C0.33 0.99 0.66 1.98 1 3 C-0.32 4.32 -1.64 5.64 -3 7 C-3.99 6.67 -4.98 6.34 -6 6 C-4.02 4.02 -2.04 2.04 0 0 Z " fill="#32644C" transform="translate(84,186)"/>
<path d="M0 0 C0.66 0.33 1.32 0.66 2 1 C1.67 1.66 1.34 2.32 1 3 C1.66 3.33 2.32 3.66 3 4 C1.35 4.66 -0.3 5.32 -2 6 C-2.33 5.01 -2.66 4.02 -3 3 C-2.01 2.01 -1.02 1.02 0 0 Z " fill="#41A86F" transform="translate(184,153)"/>
<path d="M0 0 C6.4 -0.36923077 6.4 -0.36923077 9.4375 1.5 C9.953125 1.995 10.46875 2.49 11 3 C9.54077307 2.88590407 8.08259402 2.75834456 6.625 2.625 C5.40683594 2.52058594 5.40683594 2.52058594 4.1640625 2.4140625 C2 2 2 2 0 0 Z " fill="#4D8467" transform="translate(170,49)"/>
<path d="M0 0 C-3.22791555 2.1519437 -4.28400809 2.20086443 -8 2 C-8 1.34 -8 0.68 -8 0 C-4.71023192 -1.09658936 -3.28696233 -0.79953138 0 0 Z " fill="#318F60" transform="translate(204,259)"/>
<path d="M0 0 C1.32 0.33 2.64 0.66 4 1 C4.33 2.65 4.66 4.3 5 6 C4.01 6 3.02 6 2 6 C1.34 4.02 0.68 2.04 0 0 Z " fill="#5DA175" transform="translate(173,130)"/>
</svg>
