<?xml version="1.0" encoding="UTF-8"?>
<svg version="1.1" xmlns="http://www.w3.org/2000/svg" width="1322" height="1322">
<path d="M0 0 C0.7409856 -0.00480251 1.48197121 -0.00960503 2.24541092 -0.01455307 C7.8602153 -0.0503778 13.4749376 -0.06606709 19.08984375 -0.07421875 C19.91417027 -0.0758112 20.73849678 -0.07740364 21.58780289 -0.07904434 C48.23629738 -0.12276541 74.52793441 0.74280658 101.00640869 3.99481201 C103.92046921 4.34587925 106.83905436 4.65173367 109.7578125 4.9609375 C169.0894145 11.57758664 228.41618869 29.55212368 283.02734375 53.23828125 C283.94902344 53.63756836 284.87070312 54.03685547 285.8203125 54.44824219 C291.59349703 56.96582228 297.3182958 59.57888758 303.02734375 62.23828125 C303.98527832 62.68107422 304.94321289 63.12386719 305.93017578 63.58007812 C320.30467144 70.24717361 334.26190333 77.43575656 347.94189453 85.43432617 C350.24271571 86.77953646 352.54844541 88.11415691 354.85888672 89.44262695 C364.76542388 95.16771997 374.3676015 101.26587907 383.86669922 107.64233398 C386.15448209 109.17721587 388.44793364 110.7033277 390.7421875 112.22851562 C417.7562504 130.25041815 443.32340199 150.46012212 467.11328125 172.5703125 C468.61216308 173.94261316 470.1145221 175.31239391 471.6628418 176.62866211 C478.18033678 182.17264688 484.17343439 188.23348431 490.20922852 194.28979492 C492.0856385 196.17156399 493.96733344 198.04792863 495.84960938 199.92382812 C501.78946992 205.86039421 507.60202543 211.82133365 513.02734375 218.23828125 C514.48179892 219.84596498 515.9395527 221.4506784 517.40234375 223.05078125 C521.22648853 227.29268975 524.8762383 231.64379222 528.46484375 236.0859375 C530.35755288 238.42688006 532.2798455 240.74077337 534.21484375 243.046875 C591.08287952 311.00482251 633.03153421 392.78683003 682.23046875 641.25 C682.23749155 642.74085011 682.24457836 644.23169992 682.25172424 645.72254944 C682.27111066 650.45696449 682.27615794 655.1913305 682.27734375 659.92578125 C682.27778561 660.73233658 682.27822746 661.53889191 682.27868271 662.36988831 C682.28539748 685.73976783 682.1795338 708.97583549 679.28057861 732.20111084 C679.01441584 734.34228097 678.76026122 736.48467095 678.50732422 738.62744141 C668.63518765 821.2633635 643.80530247 902.33741234 598.02734375 986.23828125 C597.57584961 987.04813477 597.12435547 987.85798828 596.65917969 988.69238281 C581.12997509 1016.45739492 562.976827 1043.46478454 543.02734375 1068.23828125 C542.45773926 1068.95371094 541.88813477 1069.66914062 541.30126953 1070.40625 C530.96876297 1083.38319275 520.19377994 1095.97264721 509.02734375 1108.23828125 C508.24327148 1109.10718994 507.45919922 1109.97609863 506.65136719 1110.87133789 C500.12698143 1118.06015285 493.40582911 1125.01614532 486.52856445 1131.86743164 C484.82710597 1133.56347851 483.13113112 1135.26487946 481.43554688 1136.96679688 C475.79950108 1142.60627863 470.0978991 1148.06336698 464.02734375 1153.23828125 C462.25164154 1154.85795942 460.48026068 1156.48239843 458.71484375 1158.11328125 C454.28103064 1162.15230278 449.74679791 1166.01335003 445.078125 1169.77734375 C442.85445701 1171.57108361 440.64535897 1173.37700508 438.4453125 1175.19921875 C409.73024265 1198.91607746 378.32898143 1219.73298038 346.02734375 1238.23828125 C344.73135254 1238.98440674 344.73135254 1238.98440674 343.40917969 1239.74560547 C330.27327235 1247.26587463 316.76405452 1253.89321906 303.02734375 1260.23828125 C301.92245605 1260.75148926 300.81756836 1261.26469727 299.67919922 1261.79345703 C240.15318462 1289.33984729 177.1003543 1308.28012915 112.02734375 1316.98828125 C111.32631531 1317.0835611 110.62528687 1317.17884094 109.90301514 1317.27700806 C104.28764981 1318.02846705 98.66243853 1318.6544266 93.02734375 1319.23828125 C91.21299835 1319.42730515 91.21299835 1319.42730515 89.36199951 1319.62014771 C67.55788021 1321.85230109 45.92256369 1322.77616355 24.00918961 1322.685112 C21.60226454 1322.67558299 19.19536143 1322.67077451 16.78842163 1322.66656494 C-9.29557083 1322.60512267 -35.08381965 1321.63684555 -60.97265625 1318.23828125 C-61.80106018 1318.13173218 -62.62946411 1318.02518311 -63.48297119 1317.91540527 C-132.45604502 1309.003725 -199.24692923 1289.44712991 -262.04296875 1259.62304688 C-264.83405385 1258.30379399 -267.63525472 1257.00948882 -270.44140625 1255.72265625 C-282.7106715 1250.05694174 -294.4690977 1243.67125411 -306.14794922 1236.87646484 C-308.83161288 1235.32007909 -311.52725735 1233.78686052 -314.2265625 1232.2578125 C-325.4408696 1225.84080661 -336.2191065 1218.85743352 -346.91015625 1211.61328125 C-347.55065918 1211.17983398 -348.19116211 1210.74638672 -348.85107422 1210.29980469 C-366.48178184 1198.3404818 -383.67447244 1185.74582 -399.859375 1171.8828125 C-402.66444311 1169.48500128 -405.5296876 1167.1701866 -408.41015625 1164.86328125 C-413.42440649 1160.78737023 -418.15307912 1156.44975331 -422.85131836 1152.01806641 C-425.68758329 1149.34448001 -428.55026125 1146.73633737 -431.51953125 1144.2109375 C-437.33386478 1139.1531729 -442.71743202 1133.64235806 -448.15454102 1128.18676758 C-450.030951 1126.30499851 -451.91264594 1124.42863387 -453.79492188 1122.55273438 C-459.73573131 1116.61522014 -465.53571518 1110.64634647 -470.97265625 1104.23828125 C-472.59233442 1102.46257904 -474.21677343 1100.69119818 -475.84765625 1098.92578125 C-479.88667778 1094.49196814 -483.74772503 1089.95773541 -487.51171875 1085.2890625 C-489.30545861 1083.06539451 -491.11138008 1080.85629647 -492.93359375 1078.65625 C-514.19021698 1052.90598511 -533.17084818 1025.08588497 -549.97265625 996.23828125 C-550.41399902 995.48562988 -550.8553418 994.73297852 -551.31005859 993.95751953 C-597.84022327 914.43990867 -626.72816442 825.73914173 -636.97265625 734.23828125 C-637.1221875 733.00899902 -637.27171875 731.7797168 -637.42578125 730.51318359 C-642.91520612 684.16658459 -642.60580898 634.54789563 -636.97265625 588.23828125 C-636.8334375 586.99481934 -636.69421875 585.75135742 -636.55078125 584.47021484 C-625.69649549 487.9499863 -592.88910226 393.95201838 -529.97265625 294.23828125 C-529.4523584 293.45388672 -528.93206055 292.66949219 -528.39599609 291.86132812 C-515.97896361 273.19130856 -502.29348415 255.4814399 -487.97265625 238.23828125 C-487.49489746 237.66142578 -487.01713867 237.08457031 -486.52490234 236.49023438 C-480.3934364 229.10455687 -474.05188568 221.95573502 -467.51635742 214.92553711 C-466.36910587 213.67159824 -465.23601652 212.40467204 -464.1105957 211.13110352 C-458.04566537 204.28342181 -451.67454607 197.78666452 -445.19750977 191.33276367 C-443.40589675 189.54653455 -441.6197257 187.75498778 -439.83398438 185.96289062 C-434.0470922 180.17263611 -428.21182542 174.54459475 -421.97265625 169.23828125 C-420.19695404 167.61860308 -418.42557318 165.99416407 -416.66015625 164.36328125 C-411.26111062 159.44084102 -405.65872128 154.82277243 -399.97265625 150.23828125 C-398.18054226 148.75965658 -396.38887824 147.28048637 -394.59765625 145.80078125 C-388.48972909 140.81278431 -382.27933521 135.97124541 -375.97265625 131.23828125 C-375.35664551 130.77502441 -374.74063477 130.31176758 -374.10595703 129.83447266 C-314.5719211 85.32989916 -247.6472091 51.88927427 -176.97265625 29.23828125 C-176.33169006 29.03201111 -175.69072388 28.82574097 -175.03033447 28.61322021 C-130.95627065 14.4798676 -85.27282084 6.21697326 -39.25390625 2.03515625 C-38.16006622 1.93553085 -38.16006622 1.93553085 -37.04412842 1.83389282 C-34.68770683 1.62531789 -32.330506 1.43005122 -29.97265625 1.23828125 C-28.93907486 1.15133499 -27.90549347 1.06438873 -26.84059143 0.97480774 C-17.89137363 0.2706458 -8.97206563 0.04527862 0 0 Z " fill="#FEFEFE" transform="translate(639.97265625,-0.23828125)"/>
<path d="M0 0 C1.72706177 0.00845947 1.72706177 0.00845947 3.48901367 0.01708984 C17.51292465 0.2165147 28.84380238 2.80591662 41.375 9.3125 C42.29796875 9.74175781 43.2209375 10.17101562 44.171875 10.61328125 C52.55768865 14.72136048 58.84688827 20.76891881 65.375 27.3125 C66.14070313 28.06660156 66.90640625 28.82070313 67.6953125 29.59765625 C84.32989464 47.04765909 89.90493364 70.11837892 89.58984375 93.5234375 C88.83659425 117.16892191 77.10663595 137.83193475 60.59765625 154.0390625 C49.35936491 163.99782272 35.93526262 170.74148708 21.375 174.3125 C20.60929687 174.53550781 19.84359375 174.75851562 19.0546875 174.98828125 C-1.95655891 180.36921021 -25.48046544 175.02145576 -43.9375 164.4375 C-62.1301684 152.85211913 -75.77241125 136.87026625 -82.625 116.3125 C-165.45608672 109.71746335 -248.33277036 104.85828614 -357.06247457 101.38970949 C-359.62046183 101.31263674 -362.17839913 101.23407827 -364.73632556 101.15501392 C-446.1782869 98.6409689 -528.36570502 97.20951234 -776.51748657 185.42987061 C-793.16894563 201.12205902 -808.06887434 218.2648386 -822.5625 235.9375 C-823.75152646 237.37993375 -824.94067967 238.82226303 -826.12995911 240.26448822 C-852.18195421 271.93257547 -876.17148428 304.84379169 -896.76603699 340.33503723 C-897.37753037 341.37753612 -897.98902374 342.42003501 -898.61904722 343.49412477 C-899.73338451 345.40377005 -900.83023745 347.323795 -901.90412086 349.25647891 C-906.39713437 356.97082591 -912.19525893 361.36889821 -920.625 364.3125 C-923.45600259 364.51478443 -926.18957171 364.61648379 -929.02026367 364.61889648 C-929.85349152 364.62722 -930.68671936 364.63554352 -931.54519653 364.64411926 C-934.29450181 364.66817428 -937.04356945 364.67698713 -939.79296875 364.68359375 C-941.71242847 364.69256554 -943.6318875 364.70168749 -945.55134583 364.71095276 C-949.57534481 364.72743454 -953.59926069 364.73514104 -957.62329102 364.73803711 C-962.76005579 364.74341114 -967.89603055 364.78105425 -973.03257275 364.82678127 C-976.99877209 364.85664419 -980.96478363 364.86376272 -984.93108559 364.86476326 C-986.82358723 364.86894948 -988.71609027 364.88131905 -990.60848045 364.90228081 C-1011.53314337 365.11555659 -1011.53314337 365.11555659 -1019.74479675 357.29319763 C-1026.23672663 350.44235191 -1028.2237526 344.09323866 -1028.17578125 334.78979492 C-1027.90778611 327.02882307 -1025.35045771 321.83475093 -1019.69140625 316.484375 C-1017.71278298 314.89530524 -1015.83606108 313.55986486 -1013.625 312.3125 C-1012.24708644 311.48930834 -1012.24708644 311.48930834 -1010.84133625 310.64948654 C-1005.09134861 308.22880626 -998.93441867 309.90784054 -992.94096375 310.66680908 C-966.98687985 313.30535817 -941.59240053 314.3122728 -920.28376276 297.37648091 C-907.08187492 286.51612 -895.34293459 273.87446498 -883.76747109 261.336735 C-877.36455487 254.41686226 -870.75896498 247.70408081 -864.13862809 240.99303535 C-852.33808198 229.02091132 -840.69442997 216.90814316 -829.14819336 204.69091797 C-817.9773494 192.87165617 -806.74182507 181.12059645 -795.40991211 169.45556641 C-794.70785414 168.73281622 -794.00579616 168.01006603 -793.28246371 167.26541433 C-789.05835882 162.91804644 -784.83155695 158.57330852 -780.60374059 154.2295503 C-774.44532651 147.90185807 -768.2901882 141.57098514 -762.13761902 135.23760986 C-761.47558742 134.55628051 -760.81355582 133.87495115 -760.13146266 133.17297545 C-751.00525351 123.77769762 -741.9294458 114.3362659 -732.89548452 104.85227782 C-731.06072485 102.927098 -729.22422605 101.00359583 -727.38699377 99.08077574 C-726.49934469 98.15173839 -726.49934469 98.15173839 -725.59376331 97.20393261 C-724.42070479 95.97628887 -723.24756605 94.74872178 -722.0743439 93.52123442 C-718.73578141 90.02594154 -715.40960483 86.51942712 -712.09278702 83.00350015 C-710.0719595 80.86682641 -708.04008825 78.74090557 -706.00514206 76.61768261 C-704.64532592 75.19189307 -703.29943207 73.75286468 -701.95419532 72.31331134 C-701.13037193 71.45750767 -700.30654854 70.601704 -699.45776081 69.71996689 C-698.76078471 68.98423124 -698.0638086 68.24849559 -697.34571201 67.49046493 C-690.01455081 61.62177617 -683.27786033 59.56745447 -673.99286461 59.69726086 C-672.45095551 59.68860702 -672.45095551 59.68860702 -670.87789673 59.67977837 C-667.4409211 59.66656663 -664.00512188 59.68895406 -660.56820679 59.71122742 C-658.07644363 59.70904644 -655.58468159 59.70466745 -653.09292567 59.69828159 C-647.6794662 59.68943687 -642.26636936 59.69608389 -636.85294724 59.71647263 C-628.80354293 59.7467049 -620.75431153 59.74814639 -612.7048608 59.74376268 C-599.16310592 59.73719967 -585.62147321 59.75387546 -572.07975388 59.78384972 C-558.67404958 59.81344677 -545.26839618 59.83268185 -531.86265945 59.83811378 C-531.02876609 59.83845748 -530.19487272 59.83880118 -529.33570986 59.83915529 C-525.10069246 59.84084699 -520.86567501 59.8423539 -516.63065751 59.84378967 C-486.64322273 59.85428844 -456.65585439 59.88796603 -426.66845703 59.93530273 C-397.53825229 59.9812332 -368.40806574 60.01664719 -339.27783203 60.0378418 C-338.37972563 60.03849943 -337.48161924 60.03915706 -336.55629749 60.03983462 C-327.53704707 60.04642728 -318.51779651 60.05280634 -309.49854583 60.05902891 C-291.12570805 60.07170958 -272.75287145 60.08581584 -254.3800354 60.1007843 C-253.53530397 60.10147075 -252.69057254 60.1021572 -251.82024318 60.10286445 C-195.42180093 60.14885863 -139.02339637 60.22818764 -82.625 60.3125 C-82.42420837 59.69725464 -82.22341675 59.08200928 -82.01654053 58.44812012 C-81.75036926 57.63959595 -81.484198 56.83107178 -81.20996094 55.99804688 C-80.94729431 55.19717651 -80.68462769 54.39630615 -80.41400146 53.57116699 C-77.48627572 45.18999432 -72.26154744 38.06135946 -66.625 31.3125 C-65.86123047 30.33023438 -65.86123047 30.33023438 -65.08203125 29.328125 C-54.34985469 16.0785243 -37.96951719 6.73719696 -21.625 2.3125 C-20.99086182 2.13549561 -20.35672363 1.95849121 -19.70336914 1.77612305 C-13.13182284 0.12165441 -6.75344182 -0.0344488 0 0 Z " fill="#2D3640" transform="translate(1197.625,569.6875)"/>
<path d="M0 0 C1.29421875 -0.01611328 2.5884375 -0.03222656 3.921875 -0.04882812 C28.22850738 -0.06107945 48.26560002 10.5663104 65.25 27.3125 C65.99378906 28.04339844 66.73757813 28.77429688 67.50390625 29.52734375 C76.57299377 39.05787212 82.07021081 50.9770246 86.25 63.3125 C86.60191406 64.34503906 86.60191406 64.34503906 86.9609375 65.3984375 C93.68196667 86.9252121 88.71573899 111.33825777 78.5300293 130.81054688 C74.16757074 138.70986623 68.63845949 145.00676876 62.25 151.3125 C61.13818359 152.42238281 61.13818359 152.42238281 60.00390625 153.5546875 C50.6225005 162.40247201 39.48329676 168.40502485 27.25 172.3125 C26.10736694 172.70199829 26.10736694 172.70199829 24.94165039 173.09936523 C17.59731832 175.39357522 10.61477594 175.80810245 2.94458008 175.75854492 C0.95062632 175.75005588 -1.04336886 175.7801754 -3.03710938 175.81054688 C-25.84814452 175.79927103 -45.80030555 165.69275191 -61.9921875 150.1015625 C-70.1559236 141.84531947 -76.68793039 132.73066586 -80.33276367 121.62915039 C-80.59925217 120.82030899 -80.86574066 120.01146759 -81.14030457 119.17811584 C-81.34150406 118.56246262 -81.54270355 117.94680939 -81.75 117.3125 C-133.26624496 110.86289243 -133.26624496 110.86289243 -179.89202516 128.98235207 C-192.94932071 139.36772495 -204.38594164 151.78310314 -215.58517765 164.0952404 C-221.76094975 170.86675375 -228.17311288 177.39581054 -234.60251547 183.92543487 C-246.06010707 195.57324058 -257.33327472 207.38281511 -268.49316406 219.31567383 C-279.28280153 230.85177004 -290.15019504 242.30479455 -301.1328125 253.6574707 C-301.81405854 254.36173351 -302.49530458 255.06599632 -303.19719444 255.79160043 C-307.29671627 260.02823872 -311.39929261 264.26190994 -315.50265893 268.49482428 C-321.4797237 274.66185978 -327.45104513 280.83444778 -333.41921997 287.01008606 C-334.06138463 287.6744472 -334.70354928 288.33880834 -335.36517347 289.02330164 C-344.20771144 298.17524989 -352.99696642 307.37552123 -361.73845491 316.62401907 C-363.51239493 318.50044403 -365.28766158 320.37560407 -367.06336713 322.25035822 C-368.21179728 323.46311904 -369.36019537 324.67591022 -370.50856018 325.88873291 C-371.06616855 326.47762205 -371.62377693 327.06651119 -372.19828252 327.67324545 C-375.42181715 331.08008352 -378.63461029 334.49663149 -381.83923613 337.92125673 C-383.79258815 340.00432021 -385.7550664 342.07861773 -387.71992482 344.1508253 C-389.03103017 345.53955379 -390.33036545 346.93936609 -391.62912643 348.33964604 C-399.63202073 356.75221498 -408.29122303 363.21007982 -420.20803452 363.56976891 C-422.45373486 363.58337072 -424.69951795 363.58592916 -426.94525146 363.57992554 C-428.80445768 363.58672221 -428.80445768 363.58672221 -430.70122361 363.59365618 C-434.13450933 363.6041187 -437.56758539 363.60562735 -441.00087214 363.60326743 C-444.70652926 363.60285892 -448.41215527 363.61390177 -452.11779785 363.62338257 C-459.37547176 363.63998638 -466.63311318 363.64549185 -473.8908045 363.64660732 C-479.79161047 363.64755815 -485.69240573 363.65167019 -491.59320831 363.65800858 C-508.32971686 363.6756198 -525.06619977 363.68484771 -541.80271766 363.68334763 C-543.15575816 363.68322776 -543.15575816 363.68322776 -544.53613281 363.68310547 C-545.43926359 363.68302371 -546.34239437 363.68294195 -547.27289274 363.68285771 C-561.90601579 363.68204498 -576.53903586 363.70117948 -591.17212912 363.7293822 C-606.20379966 363.75812406 -621.23541999 363.77192176 -636.26711869 363.77019465 C-644.70363352 363.76953117 -653.14004041 363.77500508 -661.57653046 363.79655075 C-668.76029552 363.81477976 -675.94390373 363.81909586 -683.12768194 363.8055319 C-686.79075432 363.79901069 -690.45352592 363.79885399 -694.11656952 363.8162384 C-698.09345617 363.83491759 -702.06990581 363.82239227 -706.04681396 363.80697632 C-707.19644111 363.81726344 -708.34606826 363.82755057 -709.5305326 363.83814943 C-719.53635821 363.75255354 -727.68393056 361.32901141 -734.98828125 354.26171875 C-741.07118433 347.53141135 -742.51873136 341.54975143 -742.41015625 332.62817383 C-742.00379151 324.97751098 -739.39804039 319.76155637 -733.81640625 314.484375 C-729.39340217 310.93217679 -724.32176705 307.31532216 -718.46925437 307.31069791 C-715.76519549 307.61850135 -713.10495299 308.04510451 -710.42430115 308.51530457 C-708.28090872 308.85156628 -706.13736736 309.18687968 -703.99370193 309.52139664 C-702.84960562 309.70660008 -701.70550931 309.89180352 -700.52674341 310.08261919 C-694.20058811 311.09213723 -687.86042285 312.0028312 -681.51689148 312.89573669 C-680.84035474 312.99101537 -680.163818 313.08629404 -679.46678014 313.18445994 C-649.51367246 317.37183898 -619.36745892 319.69910532 -589.1875 321.5 C-587.96491678 321.57466983 -587.96491678 321.57466983 -586.71763492 321.65084815 C-501.57364095 326.83628656 -431.09632308 319.43597791 -365.25708199 261.20115089 C-339.36150077 238.06409947 -315.34497638 213.24531459 -292 187.5625 C-290.69653874 186.13155488 -289.39306222 184.70062364 -288.08957052 183.26970625 C-259.29733271 151.62626192 -231.33478886 119.28467594 -204.88242288 85.65206527 C-203.63280387 84.06473297 -202.37791496 82.48155386 -201.12290448 80.89848083 C-199.62120798 79.00174433 -198.12951171 77.09702233 -196.65064508 75.18243223 C-190.69134398 67.66873468 -184.42384556 62.66906352 -174.75 61.3125 C-171.65898785 61.05364765 -168.58916442 61.00179982 -165.48828125 60.99365234 C-164.59953812 60.98360672 -163.71079498 60.9735611 -162.79512024 60.96321106 C-159.88425286 60.93254586 -156.97347674 60.91539056 -154.0625 60.8984375 C-152.03368351 60.87971243 -150.0048747 60.86013803 -147.97607422 60.8397522 C-142.65627584 60.78856648 -137.33645224 60.74886835 -132.01654053 60.71160889 C-126.5799747 60.67148401 -121.14351252 60.62043046 -115.70703125 60.5703125 C-105.05476046 60.47371386 -94.40243095 60.38925792 -83.75 60.3125 C-83.41135925 59.48875885 -83.07271851 58.6650177 -82.72381592 57.8163147 C-82.05373505 56.19528336 -82.05373505 56.19528336 -81.37011719 54.54150391 C-80.92835144 53.47026276 -80.48658569 52.39902161 -80.03143311 51.2953186 C-75.76341936 41.36057387 -69.35730306 32.932567 -61.75 25.3125 C-61.00234375 24.55324219 -60.2546875 23.79398438 -59.484375 23.01171875 C-48.99352452 12.95509222 -36.63534626 6.3848807 -22.75 2.3125 C-21.02330078 1.76335937 -21.02330078 1.76335937 -19.26171875 1.203125 C-12.95963797 -0.32773567 -6.44366674 -0.01585548 0 0 Z " fill="#2E3741" transform="translate(911.75,76.6875)"/>
<path d="M0 0 C1.75680156 -0.00202457 3.5136023 -0.00493918 5.270401 -0.00869751 C8.94101004 -0.01310402 12.61139909 -0.00674479 16.28198242 0.00732422 C20.96334605 0.02440244 25.64419303 0.01457295 30.32553768 -0.00339317 C33.95032063 -0.01428725 37.5749832 -0.01075879 41.19976997 -0.0030098 C42.92477036 -0.00102264 44.64978203 -0.00341428 46.37476921 -0.01044846 C61.91780668 -0.05992753 71.7538412 1.5756126 83.28518748 12.61163497 C85.78128145 15.14782847 88.2346568 17.71929261 90.67745972 20.30685425 C91.62270072 21.29858567 92.56856561 22.28972275 93.51499283 23.28032219 C95.55869003 25.42125411 97.59892642 27.56540525 99.63652611 29.71214104 C104.71300465 35.05926206 109.80986239 40.38693166 114.90587631 45.71542659 C116.11843861 46.98336894 117.33080223 48.25150131 118.54297456 49.51981649 C128.09448475 59.51259178 137.69481639 69.45662123 147.33255005 79.36624146 C147.98736354 80.03959018 148.64217704 80.7129389 149.31683336 81.40669213 C156.0879041 88.36806529 162.86493531 95.32361027 169.64629846 102.27495664 C173.12660254 105.84307299 176.60529689 109.41275467 180.08300781 112.98339844 C180.77510043 113.69393455 181.46719305 114.40447066 182.18025817 115.13653816 C193.32738269 126.58761426 204.3549521 138.14734169 215.342131 149.75172578 C226.68139513 161.722357 238.14819825 173.5598143 249.73588383 185.29016507 C256.21790008 191.85931367 262.63178935 198.47268925 268.90200424 205.24483871 C301.11088354 240.58135101 301.11088354 240.58135101 345.57494094 253.22008719 C359.43756078 253.54333456 373.26278813 252.39346515 386.97265625 250.3984375 C387.17385574 249.78278427 387.37505524 249.16713104 387.58235168 248.53282166 C387.84884018 247.72398026 388.11532867 246.91513885 388.38989258 246.08178711 C388.65296707 245.28050888 388.91604156 244.47923065 389.18708801 243.65367126 C396.2488058 223.38067187 414.20073593 207.82920893 432.859375 198.390625 C452.6452504 188.87167226 477.04024215 186.81508874 497.93994141 194.08251953 C523.20000577 203.54817786 540.64348716 220.36546624 552.48046875 244.46875 C561.69270174 265.15490192 561.20341952 287.24157091 553.97265625 308.3984375 C553.58851563 309.52894531 553.204375 310.65945313 552.80859375 311.82421875 C548.30866616 323.62504928 540.75596724 333.44797007 531.97265625 342.3984375 C531.31007813 343.08550781 530.6475 343.77257813 529.96484375 344.48046875 C513.14406716 360.69365075 490.28736395 366.94333344 467.48242188 366.67919922 C443.45009308 366.08412138 422.01779747 356.11737206 405.35058594 338.88183594 C397.34036884 330.25850513 389.60005259 318.035873 386.97265625 306.3984375 C385.45288177 306.418423 385.45288177 306.418423 383.90240479 306.43881226 C374.31136246 306.5609261 364.72047973 306.65061603 355.12883377 306.70931053 C350.19867573 306.74050175 345.26914981 306.78274876 340.33935547 306.85107422 C335.57360453 306.91670583 330.80845805 306.95223515 326.04228973 306.96770096 C324.23232266 306.9787093 322.42238524 307.00020475 320.61267853 307.03281784 C318.05911639 307.07696758 315.50798934 307.08234791 312.95410156 307.07958984 C312.22113358 307.1011615 311.48816559 307.12273315 310.73298645 307.1449585 C301.50164155 307.03844973 293.37329682 302.12935039 286.87818241 295.85230541 C285.14585235 294.05748053 283.43088369 292.24578739 281.73072815 290.42045593 C280.76458319 289.40811758 279.79689833 288.39724705 278.82783169 287.38770515 C276.73952351 285.20624229 274.66155266 283.01558113 272.59120941 280.81706238 C269.21935944 277.23712032 265.82450279 273.67954201 262.42570496 270.12519836 C258.75944161 266.28949107 255.0943375 262.45272689 251.4362613 258.60920846 C242.33883012 249.05303096 233.18158394 239.55692269 223.98728943 230.09394836 C222.98542449 229.06251894 222.98542449 229.06251894 221.96331985 228.01025256 C216.46313366 222.34821505 210.96041057 216.68864534 205.45630749 211.03041552 C200.50488852 205.94028641 195.55563415 200.84806606 190.60961914 195.75268555 C189.90479457 195.02663086 189.19997001 194.30057618 188.47378712 193.55251984 C177.12033567 181.85015698 165.88418448 170.04109938 154.68605352 158.19025769 C143.12666668 145.96308078 131.43533625 133.87334255 119.62075943 121.89254504 C113.01268442 115.18368451 106.4759983 108.42886702 100.0890522 101.50858116 C68.27017527 66.19729189 68.27017527 66.19729189 24.3944208 52.76449353 C12.54595515 52.3624691 0.62494577 53.09819747 -11.1246773 54.64545548 C-18.55538173 55.57984735 -22.73197641 55.6410933 -29.02734375 51.3984375 C-31.77734375 48.9609375 -31.77734375 48.9609375 -34.02734375 46.3984375 C-34.72859375 45.6559375 -35.42984375 44.9134375 -36.15234375 44.1484375 C-40.81292984 37.31291124 -42.21422301 29.55679204 -41.02734375 21.3984375 C-38.67272282 13.70895078 -33.80838189 7.69111223 -27.02734375 3.3984375 C-18.28236888 -0.50637681 -9.38313532 -0.03821074 0 0 Z " fill="#2D3640" transform="translate(442.02734375,878.6015625)"/>
<path d="M0 0 C0.83144531 0.6909375 1.66289063 1.381875 2.51953125 2.09375 C3.38191406 2.8053125 4.24429687 3.516875 5.1328125 4.25 C22.00860685 18.79544945 33.09563589 38.84063837 35.51953125 61.09375 C36.31758251 72.69930907 36.07995643 83.93870821 32.51953125 95.09375 C32.17921875 96.22941406 31.83890625 97.36507812 31.48828125 98.53515625 C24.13577369 121.16398864 7.65625156 139.72330239 -13.41796875 150.53125 C-20.83983981 154.16449798 -28.41457266 156.35481747 -36.48046875 158.09375 C-37.2701001 158.2680957 -38.05973145 158.44244141 -38.87329102 158.62207031 C-61.52798909 162.7206635 -83.95023189 156.5514079 -102.80078125 143.984375 C-118.56447636 132.86246766 -130.31651484 118.58561173 -136.48046875 100.09375 C-137.16436169 100.09315291 -137.84825462 100.09255582 -138.55287158 100.09194064 C-179.09498016 100.05603887 -219.63701358 99.99938787 -260.1790533 99.91582905 C-265.0480795 99.90581171 -269.91710604 99.89596756 -274.78613281 99.88623047 C-276.24012286 99.88331841 -276.24012286 99.88331841 -277.72348644 99.88034752 C-293.41422034 99.84933493 -309.10493962 99.83234893 -324.79569839 99.82055578 C-340.89846508 99.80814039 -357.00115509 99.78063019 -373.10387337 99.73913693 C-383.03838803 99.71401269 -392.97277549 99.70063194 -402.90732236 99.70232043 C-409.72182059 99.70235021 -416.53618935 99.68770443 -423.35063712 99.66158572 C-427.2809741 99.64695263 -431.21104557 99.6387257 -435.14140511 99.64794731 C-438.7442888 99.65625735 -442.34663992 99.64601689 -445.94944479 99.62141338 C-447.86074919 99.61307618 -449.77210848 99.62424251 -451.68339336 99.63624835 C-461.94665591 99.53426208 -470.20752713 97.31041968 -477.71875 90.04296875 C-483.80165308 83.31266135 -485.24920011 77.33100143 -485.140625 68.40942383 C-484.73426026 60.75876098 -482.12850914 55.54280637 -476.546875 50.265625 C-468.06644309 43.45482978 -460.86166663 42.65873979 -450.22450256 42.73298645 C-448.86964962 42.73167722 -447.51479741 42.72904863 -446.15994924 42.72521895 C-442.44735213 42.71852508 -438.73501568 42.73049136 -435.02245176 42.74555314 C-431.0150393 42.75852517 -427.00764118 42.75412321 -423.00021362 42.75184631 C-416.0605376 42.75027432 -409.12094629 42.75967582 -402.18129158 42.77655983 C-392.14776636 42.80095524 -382.11428204 42.80875566 -372.08073037 42.8125238 C-355.80143701 42.81908743 -339.52218878 42.83904621 -323.24291992 42.86743164 C-307.43042222 42.89497449 -291.61793678 42.91620697 -275.80541992 42.92895508 C-274.83051143 42.92974325 -273.85560294 42.93053142 -272.85115177 42.93134347 C-267.96025499 42.93525863 -263.06935812 42.93904974 -258.17846119 42.94277918 C-217.61243232 42.97387234 -177.04645312 43.02670575 -136.48046875 43.09375 C-136.27967712 42.47850464 -136.0788855 41.86325928 -135.87200928 41.22937012 C-135.47275238 40.01658386 -135.47275238 40.01658386 -135.06542969 38.77929688 C-134.80276306 37.97842651 -134.54009644 37.17755615 -134.26947021 36.35241699 C-131.34174447 27.97124432 -126.11701619 20.84260946 -120.48046875 14.09375 C-119.97128906 13.43890625 -119.46210937 12.7840625 -118.9375 12.109375 C-106.60393725 -3.11724568 -87.09057103 -12.8486011 -68.0703125 -16.57421875 C-43.63104836 -18.83465123 -19.81734938 -15.44980762 0 0 Z " fill="#2E3741" transform="translate(1108.48046875,340.90625)"/>
<path d="M0 0 C1.54185774 1.33017897 3.06290839 2.6848475 4.5625 4.0625 C5.80386719 5.16658203 5.80386719 5.16658203 7.0703125 6.29296875 C22.38888277 20.65120052 32.9148526 42.01832587 33.875 63.1015625 C34.4070545 86.81249348 28.28221343 108.91283087 12.5625 127.0625 C11.67304687 128.18591797 11.67304687 128.18591797 10.765625 129.33203125 C-2.26982219 145.23639096 -22.7024227 154.33351857 -42.6953125 157.59375 C-45.61845648 157.87437182 -48.50201228 157.99995965 -51.4375 158.0625 C-52.49839844 158.124375 -53.55929687 158.18625 -54.65234375 158.25 C-77.68463765 159.09425361 -98.11774445 149.35587505 -115.3359375 134.57421875 C-125.69958711 124.77665084 -134.02253409 112.70242101 -138.4375 99.0625 C-138.4375 98.4025 -138.4375 97.7425 -138.4375 97.0625 C-139.32165061 97.06420874 -139.32165061 97.06420874 -140.22366285 97.065952 C-175.16243292 97.13309402 -210.10119188 97.18456362 -245.04001305 97.21569599 C-249.23565985 97.21944808 -253.43130652 97.22333105 -257.62695312 97.22729492 C-258.8798636 97.22847532 -258.8798636 97.22847532 -260.15808541 97.22967956 C-273.68067456 97.24273158 -287.20322543 97.2663843 -300.72579187 97.29395839 C-314.60238039 97.32201826 -328.47894887 97.33867749 -342.35556459 97.34476548 C-350.91738747 97.34888072 -359.47910214 97.3618759 -368.04089171 97.3862494 C-373.91294999 97.40211377 -379.78495237 97.40689877 -385.65703052 97.40300413 C-389.04438361 97.40108365 -392.43139537 97.40565926 -395.81874084 97.42011642 C-399.49450517 97.43503611 -403.16980606 97.43145497 -406.84558105 97.42326355 C-407.91174385 97.43200207 -408.97790664 97.4407406 -410.07637739 97.44974393 C-419.32681411 97.39400362 -425.79954161 95.34514511 -432.67578125 88.96875 C-439.11688239 81.9992215 -440.05321514 74.27152487 -439.83984375 65.16015625 C-439.4056715 58.42507856 -436.29489683 53.87197403 -431.57421875 49.23046875 C-423.57329 42.64052543 -414.87672217 41.61831875 -404.80125427 41.70173645 C-403.65833689 41.69917318 -402.51541951 41.6966099 -401.33786827 41.69396895 C-397.52384687 41.68904369 -393.71022492 41.70550379 -389.89624023 41.72192383 C-387.15602876 41.72444323 -384.41582497 41.72242639 -381.6756134 41.72059631 C-375.78418818 41.71902697 -369.892863 41.72840059 -364.00146294 41.74530983 C-355.4836143 41.76974141 -346.9658138 41.77750934 -338.44793392 41.7812738 C-324.62663884 41.78783178 -310.80539703 41.80777515 -296.98413086 41.83618164 C-283.56193304 41.86373916 -270.13974971 41.88496445 -256.7175293 41.89770508 C-255.88950904 41.89849325 -255.06148878 41.89928142 -254.208377 41.90009347 C-250.05424099 41.90400872 -245.90010488 41.90779981 -241.7459687 41.91152918 C-207.30977414 41.94260472 -172.87364283 41.99542266 -138.4375 42.0625 C-138.23843048 41.45151459 -138.03936096 40.84052917 -137.83425903 40.21102905 C-137.43701126 39.00321274 -137.43701126 39.00321274 -137.03173828 37.77099609 C-136.77079376 36.97438568 -136.50984924 36.17777527 -136.24099731 35.35702515 C-132.72161068 25.30680967 -126.46590416 16.91553642 -119.4375 9.0625 C-118.64472656 8.12857422 -118.64472656 8.12857422 -117.8359375 7.17578125 C-87.97578784 -25.67038337 -33.81904531 -26.06335161 0 0 Z " fill="#2D3640" transform="translate(1110.4375,836.9375)"/>
<path d="M0 0 C13.86097796 11.55600635 24.42351433 26.63944068 29.56713867 43.98364258 C29.86491211 44.8834082 30.16268555 45.78317383 30.46948242 46.71020508 C34.67440018 61.39835097 34.49036154 79.50936734 29.56713867 93.98364258 C29.02186523 95.60592773 29.02186523 95.60592773 28.46557617 97.26098633 C19.87286576 121.01567286 3.87198395 138.8757664 -18.99536133 149.73364258 C-40.70048992 159.11279304 -66.32874196 160.53383119 -88.5715332 151.72631836 C-96.95244799 148.17701293 -104.24353722 143.55051111 -111.43286133 137.98364258 C-112.24239258 137.35844727 -113.05192383 136.73325195 -113.88598633 136.08911133 C-125.67954171 126.29551202 -134.59346815 112.50182213 -139.43286133 97.98364258 C-140.61865988 97.98006005 -140.61865988 97.98006005 -141.82841396 97.97640514 C-161.08403831 97.9172105 -180.33953497 97.84163183 -199.59502316 97.74792767 C-208.90692448 97.70300566 -218.21878787 97.66358271 -227.53076172 97.63720703 C-235.64923208 97.61419783 -243.76758202 97.58076718 -251.88595682 97.53494102 C-256.18263018 97.51104817 -260.47918456 97.49229362 -264.77592278 97.48602867 C-268.82497704 97.47995995 -272.87372705 97.45989594 -276.92266846 97.42936707 C-278.40403184 97.42061539 -279.88543503 97.41685828 -281.3668232 97.41863441 C-293.07721466 97.42823675 -302.76264988 96.44607118 -311.43286133 87.98364258 C-317.87841351 79.53884964 -318.81493881 70.34171241 -317.43286133 59.98364258 C-316.04215361 56.28336668 -314.19809294 53.77932828 -311.43286133 50.98364258 C-310.86825195 50.40227539 -310.30364258 49.8209082 -309.72192383 49.22192383 C-304.07495601 43.94545842 -298.3111601 41.60445809 -290.5927887 41.62287903 C-289.94160645 41.62031575 -289.2904242 41.61775248 -288.61950916 41.61511153 C-286.45750586 41.61020618 -284.2962153 41.6266114 -282.13427734 41.64306641 C-280.57661455 41.64391339 -279.01895055 41.64343615 -277.46128845 41.64173889 C-273.24685558 41.64088028 -269.03268032 41.65848417 -264.81830716 41.67946076 C-260.40874628 41.69825003 -255.99917909 41.69997978 -251.58958435 41.70353699 C-243.24575879 41.71285085 -234.90205155 41.7374557 -226.55827802 41.76758546 C-217.05649939 41.80114999 -207.55471503 41.81762064 -198.05289185 41.83267176 C-178.51281467 41.86400585 -158.97284752 41.91675352 -139.43286133 41.98364258 C-139.22871613 41.36463577 -139.02457092 40.74562897 -138.8142395 40.10786438 C-138.4110701 38.89068977 -138.4110701 38.89068977 -137.99975586 37.64892578 C-137.60072556 36.44197807 -137.60072556 36.44197807 -137.19363403 35.21064758 C-129.88242658 13.80859742 -111.9712749 -1.62642617 -92.25561523 -11.30444336 C-87.4163963 -13.61800503 -82.66587117 -15.75778543 -77.43286133 -17.01635742 C-76.60657227 -17.21874023 -75.7802832 -17.42112305 -74.92895508 -17.62963867 C-48.45025001 -23.0432265 -21.23395128 -16.69312915 0 0 Z " fill="#2D3640" transform="translate(344.432861328125,590.016357421875)"/>
<path d="M0 0 C18.12808825 14.37564211 31.3203439 35.23635224 34.37890625 58.390625 C35.95253118 83.45261943 30.9970285 107.44397802 14.47265625 127.05078125 C1.89600986 141.10565286 -13.97922703 152.14458359 -32.62109375 156.390625 C-33.25063965 156.55691406 -33.88018555 156.72320313 -34.52880859 156.89453125 C-40.52690315 158.39239502 -46.2040863 158.70466286 -52.37109375 158.640625 C-53.34336914 158.63168213 -54.31564453 158.62273926 -55.31738281 158.61352539 C-76.05203034 158.27993195 -93.17362405 151.90589689 -109.62109375 139.390625 C-110.471875 138.74351562 -111.32265625 138.09640625 -112.19921875 137.4296875 C-123.93241805 127.70672165 -132.81528953 113.80803766 -137.62109375 99.390625 C-138.30855147 99.38823665 -138.9960092 99.38584829 -139.70429897 99.38338757 C-156.45638165 99.32416914 -173.20830307 99.24857547 -189.96022701 99.15491009 C-198.06144342 99.11000564 -206.16261639 99.07057873 -214.26391602 99.04418945 C-221.32764268 99.02116593 -228.39123128 98.98771952 -235.45484835 98.94192344 C-239.19261073 98.9180497 -242.93023686 98.89928273 -246.66807365 98.89301109 C-250.84784177 98.88580218 -255.02713766 98.85531673 -259.20678711 98.82299805 C-260.43677933 98.82443314 -261.66677155 98.82586823 -262.93403625 98.8273468 C-273.55054298 98.71142473 -281.73658975 96.75664688 -289.62109375 89.390625 C-296.17549647 80.93889518 -296.57539005 72.66453838 -295.62109375 62.390625 C-293.48050246 55.03364133 -287.72416384 49.74846786 -281.62109375 45.390625 C-277.86044297 43.59429806 -274.894827 43.14261464 -270.74284363 43.15011597 C-269.56640289 43.14736664 -268.38996216 43.14461731 -267.1778717 43.14178467 C-265.89609543 43.14897522 -264.61431915 43.15616577 -263.29370117 43.16357422 C-261.92352303 43.16413867 -260.55334429 43.16382111 -259.1831665 43.16268921 C-255.47071786 43.16211601 -251.75839878 43.173865 -248.04598022 43.18783712 C-244.16357949 43.20034992 -240.28117571 43.20151542 -236.39875793 43.20388794 C-229.05008263 43.21010109 -221.70146691 43.22650968 -214.35281783 43.24658692 C-205.98527576 43.26895104 -197.61773082 43.27994064 -189.2501663 43.28997779 C-172.04044099 43.31087605 -154.83077368 43.34604883 -137.62109375 43.390625 C-137.42628418 42.71325287 -137.23147461 42.03588074 -137.03076172 41.33798218 C-136.76924316 40.44447052 -136.50772461 39.55095886 -136.23828125 38.63037109 C-135.85325439 37.3049379 -135.85325439 37.3049379 -135.46044922 35.95272827 C-134.27862018 32.34523637 -132.61080265 29.23321532 -130.62109375 26.015625 C-130.23445557 25.38205078 -129.84781738 24.74847656 -129.44946289 24.09570312 C-117.41832989 5.0597347 -97.70820351 -10.23519215 -75.68359375 -15.421875 C-73.66774846 -15.8423737 -71.64681493 -16.23936811 -69.62109375 -16.609375 C-68.67234375 -16.795 -67.72359375 -16.980625 -66.74609375 -17.171875 C-43.34427796 -20.44812921 -18.90045274 -14.12941371 0 0 Z " fill="#2D3640" transform="translate(608.62109375,1083.609375)"/>
<path d="M0 0 C19.02136079 16.10362993 31.42012459 36.99710693 33.6484375 62.2421875 C34.82233422 85.20089831 29.20134156 108.32889438 13.69287109 125.93969727 C11.40679663 128.44006663 9.04266554 130.84455373 6.6484375 133.2421875 C5.91753906 133.9846875 5.18664062 134.7271875 4.43359375 135.4921875 C-14.28962179 153.34374496 -38.37746677 157.91233888 -63.3125 157.546875 C-85.26638906 156.84836841 -105.49296873 145.22820726 -120.45703125 129.4765625 C-126.92334927 121.85030702 -138.3515625 107.86837898 -138.3515625 97.2421875 C-139.52761047 97.25551117 -140.70365845 97.26883484 -141.91534424 97.28256226 C-153.03688664 97.40456679 -164.15829201 97.49431467 -175.28035355 97.55306053 C-180.99740902 97.58427869 -186.71392119 97.62657745 -192.43066406 97.69482422 C-197.95501746 97.76035619 -203.47885062 97.79596499 -209.00356293 97.81145096 C-211.10378958 97.82247674 -213.20399004 97.84400697 -215.30399323 97.87656784 C-237.31089096 98.20399789 -237.31089096 98.20399789 -246.3515625 91.2421875 C-252.86543622 84.58716496 -255.61582575 78.38236794 -255.8515625 68.9921875 C-255.72722225 60.54533963 -253.32588167 55.50686789 -247.640625 49.40625 C-240.95632299 43.20587936 -234.50705468 41.79331372 -225.65258789 41.90161133 C-224.70546936 41.90117325 -223.75835083 41.90073517 -222.78253174 41.90028381 C-219.6712132 41.90236354 -216.56044244 41.92565625 -213.44921875 41.94921875 C-211.28446243 41.9548176 -209.11970229 41.95908633 -206.9549408 41.96208191 C-201.27165131 41.97350787 -195.58859371 42.00295585 -189.90539551 42.03619385 C-184.1003737 42.06694315 -178.29531424 42.08059764 -172.49023438 42.09570312 C-161.11057549 42.12782758 -149.73108832 42.17899684 -138.3515625 42.2421875 C-138.21363281 41.48172119 -138.07570313 40.72125488 -137.93359375 39.93774414 C-133.98034017 21.62907267 -117.87799177 5.22923469 -102.80078125 -4.62109375 C-70.91040818 -24.71429051 -29.94515293 -23.11082374 0 0 Z " fill="#2D3640" transform="translate(568.3515625,94.7578125)"/>
<path d="M0 0 C0.88748107 -0.00410527 1.77496213 -0.00821054 2.68933657 -0.0124402 C5.67835957 -0.02379506 8.66719869 -0.02086393 11.65623951 -0.01802826 C13.81482541 -0.02319469 15.9734094 -0.02922076 18.13199073 -0.03603506 C24.07582214 -0.05219184 30.01960527 -0.05575513 35.96345603 -0.05723 C42.36922211 -0.06092818 48.77496304 -0.07602136 55.18071461 -0.08950043 C69.92384054 -0.1180972 84.66695663 -0.12972154 99.41010547 -0.13888432 C106.69565552 -0.14355636 113.98120242 -0.15076166 121.26675001 -0.15827507 C146.20618808 -0.18394539 171.14562439 -0.20538416 196.08507538 -0.21228027 C197.65056737 -0.21272354 199.21605936 -0.21316711 200.78155135 -0.21361098 C202.35082171 -0.21405226 203.92009206 -0.21449322 205.48936242 -0.21493387 C208.63758354 -0.21581898 211.78580465 -0.21671321 214.93402576 -0.21761322 C216.10488909 -0.21794139 216.10488909 -0.21794139 217.29940622 -0.2182762 C242.61109412 -0.22553789 267.92266748 -0.25738035 293.23431152 -0.30399395 C319.99567733 -0.35318723 346.75697766 -0.38062578 373.51839 -0.38301611 C376.45617348 -0.38335902 379.39395693 -0.38378987 382.33174038 -0.38428497 C383.41678656 -0.38445228 383.41678656 -0.38445228 384.52375286 -0.38462297 C396.16399619 -0.38692411 407.80412194 -0.40896896 419.44432556 -0.43805908 C431.14450725 -0.46679347 442.84450348 -0.47275569 454.54471459 -0.45717913 C460.8831952 -0.44935595 467.22128026 -0.45127426 473.55971241 -0.47929382 C479.3625774 -0.50471152 485.16474839 -0.50243084 490.96761201 -0.4781124 C493.06655646 -0.47418783 495.16554957 -0.48040448 497.2644256 -0.49780113 C517.8520182 -0.65763534 517.8520182 -0.65763534 525.22919178 6.26285553 C529.40060068 10.93295512 529.81116683 15.52048875 529.54169178 21.68473053 C528.77903831 27.97662167 525.59897099 31.17757948 520.94794178 35.06363678 C516.86714439 37.91092042 512.40707242 37.4066882 507.65204048 37.39986992 C506.31578394 37.40384766 506.31578394 37.40384766 504.95253232 37.40790576 C501.94011217 37.41562099 498.92773262 37.41615878 495.91530323 37.41675568 C493.74464501 37.42076883 491.57398754 37.4252068 489.40333098 37.43003523 C483.41692509 37.44202289 477.43052726 37.44765425 471.4441117 37.45221639 C464.99609303 37.45816412 458.54808405 37.46977596 452.10007191 37.4805069 C437.25457782 37.5041844 422.40907989 37.51844036 407.56357259 37.53073631 C402.4280673 37.5349903 397.29256237 37.53955601 392.15705752 37.54431963 C364.8582057 37.56957831 337.55935327 37.59162904 310.26049232 37.60404778 C303.93487324 37.60696916 297.60925418 37.60993667 291.28363514 37.61295319 C290.49774777 37.6133241 289.7118604 37.613695 288.90215827 37.61407715 C263.41763826 37.62623464 237.93318729 37.65718184 212.44869971 37.69887471 C186.2549032 37.74164994 160.06114315 37.76828717 133.86731077 37.77352249 C130.16864439 37.77426295 126.46997807 37.77517364 122.77131176 37.77618027 C121.67939963 37.77646619 121.67939963 37.77646619 120.56542867 37.77675789 C108.84472784 37.7802731 97.1241134 37.80057846 85.40344431 37.8269769 C73.62466271 37.85310644 61.84598972 37.8604406 50.06718323 37.84987561 C43.68445157 37.84467691 37.30199494 37.84765475 30.91930294 37.87234116 C25.07829713 37.89474441 19.23776534 37.89416299 13.39675172 37.87513728 C11.28163256 37.87232476 9.16648186 37.87800479 7.05141363 37.89295022 C4.1788794 37.9120099 1.30804361 37.90029847 -1.56445122 37.88088799 C-2.38806761 37.89373721 -3.21168401 37.90658643 -4.06025848 37.91982502 C-10.08116613 37.83026432 -14.07106448 36.01373063 -18.77080822 32.26285553 C-21.99047327 28.52670254 -24.03071657 24.15895418 -24.33330822 19.20035553 C-23.46912507 13.15107345 -21.47185827 8.47505338 -16.83330822 4.38785553 C-11.24205562 0.50821087 -6.71173825 -0.0288019 0 0 Z " fill="#2F3842" transform="translate(433.77080821990967,515.7371444702148)"/>
<path d="M0 0 C1.93075526 -0.01152344 1.93075526 -0.01152344 3.90051568 -0.02327967 C5.33211929 -0.02171917 6.76372269 -0.0199616 8.19532585 -0.01802826 C9.71370555 -0.02319542 11.23208253 -0.0292217 12.75045574 -0.03603506 C16.92930664 -0.05218371 21.10808886 -0.05575468 25.28696728 -0.05723 C29.7915799 -0.06092967 34.29615682 -0.07602374 38.80074883 -0.08950043 C48.65416997 -0.11667525 58.50757485 -0.12871805 68.36102724 -0.13752174 C74.51342712 -0.14304578 80.6658207 -0.15152039 86.81821632 -0.16053009 C103.8515445 -0.18491757 120.88486763 -0.20551508 137.91821289 -0.21228027 C139.55380156 -0.21293897 139.55380156 -0.21293897 141.22243243 -0.21361098 C142.31544124 -0.21404753 143.40845006 -0.21448409 144.53458035 -0.21493387 C146.74944759 -0.21582081 148.96431482 -0.21671393 151.17918205 -0.21761322 C152.27783379 -0.21805608 153.37648553 -0.21849894 154.50842975 -0.21895522 C172.3070761 -0.22684976 190.10555861 -0.26175243 207.90414168 -0.30833226 C226.17662366 -0.35576633 244.44902344 -0.38068433 262.72156799 -0.38301611 C272.98133506 -0.38484936 283.24088872 -0.39634718 293.500597 -0.43265533 C302.23801779 -0.46346711 310.97515924 -0.47369282 319.71262403 -0.45717913 C324.16968769 -0.44936897 328.62618894 -0.45120941 333.08318329 -0.47929382 C337.16714205 -0.50479195 341.25011642 -0.50236186 345.33407401 -0.4781124 C346.80788708 -0.47420157 348.28177011 -0.48034158 349.75548495 -0.49780113 C358.89697385 -0.59920691 365.60234705 0.26389436 372.77293205 6.26285553 C376.91396808 10.82706879 377.40540016 15.48579605 377.15574455 21.54410553 C376.33370489 27.38226476 374.31164865 31.03816272 369.71043205 34.70035553 C365.42001057 36.98249462 362.413509 37.38944565 357.61088657 37.39707661 C355.66374241 37.40376337 355.66374241 37.40376337 353.67726201 37.41058522 C352.22816955 37.41049592 350.7790771 37.41030606 349.32998466 37.41002655 C347.79724497 37.41332503 346.26450614 37.41705056 344.73176843 37.42116803 C340.50874339 37.43119778 336.28573256 37.43490638 332.06269729 37.43755734 C327.51248435 37.44145743 322.9622827 37.45103588 318.41207695 37.4597702 C307.4187683 37.47954157 296.42545873 37.48960106 285.43213674 37.49849799 C280.25816552 37.50287924 275.08419533 37.50824642 269.91022491 37.51348686 C252.71651198 37.53049878 235.52279969 37.54499416 218.32907963 37.5522356 C213.86627196 37.55414556 209.40346431 37.55606589 204.94065666 37.55802155 C203.27679917 37.55874716 203.27679917 37.55874716 201.5793284 37.55948742 C183.60013062 37.56779228 165.62099928 37.59313704 147.64183053 37.62560222 C129.19312278 37.65864439 110.74444884 37.67668173 92.29571134 37.67987984 C81.93326563 37.68204743 71.57091683 37.69083253 61.20849991 37.71634102 C52.38571378 37.7380091 43.56304811 37.74611761 34.74023839 37.73637424 C30.23721253 37.7318184 25.73443542 37.73379009 21.23144341 37.75313568 C17.11021481 37.77068861 12.98941787 37.76983413 8.8681852 37.75423839 C7.37624815 37.75185031 5.88428182 37.75624777 4.39238968 37.76806704 C2.36581321 37.78312949 0.33908965 37.7711564 -1.68749905 37.75784016 C-3.37671379 37.75930537 -3.37671379 37.75930537 -5.10005409 37.76080018 C-11.64291514 36.71891715 -15.46678281 32.31238128 -19.22706795 27.26285553 C-21.14960915 21.49523193 -21.24793006 15.38310762 -18.60206795 9.88785553 C-13.0818402 3.78655117 -8.44268849 0.01889379 0 0 Z " fill="#2F3842" transform="translate(586.2270679473877,763.7371444702148)"/>
<path d="M0 0 C1.04433197 -0.0071553 2.08866394 -0.01431061 3.16464233 -0.02168274 C4.31013046 -0.02437164 5.45561859 -0.02706055 6.63581848 -0.02983093 C7.84260254 -0.03640213 9.0493866 -0.04297333 10.29273987 -0.04974365 C14.29618069 -0.06949358 18.29958144 -0.08114588 22.30305481 -0.09111023 C23.68319023 -0.09515887 25.06332545 -0.09927583 26.44346046 -0.10346031 C32.92971719 -0.12250964 39.41596257 -0.1367398 45.90224189 -0.14507228 C53.37894256 -0.1548366 60.85534655 -0.18113579 68.33194274 -0.22157317 C74.11722088 -0.25178431 79.90241424 -0.26654597 85.68776971 -0.26985329 C89.13996414 -0.2721986 92.59184153 -0.28109015 96.04395103 -0.30631447 C99.90018967 -0.33403626 103.75604164 -0.32974876 107.61238098 -0.32279968 C109.31543144 -0.34201477 109.31543144 -0.34201477 111.05288696 -0.36161804 C118.23358546 -0.31450921 124.14200958 0.51397167 129.50072002 5.62995434 C133.69043485 10.41088816 134.30037554 14.38488461 134.22883606 20.51045227 C133.65129053 25.92494159 131.3632824 29.76777458 127.51008606 33.52217102 C123.22637268 36.23867219 119.715969 37.3964116 114.64120483 37.40786743 C113.06624741 37.41849464 113.06624741 37.41849464 111.45947266 37.42933655 C110.31803299 37.42685913 109.17659332 37.42438171 108.00056458 37.42182922 C106.79027588 37.42694016 105.57998718 37.43205109 104.33302307 37.43731689 C101.02095577 37.44882354 97.70913898 37.4512884 94.39706922 37.4487536 C91.62871891 37.44768223 88.86039157 37.45257147 86.0920462 37.45735902 C79.55941889 37.46844554 73.02684908 37.46889638 66.49421692 37.46284485 C59.7623412 37.4568045 53.03067445 37.46911944 46.29883438 37.49041492 C40.51183765 37.50804612 34.72490734 37.5140299 28.93788475 37.51077718 C25.48474215 37.50896664 22.03174865 37.51157743 18.57863045 37.52549171 C14.72700461 37.54043177 10.87564379 37.53108661 7.02400208 37.51948547 C5.88458664 37.52712921 4.7451712 37.53477295 3.57122803 37.54264832 C-3.64662955 37.49455872 -8.12941895 36.66230624 -13.73991394 31.83467102 C-18.16720874 26.68943653 -19.68938964 22.40634681 -19.46647644 15.67842102 C-18.52154532 9.90186094 -15.44260386 6.23151916 -10.92741394 2.70967102 C-7.07329344 0.61504032 -4.31961779 0.02031593 0 0 Z " fill="#2E3741" transform="translate(337.0524139404297,1011.8528289794922)"/>
<path d="M0 0 C1.05274612 -0.00860046 2.10549225 -0.01720093 3.19013977 -0.02606201 C4.34497864 -0.03032196 5.4998175 -0.03458191 6.68965149 -0.03897095 C8.51445793 -0.05123718 8.51445793 -0.05123718 10.37612915 -0.06375122 C14.41202974 -0.08861381 18.44789286 -0.10527784 22.48384094 -0.11953735 C23.87512023 -0.12489866 25.26639945 -0.13027618 26.6576786 -0.13566971 C32.44730958 -0.15729584 38.2369378 -0.17603046 44.02659893 -0.1872921 C52.31288818 -0.20351794 60.59870755 -0.23666482 68.88481969 -0.29369295 C74.71680406 -0.33245633 80.54866311 -0.35193242 86.38077289 -0.35721266 C89.86099283 -0.36085804 93.34071127 -0.3727907 96.82079124 -0.4053154 C100.70820599 -0.44112618 104.59503629 -0.43700887 108.48262024 -0.42959595 C109.62733795 -0.44600128 110.77205566 -0.46240662 111.95146179 -0.47930908 C119.77739354 -0.41828817 124.87169725 1.12581828 130.46239758 6.7028904 C134.40150672 11.18614601 135.32330845 14.94806313 135.25727844 20.73983765 C134.48267298 26.11855871 131.2288752 29.93117784 127.34712219 33.52890015 C123.29199924 36.23231545 120.62064464 37.40330013 115.69226074 37.42132568 C114.63669479 37.42985565 113.58112885 37.43838562 112.49357605 37.44717407 C111.34076141 37.4462677 110.18794678 37.44536133 109.00019836 37.44442749 C107.78190842 37.45114471 106.56361847 37.45786194 105.30841064 37.46478271 C101.96936476 37.48052773 98.63056763 37.48713791 95.29150176 37.48841429 C93.2035737 37.48983698 91.11567162 37.49410884 89.02775002 37.49940872 C81.73827589 37.51790871 74.44887487 37.52607956 67.15937805 37.52450562 C60.37352812 37.52330487 53.58799659 37.54439384 46.8022272 37.57599294 C40.96937386 37.60218284 35.13662432 37.61287175 29.30371267 37.6115948 C25.8230805 37.61108586 22.34273122 37.6167301 18.86215782 37.6379509 C14.97705641 37.66099141 11.09238815 37.65179572 7.20722961 37.63973999 C6.06048767 37.650979 4.91374573 37.66221802 3.73225403 37.67379761 C-3.67547016 37.61539371 -8.24612572 36.67923446 -13.83256531 31.5562439 C-18.63117903 25.35113995 -18.81112246 19.80800534 -18.09037781 12.15390015 C-15.77064355 7.24676999 -12.3726085 4.34279534 -8.09037781 1.15390015 C-5.10593317 0.15908527 -3.11718354 0.01896252 0 0 Z " fill="#2E3741" transform="translate(730.0903778076172,1011.8460998535156)"/>
<path d="M0 0 C1.07109009 -0.00571014 2.14218018 -0.01142029 3.24572754 -0.01730347 C4.42600525 -0.01842133 5.60628296 -0.01953918 6.82232666 -0.02069092 C8.06143799 -0.02565582 9.30054932 -0.03062073 10.57720947 -0.03573608 C13.98235974 -0.0478592 17.38744848 -0.05530697 20.79261303 -0.05974674 C22.92038171 -0.06267693 25.04814499 -0.0667817 27.17591095 -0.07125092 C33.83409785 -0.0849298 40.49227242 -0.09459379 47.1504724 -0.09845281 C54.83429872 -0.1029307 62.51794689 -0.12046434 70.20171905 -0.1494534 C76.14151045 -0.17108396 82.0812518 -0.18115786 88.02108216 -0.18249393 C91.56817866 -0.18354124 95.11510778 -0.18943281 98.66216278 -0.20731354 C102.6218589 -0.22688518 106.58133335 -0.22249973 110.54107666 -0.21600342 C112.29934784 -0.22982559 112.29934784 -0.22982559 114.09313965 -0.243927 C120.77639787 -0.2095394 125.63901911 0.15735119 130.80377197 4.82403564 C131.28201416 5.40282471 131.76025635 5.98161377 132.25299072 6.57794189 C132.74412354 7.15415283 133.23525635 7.73036377 133.74127197 8.32403564 C136.46995725 12.45706058 136.41890151 17.3292542 135.94049072 22.14044189 C134.19089439 28.10965291 131.11505878 31.8242671 125.94049072 35.14044189 C122.81369379 36.12782164 119.94702298 36.27251312 116.67843628 36.28761292 C115.08029839 36.29834587 115.08029839 36.29834587 113.44987488 36.30929565 C112.28613846 36.31198456 111.12240204 36.31467346 109.92340088 36.31744385 C108.07892616 36.32730064 108.07892616 36.32730064 106.19718933 36.33735657 C102.12464147 36.3570815 98.05213294 36.36875198 93.97955322 36.37872314 C92.57553462 36.38277222 91.17151622 36.38688919 89.76749802 36.39107323 C83.17232584 36.41011109 76.57716478 36.42434675 69.98197043 36.4326852 C62.37565126 36.44246183 54.76962276 36.46879801 47.16340601 36.50918609 C41.27877674 36.53935823 35.39423077 36.55415497 29.50952566 36.55746621 C25.99704978 36.55981486 22.48488495 36.56875106 18.97249222 36.59392738 C15.05369018 36.62156502 11.13527037 36.61737357 7.21636963 36.6104126 C6.05668167 36.62322266 4.89699371 36.63603271 3.7021637 36.64923096 C-3.73894376 36.60098954 -7.28570776 35.72600153 -12.70404053 30.57794189 C-17.2067904 25.0360959 -17.7046017 20.11474297 -17.05950928 13.14044189 C-15.22059436 7.62369715 -11.61812282 4.51271745 -7.05950928 1.14044189 C-4.54324639 -0.11768955 -2.81710291 0.0089694 0 0 Z " fill="#2D3640" transform="translate(300.05950927734375,270.85955810546875)"/>
<path d="M0 0 C1.2367749 -0.0087616 2.4735498 -0.01752319 3.74780273 -0.02655029 C7.12020404 -0.04471493 10.49105998 -0.0405603 13.8633728 -0.02465487 C17.4043779 -0.01193136 20.94532024 -0.02375377 24.48632812 -0.03158569 C30.43110914 -0.04066364 36.37557883 -0.0287435 42.3203125 -0.00488281 C49.17791952 0.02232533 56.03478311 0.01350982 62.89237213 -0.01401484 C68.79670797 -0.03675824 74.70082094 -0.03988063 80.60518646 -0.02682149 C84.12436597 -0.01905549 87.64319687 -0.01790592 91.16235352 -0.03450394 C95.0876927 -0.05172694 99.0122097 -0.02780766 102.9375 0 C104.67084595 -0.01518173 104.67084595 -0.01518173 106.43920898 -0.03067017 C114.47796481 0.07462003 119.6853689 1.76900703 125.34375 7.56884766 C128.43804718 12.59708058 129.57581811 16.77336131 128.46875 22.64697266 C126.70338239 27.95246573 124.25998974 31.6086255 119.46875 34.64697266 C115.87594974 36.32301474 113.05405679 36.9011729 109.09989929 36.92112732 C107.50403488 36.93609001 107.50403488 36.93609001 105.87593079 36.95135498 C104.71893173 36.95201965 103.56193268 36.95268433 102.36987305 36.95336914 C100.52999817 36.96585442 100.52999817 36.96585442 98.6529541 36.97859192 C95.29531218 36.99854191 91.93791806 37.00932944 88.5802381 37.01441836 C86.47973354 37.01806768 84.37925262 37.02431073 82.2787571 37.03141975 C74.94274478 37.05589846 67.60680301 37.0689626 60.27075195 37.07250977 C53.44564357 37.07614327 46.62098535 37.10602892 39.79601449 37.14791435 C33.92575796 37.18267035 28.05565025 37.19805912 22.18529159 37.1987558 C18.68388795 37.19954686 15.18294315 37.20820533 11.68164635 37.23675346 C7.77285925 37.26791279 3.86471325 37.25884901 -0.04418945 37.24633789 C-1.77057899 37.26858932 -1.77057899 37.26858932 -3.53184509 37.29129028 C-10.36464205 37.22907945 -15.37387587 36.37833054 -20.53125 31.64697266 C-24.38903868 26.5681285 -25.18561457 21.57214726 -24.90625 15.26025391 C-24.22300623 10.49889886 -22.57745866 7.45951961 -18.97766113 4.27079201 C-12.85350568 -0.0332004 -7.3161176 -0.06407915 0 0 Z " fill="#2D3640" transform="translate(736.53125,270.35302734375)"/>
<path d="M0 0 C6.64803729 5.47139352 11.59669342 13.63796376 12.5 22.26171875 C12.95246639 32.17356063 10.53902533 40.66107863 4.125 48.3125 C-2.92163578 55.55714042 -10.92833686 58.98149945 -20.9375 59.125 C-30.5921071 59.01700663 -37.65620361 56.51982193 -44.75 49.875 C-51.23358647 42.65797615 -54.32888527 35.72953136 -54.25 26.0625 C-54.24572998 25.27004883 -54.24145996 24.47759766 -54.23706055 23.66113281 C-54.04716269 17.10932107 -52.60422057 12.25596168 -48.75 6.875 C-48.0075 5.8025 -47.265 4.73 -46.5 3.625 C-33.12876193 -9.74623807 -15.31624173 -10.79795042 0 0 Z " fill="#FDFDFD" transform="translate(933.75,1131.125)"/>
<path d="M0 0 C7.86766837 5.95010045 13.36770089 12.35718998 16 22 C17.33583464 32.01875977 14.9872778 40.98211588 9.3125 49.3125 C3.61823872 56.31199498 -4.83123292 61.30697624 -13.81640625 62.31640625 C-23.37671395 62.69491141 -31.4969068 60.00247456 -39 54 C-46.77583008 46.4976057 -50.36897784 39.58638734 -50.625 28.6875 C-50.55111996 19.54434583 -48.05260948 12.44992413 -41.80859375 5.59375 C-30.91703373 -4.57907763 -13.14798252 -8.8168824 0 0 Z " fill="#FDFDFD" transform="translate(1073,878)"/>
<path d="M0 0 C8.88665256 5.4949135 15.45549265 12.61233366 17.94140625 22.9296875 C19.61628985 33.41803629 17.62568901 41.83167664 11.83984375 50.7734375 C6.5717028 57.43795316 -1.20596117 62.22684993 -9.65625 63.44921875 C-18.51962408 64.29137735 -26.60040525 63.02902829 -33.984375 57.80078125 C-41.56309269 51.37290588 -46.94072624 44.56755327 -48.1171875 34.5078125 C-48.69566638 23.9637202 -46.9694897 15.46214433 -39.7578125 7.30078125 C-29.15953492 -2.62724952 -13.49542897 -6.41032876 0 0 Z " fill="#FDFDFD" transform="translate(1070.65625,381.55078125)"/>
<path d="M0 0 C4.83877884 3.60819458 7.9448569 7.56096654 10.75 12.875 C11.08902344 13.51179688 11.42804687 14.14859375 11.77734375 14.8046875 C15.18813302 22.38072633 14.68892513 30.85117448 12.1875 38.625 C8.69436439 47.20919495 2.05046607 53.68336355 -6 58.125 C-13.92305927 61.431786 -23.5792524 61.26260999 -31.734375 58.83984375 C-40.65702895 54.77482755 -47.98077557 47.8155609 -51.62890625 38.58984375 C-53.58700418 30.03086223 -53.82003557 18.59778162 -49.25 10.875 C-36.8156422 -5.85578225 -18.27207844 -11.78932007 0 0 Z " fill="#FDFDFD" transform="translate(533.25,137.125)"/>
<path d="M0 0 C1.31525687 0.72985352 2.60962105 1.49923319 3.875 2.3125 C4.80505859 2.8384375 4.80505859 2.8384375 5.75390625 3.375 C12.34781506 7.47661067 16.96171128 14.64584216 19.40234375 21.953125 C21.19798794 30.91650594 20.73069319 39.49195987 15.875 47.3125 C15.45089844 48.00988281 15.02679687 48.70726562 14.58984375 49.42578125 C9.43926877 57.04404118 2.26249259 61.56970528 -6.59765625 63.8359375 C-16.65004359 65.73144176 -25.0030749 63.4814804 -33.48828125 57.703125 C-39.86450485 52.46765703 -43.92092559 46.25876825 -46.125 38.3125 C-46.9510611 29.58122625 -46.86684071 21.84890513 -42.125 14.3125 C-41.72410156 13.62800781 -41.32320312 12.94351563 -40.91015625 12.23828125 C-32.42654629 -0.67156 -14.33482157 -6.17193707 0 0 Z " fill="#FDFDFD" transform="translate(1212.125,626.6875)"/>
<path d="M0 0 C8.44722729 6.13357873 15.04872471 13.5340689 17 24 C17.93473503 33.18916439 16.40563166 41.01755369 11.15234375 48.703125 C4.86093837 56.33045493 -2.37651156 61.53904647 -12.3828125 62.5703125 C-21.88074737 63.12625509 -29.28713685 61.98113222 -37 56 C-37.67417969 55.49339844 -38.34835937 54.98679688 -39.04296875 54.46484375 C-45.4682937 48.8889221 -48.72734128 41.18182069 -49.48046875 32.796875 C-49.98324579 22.88325592 -48.55186179 15.69235044 -42.23828125 7.796875 C-31.13869569 -4.36088606 -14.68441735 -7.90373401 0 0 Z " fill="#FDFDFD" transform="translate(929,135)"/>
<path d="M0 0 C7.28859846 6.24929831 11.1724418 13.28310618 12.109375 22.80859375 C12.22539062 23.92234375 12.22539062 23.92234375 12.34375 25.05859375 C12.8223438 33.35421963 10.01606358 40.74400458 5.20703125 47.46875 C1.9848877 51.06291012 -1.77585466 53.34398088 -5.890625 55.80859375 C-7.4375 56.73671875 -7.4375 56.73671875 -9.015625 57.68359375 C-16.52558475 60.63142842 -27.34194386 59.97738914 -34.76953125 56.97265625 C-43.98956727 51.91267332 -49.2411849 45.65928887 -52.984375 35.98046875 C-55.32599094 27.78481297 -55.01282017 19.13142643 -51.453125 11.37109375 C-47.1478147 3.80109318 -40.12742422 -3.09754368 -31.71484375 -5.921875 C-19.9078339 -8.44732318 -9.99146129 -7.10385811 0 0 Z " fill="#FDFDFD" transform="translate(309.890625,633.19140625)"/>
<path d="M0 0 C7.96851322 5.98616624 13.88449355 13.38266383 15.44921875 23.41796875 C16.3920613 34.34566851 14.44934159 42.15602265 7.44921875 50.66796875 C0.32525123 58.01202632 -7.21489272 61.94628421 -17.55078125 62.16796875 C-25.26448429 62.04788615 -31.15171617 59.59345933 -37.55078125 55.41796875 C-39.22140625 54.36609375 -39.22140625 54.36609375 -40.92578125 53.29296875 C-48.17091725 45.35781979 -50.09698444 38.16443671 -50.17578125 27.66796875 C-50.18657715 26.78109375 -50.19737305 25.89421875 -50.20849609 24.98046875 C-50.03524763 16.92968803 -47.57255143 10.82400257 -41.73828125 5.16796875 C-30.36055478 -5.59759804 -13.76165678 -8.53517763 0 0 Z " fill="#FDFDFD" transform="translate(572.55078125,1125.58203125)"/>
</svg>
