<svg width="512" height="512" viewBox="0 0 512 512" fill="none" xmlns="http://www.w3.org/2000/svg">
<g clip-path="url(#clip0_96_2)">
<path d="M512 512H285.361C275.873 507.308 268.549 500.896 263.097 493.07C252.607 478.015 248.98 457.646 250.3 434.013C252.941 386.739 275.356 326.672 301.611 270.748C327.859 214.841 357.914 163.14 375.784 132.611C380.251 124.981 383.958 118.67 386.653 113.948C388.001 111.588 389.098 109.62 389.911 108.081C390.718 106.555 391.263 105.418 391.487 104.734C391.544 104.562 391.588 104.396 391.606 104.249C391.621 104.134 391.639 103.896 391.498 103.691C391.412 103.567 391.285 103.482 391.139 103.448C391.007 103.419 390.889 103.437 390.807 103.459C390.649 103.502 390.499 103.595 390.373 103.685C389.864 104.048 389.025 104.916 387.856 106.257C385.491 108.969 381.616 113.801 375.987 121.006C281.368 242.124 155.095 332.523 0 327.022V0H512V512ZM421.395 39.5127C421.27 39.4847 421.148 39.505 421.047 39.5557C420.882 39.639 420.814 39.7829 420.797 39.8184C420.769 39.8761 420.752 39.9338 420.74 39.9775C420.717 40.0678 420.698 40.1786 420.683 40.2988C420.651 40.5437 420.623 40.8964 420.595 41.3613C420.154 48.701 420.176 55.6981 415.234 61.2305C413.715 62.9313 411.583 63.7626 409.22 64.2559C408.041 64.502 406.819 64.6613 405.604 64.8066C404.397 64.951 403.187 65.0829 402.063 65.2744C402.004 65.2846 401.924 65.3004 401.851 65.3291C401.819 65.3415 401.741 65.3735 401.667 65.4414C401.582 65.5197 401.449 65.7065 401.519 65.957C401.57 66.1439 401.707 66.2355 401.741 66.2578C401.793 66.2916 401.843 66.3122 401.873 66.3232C401.936 66.3465 402.005 66.3635 402.064 66.376C402.303 66.4261 402.721 66.4755 403.237 66.5264C404.286 66.6298 405.862 66.7492 407.532 66.8838C409.208 67.0188 410.986 67.1694 412.454 67.3369C413.188 67.4207 413.84 67.5082 414.359 67.5986C414.896 67.6921 415.242 67.7815 415.4 67.8535C419.375 69.6599 420.738 73.9307 421.142 79.0645C421.342 81.614 421.303 84.3211 421.256 86.958C421.209 89.583 421.155 92.148 421.335 94.3682C421.382 94.9433 421.415 95.3627 421.44 95.6387C421.453 95.7757 421.464 95.8829 421.473 95.958C421.477 95.994 421.482 96.0323 421.488 96.0654C421.491 96.0799 421.497 96.1093 421.507 96.1416C421.511 96.1563 421.523 96.1913 421.544 96.2314C421.556 96.2523 421.587 96.2999 421.608 96.3262C421.644 96.3632 421.746 96.4372 421.815 96.4688C421.913 96.4938 422.113 96.4845 422.207 96.4502C422.272 96.4121 422.366 96.3285 422.397 96.2891C422.448 96.2173 422.467 96.149 422.472 96.1338C422.485 96.0886 422.49 96.0488 422.491 96.0361C422.495 96.0013 422.497 95.9624 422.498 95.9307C422.501 95.8623 422.501 95.766 422.502 95.6494C422.503 95.4145 422.501 95.0682 422.5 94.6348C422.496 92.8937 422.504 89.6696 422.737 86.0225C422.971 82.371 423.429 78.3164 424.318 74.9082C424.763 73.2044 425.31 71.6794 425.981 70.4531C426.654 69.2234 427.432 68.329 428.317 67.835C429 67.4542 429.962 67.2001 431.116 67.04C432.263 66.8811 433.558 66.82 434.883 66.7988C436.21 66.7777 437.543 66.7969 438.783 66.7969C440.012 66.7968 441.154 66.7779 442.057 66.6748L442 65.6777C441.319 65.6777 440.216 65.5203 438.892 65.2559C437.578 64.9935 436.079 64.6323 434.622 64.2393C433.166 63.8462 431.757 63.4233 430.624 63.0371C430.057 62.844 429.563 62.6613 429.169 62.498C428.766 62.3312 428.495 62.1948 428.354 62.0996C427.682 61.6447 427.055 60.8858 426.479 59.873C425.905 58.8645 425.398 57.6348 424.952 56.2773C424.059 53.5619 423.424 50.3853 422.961 47.5479C422.495 44.6892 422.216 42.262 422.011 40.9102C421.961 40.5821 421.914 40.3095 421.868 40.1191C421.847 40.0302 421.818 39.9269 421.778 39.8398C421.762 39.8036 421.719 39.7153 421.635 39.6387C421.589 39.5965 421.509 39.5385 421.395 39.5127Z" fill="#2E5AAC"/>
</g>
<defs>
<clipPath id="clip0_96_2">
<path d="M0 0H512V512H112C50.1441 512 0 461.856 0 400V0Z" fill="white"/>
</clipPath>
</defs>
</svg>
